BNazaninBold.ufo
<glyph name="exclam" format="2">
  <advance width="399"/>
  <unicode hex="0021"/>
  <outline>
    <contour>
      <point x="397" y="974" type="qcurve" smooth="yes"/>
      <point x="397" y="903"/>
      <point x="374" y="758" type="qcurve" smooth="yes"/>
      <point x="347" y="591"/>
      <point x="342" y="507" type="qcurve" smooth="yes"/>
      <point x="327" y="277" type="line"/>
      <point x="265" y="277" type="line"/>
      <point x="262" y="316"/>
      <point x="248" y="505" type="qcurve" smooth="yes"/>
      <point x="242" y="587"/>
      <point x="214" y="761" type="qcurve" smooth="yes"/>
      <point x="190" y="910"/>
      <point x="190" y="976" type="qcurve" smooth="yes"/>
      <point x="190" y="1217"/>
      <point x="293" y="1217" type="qcurve" smooth="yes"/>
      <point x="397" y="1217"/>
    </contour>
    <contour>
      <point x="399" y="102" type="qcurve" smooth="yes"/>
      <point x="399" y="59"/>
      <point x="340" y="1"/>
      <point x="297" y="1" type="qcurve" smooth="yes"/>
      <point x="254" y="1"/>
      <point x="197" y="59"/>
      <point x="197" y="102" type="qcurve" smooth="yes"/>
      <point x="197" y="144"/>
      <point x="255" y="202"/>
      <point x="297" y="202" type="qcurve" smooth="yes"/>
      <point x="338" y="202"/>
      <point x="399" y="143"/>
    </contour>
  </outline>
</glyph>
<glyph name="percent" format="2">
  <advance width="1031"/>
  <unicode hex="0025"/>
  <outline>
    <contour>
      <point x="329" y="1041" type="qcurve" smooth="yes"/>
      <point x="329" y="997"/>
      <point x="270" y="939"/>
      <point x="226" y="939" type="qcurve" smooth="yes"/>
      <point x="183" y="939"/>
      <point x="123" y="998"/>
      <point x="123" y="1041" type="qcurve" smooth="yes"/>
      <point x="123" y="1083"/>
      <point x="184" y="1143"/>
      <point x="226" y="1143" type="qcurve" smooth="yes"/>
      <point x="269" y="1143"/>
      <point x="329" y="1084"/>
    </contour>
    <contour>
      <point x="821" y="1259" type="line"/>
      <point x="343" y="-101" type="line"/>
      <point x="245" y="-100" type="line"/>
      <point x="726" y="1261" type="line"/>
    </contour>
    <contour>
      <point x="918" y="88" type="qcurve" smooth="yes"/>
      <point x="918" y="45"/>
      <point x="859" y="-15"/>
      <point x="816" y="-15" type="qcurve" smooth="yes"/>
      <point x="771" y="-15"/>
      <point x="713" y="43"/>
      <point x="713" y="88" type="qcurve" smooth="yes"/>
      <point x="713" y="131"/>
      <point x="773" y="190"/>
      <point x="816" y="190" type="qcurve" smooth="yes"/>
      <point x="858" y="190"/>
      <point x="918" y="130"/>
    </contour>
  </outline>
</glyph>
<glyph name="parenleft" format="2">
  <advance width="669"/>
  <unicode hex="0028"/>
  <outline>
    <contour>
      <point x="242" y="474" type="qcurve" smooth="yes"/>
      <point x="242" y="145"/>
      <point x="508" y="-135" type="qcurve" smooth="yes"/>
      <point x="593" y="-224"/>
      <point x="610" y="-224" type="qcurve" smooth="yes"/>
      <point x="619" y="-224"/>
      <point x="650" y="-208"/>
      <point x="650" y="-200" type="qcurve"/>
      <point x="650" y="-205"/>
      <point x="585" y="-97" type="qcurve" smooth="yes"/>
      <point x="399" y="211"/>
      <point x="399" y="476" type="qcurve" smooth="yes"/>
      <point x="399" y="729"/>
      <point x="593" y="1063" type="qcurve" smooth="yes"/>
      <point x="661" y="1180" type="line" smooth="yes"/>
      <point x="661" y="1186"/>
      <point x="632" y="1201"/>
      <point x="624" y="1201" type="qcurve" smooth="yes"/>
      <point x="604" y="1201"/>
      <point x="518" y="1111" type="qcurve" smooth="yes"/>
      <point x="409" y="997"/>
      <point x="338" y="858" type="qcurve" smooth="yes"/>
      <point x="242" y="669"/>
    </contour>
  </outline>
</glyph>
<glyph name="parenright" format="2">
  <advance width="601"/>
  <unicode hex="0029"/>
  <outline>
    <contour>
      <point x="600" y="474" type="qcurve" smooth="yes"/>
      <point x="600" y="290"/>
      <point x="508" y="109" type="qcurve" smooth="yes"/>
      <point x="440" y="-25"/>
      <point x="335" y="-135" type="qcurve" smooth="yes"/>
      <point x="250" y="-224"/>
      <point x="232" y="-224" type="qcurve" smooth="yes"/>
      <point x="223" y="-224"/>
      <point x="192" y="-208"/>
      <point x="192" y="-200" type="qcurve"/>
      <point x="192" y="-205"/>
      <point x="257" y="-97" type="qcurve" smooth="yes"/>
      <point x="443" y="211"/>
      <point x="443" y="476" type="qcurve" smooth="yes"/>
      <point x="443" y="729"/>
      <point x="249" y="1063" type="qcurve" smooth="yes"/>
      <point x="181" y="1180" type="line" smooth="yes"/>
      <point x="181" y="1186"/>
      <point x="210" y="1201"/>
      <point x="218" y="1201" type="qcurve" smooth="yes"/>
      <point x="238" y="1201"/>
      <point x="324" y="1111" type="qcurve" smooth="yes"/>
      <point x="433" y="997"/>
      <point x="504" y="858" type="qcurve" smooth="yes"/>
      <point x="600" y="669"/>
    </contour>
  </outline>
</glyph>
<glyph name="asterisk" format="2">
  <advance width="1104"/>
  <unicode hex="002A"/>
  <outline>
    <contour>
      <point x="901" y="632" type="qcurve" smooth="yes"/>
      <point x="822" y="585"/>
      <point x="750" y="569" type="qcurve" smooth="yes"/>
      <point x="745" y="567"/>
      <point x="741" y="567" type="qcurve" smooth="yes"/>
      <point x="737" y="567"/>
      <point x="735" y="569" type="qcurve" smooth="yes"/>
      <point x="732" y="571"/>
      <point x="735" y="582" type="qcurve" smooth="yes"/>
      <point x="775" y="728"/>
      <point x="849" y="799" type="qcurve" smooth="yes"/>
      <point x="874" y="823"/>
      <point x="907" y="823" type="qcurve" smooth="yes"/>
      <point x="942" y="823"/>
      <point x="991" y="772"/>
      <point x="991" y="737" type="qcurve" smooth="yes"/>
      <point x="991" y="702"/>
      <point x="953" y="663"/>
    </contour>
    <contour>
      <point x="725" y="855" type="qcurve" smooth="yes"/>
      <point x="725" y="743"/>
      <point x="648" y="617" type="qcurve" smooth="yes"/>
      <point x="642" y="607"/>
      <point x="638" y="607" type="qcurve" smooth="yes"/>
      <point x="633" y="607"/>
      <point x="627" y="617" type="qcurve" smooth="yes"/>
      <point x="555" y="744"/>
      <point x="555" y="851" type="qcurve" smooth="yes"/>
      <point x="555" y="932"/>
      <point x="641" y="932" type="qcurve" smooth="yes"/>
      <point x="673" y="932"/>
      <point x="725" y="886"/>
    </contour>
    <contour>
      <point x="1103" y="467" type="qcurve" smooth="yes"/>
      <point x="1103" y="437"/>
      <point x="1055" y="385"/>
      <point x="1025" y="385" type="qcurve" smooth="yes"/>
      <point x="908" y="385"/>
      <point x="787" y="461" type="qcurve" smooth="yes"/>
      <point x="778" y="467"/>
      <point x="777" y="471" type="qcurve" smooth="yes"/>
      <point x="778" y="477"/>
      <point x="787" y="482" type="qcurve" smooth="yes"/>
      <point x="913" y="554"/>
      <point x="1021" y="554" type="qcurve" smooth="yes"/>
      <point x="1103" y="554"/>
    </contour>
    <contour>
      <point x="725" y="469" type="qcurve" smooth="yes"/>
      <point x="725" y="434"/>
      <point x="675" y="386"/>
      <point x="640" y="386" type="qcurve" smooth="yes"/>
      <point x="605" y="386"/>
      <point x="555" y="434"/>
      <point x="555" y="469" type="qcurve" smooth="yes"/>
      <point x="555" y="505"/>
      <point x="604" y="554"/>
      <point x="640" y="554" type="qcurve" smooth="yes"/>
      <point x="675" y="554"/>
      <point x="725" y="504"/>
    </contour>
    <contour>
      <point x="968" y="260" type="qcurve" smooth="yes"/>
      <point x="993" y="234"/>
      <point x="993" y="201" type="qcurve" smooth="yes"/>
      <point x="993" y="166"/>
      <point x="941" y="117"/>
      <point x="906" y="117" type="qcurve" smooth="yes"/>
      <point x="871" y="117"/>
      <point x="851" y="137" type="qcurve" smooth="yes"/>
      <point x="772" y="217"/>
      <point x="738" y="359" type="qcurve" smooth="yes"/>
      <point x="736" y="364"/>
      <point x="736" y="368" type="qcurve" smooth="yes"/>
      <point x="736" y="376"/>
      <point x="743" y="376" type="qcurve" smooth="yes"/>
      <point x="891" y="339"/>
    </contour>
    <contour>
      <point x="536" y="564" type="qcurve" smooth="yes"/>
      <point x="531" y="564"/>
      <point x="527" y="566" type="qcurve" smooth="yes"/>
      <point x="384" y="604"/>
      <point x="310" y="680" type="qcurve" smooth="yes"/>
      <point x="286" y="705"/>
      <point x="286" y="738" type="qcurve" smooth="yes"/>
      <point x="286" y="773"/>
      <point x="337" y="822"/>
      <point x="372" y="822" type="qcurve" smooth="yes"/>
      <point x="410" y="822"/>
      <point x="436" y="793" type="qcurve" smooth="yes"/>
      <point x="448" y="780"/>
      <point x="477" y="731" type="qcurve" smooth="yes"/>
      <point x="525" y="650"/>
      <point x="541" y="580" type="qcurve" smooth="yes"/>
      <point x="543" y="576"/>
      <point x="543" y="571" type="qcurve" smooth="yes"/>
      <point x="543" y="564"/>
    </contour>
    <contour>
      <point x="502" y="467" type="qcurve" smooth="yes"/>
      <point x="502" y="462"/>
      <point x="492" y="456" type="qcurve" smooth="yes"/>
      <point x="369" y="386"/>
      <point x="258" y="386" type="qcurve" smooth="yes"/>
      <point x="176" y="386"/>
      <point x="176" y="471" type="qcurve" smooth="yes"/>
      <point x="176" y="502"/>
      <point x="224" y="555"/>
      <point x="254" y="555" type="qcurve" smooth="yes"/>
      <point x="366" y="555"/>
      <point x="492" y="477" type="qcurve" smooth="yes"/>
      <point x="502" y="472"/>
    </contour>
    <contour>
      <point x="724" y="89" type="qcurve" smooth="yes"/>
      <point x="724" y="6"/>
      <point x="638" y="6" type="qcurve" smooth="yes"/>
      <point x="607" y="6"/>
      <point x="554" y="54"/>
      <point x="554" y="85" type="qcurve" smooth="yes"/>
      <point x="554" y="196"/>
      <point x="631" y="322" type="qcurve" smooth="yes"/>
      <point x="637" y="332"/>
      <point x="641" y="332" type="qcurve" smooth="yes"/>
      <point x="646" y="332"/>
      <point x="652" y="322" type="qcurve" smooth="yes"/>
      <point x="724" y="194"/>
    </contour>
    <contour>
      <point x="544" y="356" type="qcurve" smooth="yes"/>
      <point x="505" y="215"/>
      <point x="429" y="141" type="qcurve" smooth="yes"/>
      <point x="404" y="116"/>
      <point x="371" y="116" type="qcurve" smooth="yes"/>
      <point x="337" y="116"/>
      <point x="287" y="168"/>
      <point x="287" y="202" type="qcurve" smooth="yes"/>
      <point x="287" y="255"/>
      <point x="378" y="308" type="qcurve" smooth="yes"/>
      <point x="459" y="356"/>
      <point x="529" y="371" type="qcurve" smooth="yes"/>
      <point x="534" y="373"/>
      <point x="538" y="373" type="qcurve" smooth="yes"/>
      <point x="542" y="373"/>
      <point x="544" y="371" type="qcurve" smooth="yes"/>
      <point x="546" y="367"/>
    </contour>
  </outline>
</glyph>
<glyph name="plus" format="2">
  <advance width="1013"/>
  <unicode hex="002B"/>
  <outline>
    <contour>
      <point x="905" y="338" type="line"/>
      <point x="560" y="338" type="line"/>
      <point x="560" y="-6" type="line"/>
      <point x="459" y="-6" type="line"/>
      <point x="459" y="338" type="line"/>
      <point x="114" y="338" type="line"/>
      <point x="114" y="440" type="line"/>
      <point x="459" y="440" type="line"/>
      <point x="459" y="785" type="line"/>
      <point x="560" y="785" type="line"/>
      <point x="560" y="440" type="line"/>
      <point x="905" y="440" type="line"/>
    </contour>
  </outline>
</glyph>
<glyph name="comma" format="2">
  <advance width="481"/>
  <unicode hex="002C"/>
  <outline>
    <contour>
      <point x="182" y="113" type="qcurve" smooth="yes"/>
      <point x="182" y="168"/>
      <point x="260" y="242"/>
      <point x="316" y="242" type="qcurve" smooth="yes"/>
      <point x="384" y="242"/>
      <point x="481" y="139"/>
      <point x="481" y="71" type="qcurve" smooth="yes"/>
      <point x="481" y="-73"/>
      <point x="323" y="-201" type="qcurve"/>
      <point x="220" y="-201" type="line"/>
      <point x="350" y="-89"/>
      <point x="350" y="6" type="qcurve"/>
      <point x="325" y="-3"/>
      <point x="300" y="-3" type="qcurve" smooth="yes"/>
      <point x="249" y="-3"/>
      <point x="182" y="62"/>
    </contour>
  </outline>
</glyph>
<glyph name="hyphen" format="2">
  <advance width="1013"/>
  <unicode hex="002D"/>
  <outline>
    <contour>
      <point x="905" y="338" type="line"/>
      <point x="114" y="338" type="line"/>
      <point x="114" y="440" type="line"/>
      <point x="905" y="440" type="line"/>
    </contour>
  </outline>
</glyph>
<glyph name="period" format="2">
  <advance width="411"/>
  <unicode hex="002E"/>
  <outline>
    <contour>
      <point x="408" y="115" type="qcurve" smooth="yes"/>
      <point x="408" y="66"/>
      <point x="342" y="-1"/>
      <point x="293" y="-1" type="qcurve" smooth="yes"/>
      <point x="244" y="-1"/>
      <point x="178" y="66"/>
      <point x="178" y="115" type="qcurve" smooth="yes"/>
      <point x="178" y="163"/>
      <point x="245" y="230"/>
      <point x="293" y="230" type="qcurve" smooth="yes"/>
      <point x="341" y="230"/>
      <point x="408" y="163"/>
    </contour>
  </outline>
</glyph>
<glyph name="slash" format="2">
  <advance width="656"/>
  <unicode hex="002F"/>
  <outline>
    <contour>
      <point x="529" y="1253" type="line"/>
      <point x="241" y="-107" type="line"/>
      <point x="134" y="-107" type="line"/>
      <point x="421" y="1253" type="line"/>
    </contour>
  </outline>
</glyph>
<glyph name="zero" format="2">
  <advance width="734"/>
  <unicode hex="0030"/>
  <unicode hex="06F0"/>
  <unicode hex="0660"/>
  <outline>
    <contour>
      <point x="610" y="479" type="qcurve"/>
      <point x="556" y="430"/>
      <point x="483" y="359" type="qcurve" smooth="yes"/>
      <point x="446" y="323"/>
      <point x="371" y="232" type="qcurve"/>
      <point x="313" y="302"/>
      <point x="254" y="366" type="qcurve" smooth="yes"/>
      <point x="223" y="399"/>
      <point x="123" y="476" type="qcurve"/>
      <point x="185" y="528"/>
      <point x="248" y="590" type="qcurve" smooth="yes"/>
      <point x="283" y="624"/>
      <point x="363" y="726" type="qcurve"/>
      <point x="422" y="656"/>
      <point x="470" y="604" type="qcurve" smooth="yes"/>
      <point x="507" y="564"/>
    </contour>
  </outline>
</glyph>
<glyph name="one" format="2">
  <advance width="705"/>
  <unicode hex="0031"/>
  <unicode hex="06F1"/>
  <unicode hex="0661"/>
  <outline>
    <contour>
      <point x="556" y="364" type="qcurve" smooth="yes"/>
      <point x="556" y="195"/>
      <point x="526" y="62" type="qcurve" smooth="yes"/>
      <point x="493" y="-85"/>
      <point x="442" y="-85" type="qcurve" smooth="yes"/>
      <point x="410" y="-85"/>
      <point x="402" y="-19" type="qcurve" smooth="yes"/>
      <point x="399" y="6"/>
      <point x="399" y="99" type="qcurve" smooth="yes"/>
      <point x="399" y="613"/>
      <point x="140" y="983" type="qcurve"/>
      <point x="169" y="1031"/>
      <point x="298" y="1228" type="qcurve"/>
      <point x="357" y="1188"/>
      <point x="438" y="995" type="qcurve" smooth="yes"/>
      <point x="556" y="715"/>
    </contour>
  </outline>
</glyph>
<glyph name="two" format="2">
  <advance width="995"/>
  <unicode hex="0032"/>
  <unicode hex="06F2"/>
  <unicode hex="0662"/>
  <outline>
    <contour>
      <point x="885" y="1175" type="qcurve" smooth="yes"/>
      <point x="885" y="1006"/>
      <point x="796" y="893" type="qcurve" smooth="yes"/>
      <point x="699" y="771"/>
      <point x="534" y="771" type="qcurve" smooth="yes"/>
      <point x="516" y="771"/>
      <point x="499" y="773" type="qcurve"/>
      <point x="562" y="534"/>
      <point x="562" y="250" type="qcurve" smooth="yes"/>
      <point x="562" y="-81"/>
      <point x="465" y="-81" type="qcurve" smooth="yes"/>
      <point x="430" y="-81"/>
      <point x="420" y="20" type="qcurve"/>
      <point x="418" y="83"/>
      <point x="415" y="147" type="qcurve" smooth="yes"/>
      <point x="404" y="288"/>
      <point x="359" y="458" type="qcurve" smooth="yes"/>
      <point x="295" y="700"/>
      <point x="108" y="991" type="qcurve"/>
      <point x="253" y="1238" type="line"/>
      <point x="280" y="1206"/>
      <point x="351" y="1124" type="qcurve" smooth="yes"/>
      <point x="428" y="1040"/>
      <point x="556" y="1040" type="qcurve" smooth="yes"/>
      <point x="657" y="1040"/>
      <point x="718" y="1091" type="qcurve" smooth="yes"/>
      <point x="753" y="1120"/>
      <point x="787" y="1184" type="qcurve" smooth="yes"/>
      <point x="814" y="1235"/>
      <point x="835" y="1235" type="qcurve" smooth="yes"/>
      <point x="885" y="1235"/>
    </contour>
  </outline>
</glyph>
<glyph name="three" format="2">
  <advance width="1152"/>
  <unicode hex="0033"/>
  <unicode hex="06F3"/>
  <unicode hex="0663"/>
  <outline>
    <contour>
      <point x="1039" y="1145" type="qcurve" smooth="yes"/>
      <point x="1039" y="1030"/>
      <point x="991" y="922" type="qcurve" smooth="yes"/>
      <point x="930" y="784"/>
      <point x="825" y="784" type="qcurve" smooth="yes"/>
      <point x="769" y="784"/>
      <point x="714" y="809"/>
      <point x="679" y="852" type="qcurve"/>
      <point x="613" y="753"/>
      <point x="496" y="748" type="qcurve"/>
      <point x="563" y="549"/>
      <point x="563" y="263" type="qcurve" smooth="yes"/>
      <point x="563" y="134"/>
      <point x="543" y="40" type="qcurve" smooth="yes"/>
      <point x="517" y="-82"/>
      <point x="469" y="-82" type="qcurve" smooth="yes"/>
      <point x="430" y="-82"/>
      <point x="420" y="15" type="qcurve" smooth="yes"/>
      <point x="417" y="79"/>
      <point x="415" y="143" type="qcurve" smooth="yes"/>
      <point x="404" y="286"/>
      <point x="353" y="473" type="qcurve" smooth="yes"/>
      <point x="271" y="775"/>
      <point x="101" y="982" type="qcurve"/>
      <point x="248" y="1241" type="line"/>
      <point x="273" y="1221"/>
      <point x="311" y="1156" type="qcurve" smooth="yes"/>
      <point x="352" y="1087"/>
      <point x="375" y="1065" type="qcurve" smooth="yes"/>
      <point x="421" y="1020"/>
      <point x="479" y="1020" type="qcurve" smooth="yes"/>
      <point x="556" y="1020"/>
      <point x="589" y="1075" type="qcurve" smooth="yes"/>
      <point x="603" y="1098"/>
      <point x="620" y="1176" type="qcurve" smooth="yes"/>
      <point x="632" y="1231"/>
      <point x="662" y="1231" type="qcurve" smooth="yes"/>
      <point x="702" y="1231"/>
      <point x="712" y="1181" type="qcurve" smooth="yes"/>
      <point x="729" y="1094"/>
      <point x="731" y="1090" type="qcurve" smooth="yes"/>
      <point x="755" y="1040"/>
      <point x="828" y="1040" type="qcurve" smooth="yes"/>
      <point x="885" y="1040"/>
      <point x="915" y="1091" type="qcurve" smooth="yes"/>
      <point x="926" y="1109"/>
      <point x="949" y="1184" type="qcurve" smooth="yes"/>
      <point x="965" y="1235"/>
      <point x="988" y="1235" type="qcurve" smooth="yes"/>
      <point x="1039" y="1235"/>
    </contour>
  </outline>
</glyph>
<glyph name="four" format="2">
  <advance width="1033"/>
  <unicode hex="0034"/>
  <unicode hex="06F4"/>
  <unicode hex="0664"/>
  <outline>
    <contour>
      <point x="923" y="903" type="qcurve" smooth="yes"/>
      <point x="923" y="808"/>
      <point x="826" y="710" type="qcurve" smooth="yes"/>
      <point x="715" y="597"/>
      <point x="561" y="597" type="qcurve" smooth="yes"/>
      <point x="527" y="597"/>
      <point x="492" y="603" type="qcurve"/>
      <point x="530" y="389"/>
      <point x="530" y="336" type="qcurve" smooth="yes"/>
      <point x="530" y="206"/>
      <point x="517" y="96" type="qcurve" smooth="yes"/>
      <point x="494" y="-100"/>
      <point x="437" y="-100" type="qcurve" smooth="yes"/>
      <point x="388" y="-100"/>
      <point x="380" y="35" type="qcurve" smooth="yes"/>
      <point x="364" y="285"/>
      <point x="344" y="388" type="qcurve" smooth="yes"/>
      <point x="282" y="703"/>
      <point x="107" y="930" type="qcurve"/>
      <point x="153" y="1017"/>
      <point x="255" y="1191" type="qcurve"/>
      <point x="309" y="1147"/>
      <point x="392" y="1013" type="qcurve"/>
      <point x="496" y="1213"/>
      <point x="674" y="1213" type="qcurve" smooth="yes"/>
      <point x="749" y="1213"/>
      <point x="813" y="1153" type="qcurve" smooth="yes"/>
      <point x="866" y="1103"/>
      <point x="866" y="1076" type="qcurve" smooth="yes"/>
      <point x="866" y="1035"/>
      <point x="840" y="1035" type="qcurve" smooth="yes"/>
      <point x="817" y="1035"/>
      <point x="703" y="1069"/>
      <point x="672" y="1069" type="qcurve" smooth="yes"/>
      <point x="589" y="1069"/>
      <point x="543" y="1016" type="qcurve" smooth="yes"/>
      <point x="507" y="974"/>
      <point x="507" y="923" type="qcurve" smooth="yes"/>
      <point x="507" y="911"/>
      <point x="511" y="900" type="qcurve" smooth="yes"/>
      <point x="545" y="807"/>
      <point x="681" y="807" type="qcurve" smooth="yes"/>
      <point x="773" y="807"/>
      <point x="845" y="867" type="qcurve" smooth="yes"/>
      <point x="908" y="920"/>
      <point x="913" y="920" type="qcurve" smooth="yes"/>
      <point x="923" y="920"/>
    </contour>
  </outline>
</glyph>
<glyph name="five" format="2">
  <advance width="1101"/>
  <unicode hex="0035"/>
  <unicode hex="06F5"/>
  <unicode hex="0665"/>
  <outline>
    <contour>
      <point x="991" y="286" type="qcurve" smooth="yes"/>
      <point x="991" y="143"/>
      <point x="932" y="48" type="qcurve" smooth="yes"/>
      <point x="862" y="-65"/>
      <point x="727" y="-65" type="qcurve" smooth="yes"/>
      <point x="618" y="-65"/>
      <point x="562" y="41" type="qcurve"/>
      <point x="483" y="-81"/>
      <point x="357" y="-81" type="qcurve" smooth="yes"/>
      <point x="243" y="-81"/>
      <point x="179" y="0" type="qcurve" smooth="yes"/>
      <point x="121" y="74"/>
      <point x="121" y="191" type="qcurve" smooth="yes"/>
      <point x="121" y="319"/>
      <point x="235" y="582" type="qcurve" smooth="yes"/>
      <point x="323" y="785"/>
      <point x="410" y="929" type="qcurve"/>
      <point x="371" y="974" type="line"/>
      <point x="475" y="1215" type="line" smooth="yes"/>
      <point x="484" y="1237"/>
      <point x="493" y="1237" type="qcurve" smooth="yes"/>
      <point x="500" y="1237"/>
      <point x="514" y="1219" type="qcurve" smooth="yes"/>
      <point x="751" y="919"/>
      <point x="857" y="726" type="qcurve" smooth="yes"/>
      <point x="991" y="481"/>
    </contour>
    <contour>
      <point x="859" y="277" type="qcurve" smooth="yes"/>
      <point x="859" y="362"/>
      <point x="712" y="573" type="qcurve" smooth="yes"/>
      <point x="588" y="751"/>
      <point x="486" y="854" type="qcurve"/>
      <point x="427" y="747"/>
      <point x="358" y="567" type="qcurve" smooth="yes"/>
      <point x="282" y="369"/>
      <point x="282" y="302" type="qcurve" smooth="yes"/>
      <point x="282" y="183"/>
      <point x="392" y="183" type="qcurve" smooth="yes"/>
      <point x="464" y="183"/>
      <point x="493" y="228" type="qcurve" smooth="yes"/>
      <point x="504" y="244"/>
      <point x="522" y="312" type="qcurve" smooth="yes"/>
      <point x="534" y="357"/>
      <point x="566" y="357" type="qcurve" smooth="yes"/>
      <point x="606" y="357"/>
      <point x="618" y="314" type="qcurve" smooth="yes"/>
      <point x="638" y="242"/>
      <point x="643" y="234" type="qcurve" smooth="yes"/>
      <point x="671" y="191"/>
      <point x="750" y="191" type="qcurve" smooth="yes"/>
      <point x="859" y="191"/>
    </contour>
  </outline>
</glyph>
<glyph name="six" format="2">
  <advance width="1008"/>
  <unicode hex="0036"/>
  <unicode hex="06F6"/>
  <unicode hex="0666"/>
  <outline>
    <contour>
      <point x="894" y="846" type="qcurve" smooth="yes"/>
      <point x="888" y="805"/>
      <point x="861" y="703" type="qcurve" smooth="yes"/>
      <point x="831" y="586"/>
      <point x="818" y="576" type="qcurve"/>
      <point x="795" y="568"/>
      <point x="735" y="546" type="qcurve" smooth="yes"/>
      <point x="564" y="480"/>
      <point x="355" y="213" type="qcurve" smooth="yes"/>
      <point x="273" y="109"/>
      <point x="199" y="-11" type="qcurve" smooth="yes"/>
      <point x="162" y="-71"/>
      <point x="136" y="-71" type="qcurve" smooth="yes"/>
      <point x="112" y="-71"/>
      <point x="112" y="-19" type="qcurve" smooth="yes"/>
      <point x="112" y="-13"/>
      <point x="114" y="7" type="qcurve" smooth="yes"/>
      <point x="127" y="136"/>
      <point x="219" y="316" type="qcurve" smooth="yes"/>
      <point x="261" y="398"/>
      <point x="379" y="544" type="qcurve"/>
      <point x="157" y="598"/>
      <point x="157" y="801" type="qcurve" smooth="yes"/>
      <point x="157" y="902"/>
      <point x="273" y="1038" type="qcurve" smooth="yes"/>
      <point x="436" y="1228"/>
      <point x="556" y="1228" type="qcurve" smooth="yes"/>
      <point x="627" y="1228"/>
      <point x="698" y="1170" type="qcurve" smooth="yes"/>
      <point x="772" y="1109"/>
      <point x="772" y="1040" type="qcurve" smooth="yes"/>
      <point x="772" y="1002"/>
      <point x="752" y="1002" type="qcurve" smooth="yes"/>
      <point x="729" y="1002"/>
      <point x="579" y="1050"/>
      <point x="539" y="1050" type="qcurve" smooth="yes"/>
      <point x="439" y="1050"/>
      <point x="372" y="990" type="qcurve" smooth="yes"/>
      <point x="316" y="940"/>
      <point x="316" y="889" type="qcurve" smooth="yes"/>
      <point x="316" y="819"/>
      <point x="399" y="774" type="qcurve" smooth="yes"/>
      <point x="469" y="736"/>
      <point x="544" y="736" type="qcurve" smooth="yes"/>
      <point x="592" y="736"/>
      <point x="866" y="892"/>
      <point x="883" y="892" type="qcurve" smooth="yes"/>
      <point x="901" y="892"/>
    </contour>
  </outline>
</glyph>
<glyph name="seven" format="2">
  <advance width="1128"/>
  <unicode hex="0037"/>
  <unicode hex="06F7"/>
  <unicode hex="0667"/>
  <outline>
    <contour>
      <point x="1019" y="941" type="line"/>
      <point x="834" y="710"/>
      <point x="738" y="448" type="qcurve" smooth="yes"/>
      <point x="702" y="350"/>
      <point x="647" y="102" type="qcurve" smooth="yes"/>
      <point x="610" y="-66"/>
      <point x="576" y="-66" type="qcurve" smooth="yes"/>
      <point x="535" y="-66"/>
      <point x="506" y="58" type="qcurve" smooth="yes"/>
      <point x="450" y="294"/>
      <point x="400" y="433" type="qcurve" smooth="yes"/>
      <point x="293" y="727"/>
      <point x="110" y="931" type="qcurve"/>
      <point x="202" y="1212" type="line" smooth="yes"/>
      <point x="211" y="1240"/>
      <point x="218" y="1240" type="qcurve" smooth="yes"/>
      <point x="224" y="1240"/>
      <point x="241" y="1221" type="qcurve" smooth="yes"/>
      <point x="350" y="1099"/>
      <point x="448" y="849" type="qcurve" smooth="yes"/>
      <point x="531" y="637"/>
      <point x="572" y="434" type="qcurve"/>
      <point x="605" y="629"/>
      <point x="677" y="830" type="qcurve" smooth="yes"/>
      <point x="769" y="1087"/>
      <point x="884" y="1223" type="qcurve" smooth="yes"/>
      <point x="898" y="1240"/>
      <point x="905" y="1240" type="qcurve" smooth="yes"/>
      <point x="911" y="1240"/>
      <point x="921" y="1212" type="qcurve" smooth="yes"/>
    </contour>
  </outline>
</glyph>
<glyph name="eight" format="2">
  <advance width="1163"/>
  <unicode hex="0038"/>
  <unicode hex="06F8"/>
  <unicode hex="0668"/>
  <outline>
    <contour>
      <point x="144" y="231" type="line"/>
      <point x="329" y="461"/>
      <point x="425" y="723" type="qcurve" smooth="yes"/>
      <point x="461" y="822"/>
      <point x="516" y="1070" type="qcurve" smooth="yes"/>
      <point x="553" y="1238"/>
      <point x="587" y="1238" type="qcurve" smooth="yes"/>
      <point x="628" y="1238"/>
      <point x="657" y="1113" type="qcurve" smooth="yes"/>
      <point x="711" y="881"/>
      <point x="763" y="739" type="qcurve" smooth="yes"/>
      <point x="872" y="442"/>
      <point x="1053" y="240" type="qcurve"/>
      <point x="961" y="-41" type="line" smooth="yes"/>
      <point x="952" y="-69"/>
      <point x="945" y="-69" type="qcurve" smooth="yes"/>
      <point x="939" y="-69"/>
      <point x="921" y="-49" type="qcurve" smooth="yes"/>
      <point x="812" y="73"/>
      <point x="714" y="323" type="qcurve" smooth="yes"/>
      <point x="632" y="534"/>
      <point x="591" y="737" type="qcurve"/>
      <point x="558" y="543"/>
      <point x="485" y="342" type="qcurve" smooth="yes"/>
      <point x="393" y="87"/>
      <point x="278" y="-51" type="qcurve" smooth="yes"/>
      <point x="264" y="-68"/>
      <point x="258" y="-68" type="qcurve" smooth="yes"/>
      <point x="251" y="-68"/>
      <point x="241" y="-41" type="qcurve" smooth="yes"/>
    </contour>
  </outline>
</glyph>
<glyph name="nine" format="2">
  <advance width="995"/>
  <unicode hex="0039"/>
  <unicode hex="06F9"/>
  <unicode hex="0669"/>
  <outline>
    <contour>
      <point x="882" y="196" type="qcurve"/>
      <point x="800" y="-85" type="line"/>
      <point x="631" y="40"/>
      <point x="581" y="259" type="qcurve" smooth="yes"/>
      <point x="559" y="356"/>
      <point x="560" y="550" type="qcurve"/>
      <point x="477" y="542"/>
      <point x="426" y="542" type="qcurve" smooth="yes"/>
      <point x="117" y="542"/>
      <point x="117" y="748" type="qcurve" smooth="yes"/>
      <point x="117" y="852"/>
      <point x="183" y="1012" type="qcurve" smooth="yes"/>
      <point x="274" y="1233"/>
      <point x="421" y="1233" type="qcurve" smooth="yes"/>
      <point x="714" y="1233"/>
      <point x="714" y="758" type="qcurve" smooth="yes"/>
      <point x="714" y="485"/>
      <point x="771" y="349" type="qcurve" smooth="yes"/>
      <point x="800" y="280"/>
    </contour>
    <contour>
      <point x="532" y="816" type="qcurve"/>
      <point x="531" y="879"/>
      <point x="437" y="969"/>
      <point x="374" y="969" type="qcurve" smooth="yes"/>
      <point x="321" y="969"/>
      <point x="290" y="935" type="qcurve" smooth="yes"/>
      <point x="267" y="909"/>
      <point x="267" y="881" type="qcurve" smooth="yes"/>
      <point x="267" y="805"/>
      <point x="387" y="805" type="qcurve" smooth="yes"/>
      <point x="506" y="805"/>
    </contour>
  </outline>
</glyph>
<glyph name="colon" format="2">
  <advance width="410"/>
  <unicode hex="003A"/>
  <outline>
    <contour>
      <point x="408" y="115" type="qcurve" smooth="yes"/>
      <point x="408" y="66"/>
      <point x="342" y="-1"/>
      <point x="293" y="-1" type="qcurve" smooth="yes"/>
      <point x="244" y="-1"/>
      <point x="178" y="66"/>
      <point x="178" y="115" type="qcurve" smooth="yes"/>
      <point x="178" y="163"/>
      <point x="245" y="230"/>
      <point x="293" y="230" type="qcurve" smooth="yes"/>
      <point x="341" y="230"/>
      <point x="408" y="163"/>
    </contour>
    <contour>
      <point x="408" y="652" type="qcurve" smooth="yes"/>
      <point x="408" y="604"/>
      <point x="341" y="536"/>
      <point x="293" y="536" type="qcurve" smooth="yes"/>
      <point x="244" y="536"/>
      <point x="178" y="603"/>
      <point x="178" y="652" type="qcurve" smooth="yes"/>
      <point x="178" y="700"/>
      <point x="245" y="767"/>
      <point x="293" y="767" type="qcurve" smooth="yes"/>
      <point x="341" y="767"/>
      <point x="408" y="700"/>
    </contour>
  </outline>
</glyph>
<glyph name="equal" format="2">
  <advance width="969"/>
  <unicode hex="003D"/>
  <outline>
    <contour>
      <point x="840" y="224" type="line"/>
      <point x="118" y="224" type="line"/>
      <point x="118" y="326" type="line"/>
      <point x="840" y="326" type="line"/>
    </contour>
    <contour>
      <point x="840" y="462" type="line"/>
      <point x="118" y="462" type="line"/>
      <point x="118" y="564" type="line"/>
      <point x="840" y="564" type="line"/>
    </contour>
  </outline>
</glyph>
<glyph name="bracketleft" format="2">
  <advance width="640"/>
  <unicode hex="005B"/>
  <outline>
    <contour>
      <point x="539" y="-101" type="line"/>
      <point x="214" y="-101" type="line"/>
      <point x="214" y="1544" type="line"/>
      <point x="539" y="1544" type="line"/>
      <point x="539" y="1482" type="line"/>
      <point x="357" y="1482" type="line"/>
      <point x="357" y="-39" type="line"/>
      <point x="539" y="-39" type="line"/>
    </contour>
  </outline>
</glyph>
<glyph name="bracketright" format="2">
  <advance width="640"/>
  <unicode hex="005D"/>
  <outline>
    <contour>
      <point x="419" y="-101" type="line"/>
      <point x="135" y="-101" type="line"/>
      <point x="135" y="-39" type="line"/>
      <point x="276" y="-39" type="line"/>
      <point x="276" y="1481" type="line"/>
      <point x="135" y="1481" type="line"/>
      <point x="135" y="1542" type="line"/>
      <point x="419" y="1542" type="line"/>
    </contour>
  </outline>
</glyph>
<glyph name="braceleft" format="2">
  <advance width="981"/>
  <unicode hex="007B"/>
  <outline>
    <contour>
      <point x="832" y="-320" type="line"/>
      <point x="680" y="-293"/>
      <point x="583" y="-191" type="qcurve" smooth="yes"/>
      <point x="480" y="-84"/>
      <point x="480" y="66" type="qcurve" smooth="yes"/>
      <point x="480" y="127"/>
      <point x="506" y="243" type="qcurve" smooth="yes"/>
      <point x="525" y="328"/>
      <point x="525" y="355" type="qcurve" smooth="yes"/>
      <point x="525" y="452"/>
      <point x="453" y="518" type="qcurve" smooth="yes"/>
      <point x="386" y="580"/>
      <point x="287" y="591" type="qcurve"/>
      <point x="287" y="629" type="line"/>
      <point x="526" y="681"/>
      <point x="526" y="848" type="qcurve" smooth="yes"/>
      <point x="526" y="895"/>
      <point x="510" y="970" type="qcurve" smooth="yes"/>
      <point x="483" y="1096"/>
      <point x="483" y="1158" type="qcurve" smooth="yes"/>
      <point x="483" y="1309"/>
      <point x="584" y="1415" type="qcurve" smooth="yes"/>
      <point x="680" y="1517"/>
      <point x="832" y="1542" type="qcurve"/>
      <point x="832" y="1502" type="line"/>
      <point x="738" y="1488"/>
      <point x="677" y="1429" type="qcurve" smooth="yes"/>
      <point x="610" y="1365"/>
      <point x="610" y="1274" type="qcurve" smooth="yes"/>
      <point x="610" y="1228"/>
      <point x="623" y="1159" type="qcurve" smooth="yes"/>
      <point x="653" y="999"/>
      <point x="653" y="949" type="qcurve" smooth="yes"/>
      <point x="653" y="725"/>
      <point x="367" y="613" type="qcurve"/>
      <point x="650" y="497"/>
      <point x="650" y="263" type="qcurve" smooth="yes"/>
      <point x="650" y="214"/>
      <point x="623" y="84" type="qcurve" smooth="yes"/>
      <point x="606" y="2"/>
      <point x="606" y="-51" type="qcurve" smooth="yes"/>
      <point x="606" y="-231"/>
      <point x="832" y="-284" type="qcurve"/>
    </contour>
  </outline>
</glyph>
<glyph name="braceright" format="2">
  <advance width="981"/>
  <unicode hex="007D"/>
  <outline>
    <contour>
      <point x="695" y="593" type="line"/>
      <point x="456" y="541"/>
      <point x="456" y="373" type="qcurve" smooth="yes"/>
      <point x="456" y="321"/>
      <point x="471" y="251" type="qcurve" smooth="yes"/>
      <point x="499" y="120"/>
      <point x="499" y="64" type="qcurve" smooth="yes"/>
      <point x="499" y="-87"/>
      <point x="398" y="-193" type="qcurve" smooth="yes"/>
      <point x="302" y="-295"/>
      <point x="150" y="-320" type="qcurve"/>
      <point x="150" y="-280" type="line"/>
      <point x="244" y="-266"/>
      <point x="305" y="-207" type="qcurve" smooth="yes"/>
      <point x="371" y="-144"/>
      <point x="371" y="-52" type="qcurve" smooth="yes"/>
      <point x="371" y="-4"/>
      <point x="359" y="62" type="qcurve" smooth="yes"/>
      <point x="329" y="226"/>
      <point x="329" y="273" type="qcurve" smooth="yes"/>
      <point x="329" y="496"/>
      <point x="614" y="609" type="qcurve"/>
      <point x="332" y="725"/>
      <point x="332" y="958" type="qcurve" smooth="yes"/>
      <point x="332" y="1013"/>
      <point x="358" y="1138" type="qcurve" smooth="yes"/>
      <point x="376" y="1225"/>
      <point x="376" y="1273" type="qcurve" smooth="yes"/>
      <point x="376" y="1453"/>
      <point x="150" y="1506" type="qcurve"/>
      <point x="150" y="1542" type="line"/>
      <point x="302" y="1514"/>
      <point x="399" y="1413" type="qcurve" smooth="yes"/>
      <point x="502" y="1307"/>
      <point x="502" y="1156" type="qcurve" smooth="yes"/>
      <point x="502" y="1099"/>
      <point x="475" y="979" type="qcurve" smooth="yes"/>
      <point x="457" y="899"/>
      <point x="457" y="866" type="qcurve" smooth="yes"/>
      <point x="457" y="769"/>
      <point x="530" y="704" type="qcurve" smooth="yes"/>
      <point x="594" y="646"/>
      <point x="695" y="630" type="qcurve"/>
    </contour>
  </outline>
</glyph>
<glyph name="guillemotleft" format="2">
  <advance width="854"/>
  <unicode hex="00AB"/>
  <outline>
    <contour>
      <point x="804" y="129" type="line"/>
      <point x="711" y="129" type="line"/>
      <point x="371" y="529" type="line"/>
      <point x="711" y="922" type="line"/>
      <point x="798" y="922" type="line"/>
      <point x="572" y="529" type="line"/>
    </contour>
    <contour>
      <point x="497" y="129" type="line"/>
      <point x="408" y="129" type="line"/>
      <point x="70" y="529" type="line"/>
      <point x="410" y="922" type="line"/>
      <point x="497" y="922" type="line"/>
      <point x="271" y="529" type="line"/>
    </contour>
  </outline>
</glyph>
<glyph name="periodcentered" format="2">
  <advance width="405"/>
  <unicode hex="00B7"/>
  <unicode hex="2219"/>
  <unicode hex="02D9"/>
  <outline>
    <contour>
      <point x="326" y="768" type="qcurve" smooth="yes"/>
      <point x="326" y="718"/>
      <point x="255" y="648"/>
      <point x="205" y="648" type="qcurve" smooth="yes"/>
      <point x="156" y="648"/>
      <point x="85" y="719"/>
      <point x="85" y="768" type="qcurve" smooth="yes"/>
      <point x="85" y="817"/>
      <point x="154" y="889"/>
      <point x="203" y="889" type="qcurve" smooth="yes"/>
      <point x="254" y="889"/>
      <point x="326" y="819"/>
    </contour>
  </outline>
</glyph>
<glyph name="guillemotright" format="2">
  <advance width="854"/>
  <unicode hex="00BB"/>
  <outline>
    <contour>
      <point x="784" y="529" type="line"/>
      <point x="446" y="129" type="line"/>
      <point x="357" y="129" type="line"/>
      <point x="583" y="529" type="line"/>
      <point x="357" y="922" type="line"/>
      <point x="444" y="922" type="line"/>
    </contour>
    <contour>
      <point x="483" y="529" type="line"/>
      <point x="143" y="129" type="line"/>
      <point x="50" y="129" type="line"/>
      <point x="282" y="529" type="line"/>
      <point x="56" y="922" type="line"/>
      <point x="143" y="922" type="line"/>
    </contour>
  </outline>
</glyph>
<glyph name="multiply" format="2">
  <advance width="973"/>
  <unicode hex="00D7"/>
  <outline>
    <contour>
      <point x="865" y="61" type="line"/>
      <point x="789" y="-13" type="line"/>
      <point x="483" y="293" type="line"/>
      <point x="175" y="-14" type="line"/>
      <point x="103" y="61" type="line"/>
      <point x="409" y="367" type="line"/>
      <point x="105" y="674" type="line"/>
      <point x="175" y="747" type="line"/>
      <point x="482" y="440" type="line"/>
      <point x="787" y="747" type="line"/>
      <point x="862" y="674" type="line"/>
      <point x="558" y="368" type="line"/>
    </contour>
  </outline>
</glyph>
<glyph name="divide" format="2">
  <advance width="946"/>
  <unicode hex="00F7"/>
  <outline>
    <contour>
      <point x="549" y="772" type="qcurve" smooth="yes"/>
      <point x="549" y="736"/>
      <point x="502" y="685"/>
      <point x="466" y="685" type="qcurve" smooth="yes"/>
      <point x="431" y="685"/>
      <point x="380" y="737"/>
      <point x="380" y="772" type="qcurve" smooth="yes"/>
      <point x="380" y="808"/>
      <point x="430" y="855"/>
      <point x="466" y="855" type="qcurve" smooth="yes"/>
      <point x="501" y="855"/>
      <point x="549" y="807"/>
    </contour>
    <contour>
      <point x="835" y="452" type="line"/>
      <point x="105" y="452" type="line"/>
      <point x="105" y="535" type="line"/>
      <point x="835" y="535" type="line"/>
    </contour>
    <contour>
      <point x="549" y="215" type="qcurve" smooth="yes"/>
      <point x="549" y="179"/>
      <point x="502" y="129"/>
      <point x="466" y="129" type="qcurve" smooth="yes"/>
      <point x="431" y="129"/>
      <point x="380" y="180"/>
      <point x="380" y="215" type="qcurve" smooth="yes"/>
      <point x="380" y="251"/>
      <point x="430" y="300"/>
      <point x="466" y="300" type="qcurve" smooth="yes"/>
      <point x="549" y="300"/>
    </contour>
  </outline>
</glyph>
<glyph name="u060C" format="2">
  <advance width="481"/>
  <unicode hex="060C"/>
  <outline>
    <contour>
      <point x="479" y="127" type="qcurve" smooth="yes"/>
      <point x="479" y="72"/>
      <point x="401" y="-2"/>
      <point x="345" y="-2" type="qcurve" smooth="yes"/>
      <point x="277" y="-2"/>
      <point x="180" y="101"/>
      <point x="180" y="169" type="qcurve" smooth="yes"/>
      <point x="180" y="313"/>
      <point x="338" y="441" type="qcurve"/>
      <point x="441" y="441" type="line"/>
      <point x="311" y="329"/>
      <point x="311" y="234" type="qcurve"/>
      <point x="336" y="243"/>
      <point x="361" y="243" type="qcurve" smooth="yes"/>
      <point x="412" y="243"/>
      <point x="479" y="178"/>
    </contour>
  </outline>
</glyph>
<glyph name="u061B" format="2">
  <advance width="484"/>
  <unicode hex="061B"/>
  <outline>
    <contour>
      <point x="452" y="115" type="qcurve" smooth="yes"/>
      <point x="452" y="66"/>
      <point x="386" y="-1"/>
      <point x="337" y="-1" type="qcurve" smooth="yes"/>
      <point x="288" y="-1"/>
      <point x="222" y="66"/>
      <point x="222" y="115" type="qcurve" smooth="yes"/>
      <point x="222" y="163"/>
      <point x="289" y="230"/>
      <point x="337" y="230" type="qcurve" smooth="yes"/>
      <point x="385" y="230"/>
      <point x="452" y="163"/>
    </contour>
    <contour>
      <point x="479" y="567" type="qcurve" smooth="yes"/>
      <point x="479" y="511"/>
      <point x="402" y="439"/>
      <point x="345" y="439" type="qcurve" smooth="yes"/>
      <point x="277" y="439"/>
      <point x="180" y="541"/>
      <point x="180" y="610" type="qcurve" smooth="yes"/>
      <point x="180" y="754"/>
      <point x="338" y="882" type="qcurve"/>
      <point x="441" y="882" type="line"/>
      <point x="311" y="770"/>
      <point x="311" y="675" type="qcurve"/>
      <point x="336" y="683"/>
      <point x="361" y="683" type="qcurve" smooth="yes"/>
      <point x="413" y="683"/>
      <point x="479" y="619"/>
    </contour>
  </outline>
</glyph>
<glyph name="u061F" format="2">
  <advance width="764"/>
  <unicode hex="061F"/>
  <outline>
    <contour>
      <point x="760" y="960" type="qcurve" smooth="yes"/>
      <point x="760" y="896"/>
      <point x="725" y="842" type="qcurve" smooth="yes"/>
      <point x="686" y="781"/>
      <point x="625" y="781" type="qcurve" smooth="yes"/>
      <point x="587" y="781"/>
      <point x="529" y="832"/>
      <point x="529" y="870" type="qcurve" smooth="yes"/>
      <point x="529" y="985"/>
      <point x="631" y="985" type="qcurve" smooth="yes"/>
      <point x="663" y="985"/>
      <point x="699" y="967" type="qcurve"/>
      <point x="708" y="1016"/>
      <point x="662" y="1068" type="qcurve" smooth="yes"/>
      <point x="607" y="1130"/>
      <point x="514" y="1130" type="qcurve" smooth="yes"/>
      <point x="439" y="1130"/>
      <point x="347" y="1029"/>
      <point x="347" y="953" type="qcurve" smooth="yes"/>
      <point x="347" y="874"/>
      <point x="545" y="529"/>
      <point x="545" y="434" type="qcurve" smooth="yes"/>
      <point x="545" y="408"/>
      <point x="542" y="384" type="qcurve" smooth="yes"/>
      <point x="527" y="263" type="line"/>
      <point x="477" y="266" type="line"/>
      <point x="484" y="368" type="line" smooth="yes"/>
      <point x="489" y="439"/>
      <point x="414" y="512" type="qcurve" smooth="yes"/>
      <point x="269" y="653" type="line"/>
      <point x="190" y="753"/>
      <point x="190" y="884" type="qcurve" smooth="yes"/>
      <point x="190" y="1010"/>
      <point x="368" y="1200"/>
      <point x="493" y="1200" type="qcurve" smooth="yes"/>
      <point x="598" y="1200"/>
      <point x="677" y="1134" type="qcurve" smooth="yes"/>
      <point x="760" y="1064"/>
    </contour>
    <contour>
      <point x="582" y="90" type="qcurve" smooth="yes"/>
      <point x="582" y="53"/>
      <point x="529" y="1"/>
      <point x="492" y="1" type="qcurve" smooth="yes"/>
      <point x="455" y="1"/>
      <point x="403" y="53"/>
      <point x="403" y="90" type="qcurve" smooth="yes"/>
      <point x="403" y="127"/>
      <point x="455" y="179"/>
      <point x="492" y="179" type="qcurve" smooth="yes"/>
      <point x="529" y="179"/>
      <point x="582" y="127"/>
    </contour>
  </outline>
</glyph>
<glyph name="u0621" format="2">
  <advance width="694"/>
  <unicode hex="0621"/>
  <outline>
    <contour>
      <point x="694" y="312" type="qcurve"/>
      <point x="657" y="164" type="line"/>
      <point x="575" y="149"/>
      <point x="422" y="94" type="qcurve" smooth="yes"/>
      <point x="256" y="34"/>
      <point x="174" y="-15" type="qcurve"/>
      <point x="174" y="78" type="line"/>
      <point x="219" y="125"/>
      <point x="308" y="180" type="qcurve"/>
      <point x="184" y="235"/>
      <point x="184" y="314" type="qcurve" smooth="yes"/>
      <point x="184" y="401"/>
      <point x="388" y="597"/>
      <point x="475" y="597" type="qcurve" smooth="yes"/>
      <point x="526" y="597"/>
      <point x="570" y="575" type="qcurve" smooth="yes"/>
      <point x="623" y="548"/>
      <point x="623" y="502" type="qcurve" smooth="yes"/>
      <point x="623" y="439"/>
      <point x="575" y="439" type="qcurve" smooth="yes"/>
      <point x="552" y="439"/>
      <point x="462" y="465"/>
      <point x="438" y="465" type="qcurve" smooth="yes"/>
      <point x="406" y="465"/>
      <point x="324" y="406"/>
      <point x="324" y="375" type="qcurve" smooth="yes"/>
      <point x="324" y="348"/>
      <point x="370" y="310" type="qcurve" smooth="yes"/>
      <point x="425" y="264"/>
      <point x="493" y="264" type="qcurve" smooth="yes"/>
      <point x="541" y="264"/>
    </contour>
  </outline>
</glyph>
<glyph name="u0622" format="2">
  <advance width="685"/>
  <unicode hex="0622"/>
  <unicode hex="FE81"/>
  <outline>
    <contour>
      <point x="492" y="223" type="line" smooth="yes"/>
      <point x="492" y="150"/>
      <point x="417" y="-10" type="qcurve" smooth="yes"/>
      <point x="398" y="-51"/>
      <point x="389" y="-51" type="qcurve" smooth="yes"/>
      <point x="376" y="-51"/>
      <point x="368" y="41" type="qcurve" smooth="yes"/>
      <point x="273" y="1098" type="line"/>
      <point x="457" y="1251" type="line" smooth="yes"/>
      <point x="475" y="1266"/>
      <point x="483" y="1266" type="qcurve" smooth="yes"/>
      <point x="492" y="1266"/>
      <point x="492" y="1245" type="qcurve" smooth="yes"/>
    </contour>
    <contour>
      <point x="675" y="1510" type="qcurve" smooth="yes"/>
      <point x="675" y="1448"/>
      <point x="544" y="1395" type="qcurve" smooth="yes"/>
      <point x="432" y="1350"/>
      <point x="358" y="1350" type="qcurve" smooth="yes"/>
      <point x="330" y="1350"/>
      <point x="223" y="1379"/>
      <point x="199" y="1379" type="qcurve" smooth="yes"/>
      <point x="183" y="1379"/>
      <point x="138" y="1320"/>
      <point x="126" y="1320" type="qcurve" smooth="yes"/>
      <point x="96" y="1320"/>
      <point x="96" y="1366" type="qcurve" smooth="yes"/>
      <point x="96" y="1396"/>
      <point x="137" y="1465" type="qcurve" smooth="yes"/>
      <point x="181" y="1540"/>
      <point x="214" y="1540" type="qcurve"/>
      <point x="196" y="1540"/>
      <point x="196" y="1537" type="qcurve" smooth="yes"/>
      <point x="196" y="1532"/>
      <point x="285" y="1513" type="qcurve" smooth="yes"/>
      <point x="415" y="1486"/>
      <point x="459" y="1486" type="qcurve" smooth="yes"/>
      <point x="498" y="1486"/>
      <point x="638" y="1534"/>
      <point x="652" y="1534" type="qcurve" smooth="yes"/>
      <point x="675" y="1534"/>
    </contour>
  </outline>
</glyph>
<glyph name="u0623" format="2">
  <advance width="484"/>
  <unicode hex="0623"/>
  <unicode hex="FE83"/>
  <outline>
    <contour>
      <point x="422" y="227" type="line" smooth="yes"/>
      <point x="422" y="157"/>
      <point x="346" y="-5" type="qcurve" smooth="yes"/>
      <point x="326" y="-47"/>
      <point x="318" y="-47" type="qcurve" smooth="yes"/>
      <point x="306" y="-47"/>
      <point x="298" y="46" type="qcurve" smooth="yes"/>
      <point x="203" y="1102" type="line"/>
      <point x="387" y="1255" type="line" smooth="yes"/>
      <point x="405" y="1270"/>
      <point x="413" y="1270" type="qcurve" smooth="yes"/>
      <point x="422" y="1270"/>
      <point x="422" y="1249" type="qcurve" smooth="yes"/>
    </contour>
    <contour>
      <point x="485" y="1487" type="qcurve"/>
      <point x="490" y="1472"/>
      <point x="486" y="1436" type="qcurve" smooth="yes"/>
      <point x="482" y="1399"/>
      <point x="474" y="1389" type="qcurve"/>
      <point x="333" y="1353"/>
      <point x="122" y="1261" type="qcurve"/>
      <point x="122" y="1335" type="line"/>
      <point x="155" y="1353"/>
      <point x="216" y="1383" type="qcurve"/>
      <point x="188" y="1395"/>
      <point x="137" y="1461"/>
      <point x="137" y="1490" type="qcurve" smooth="yes"/>
      <point x="137" y="1548"/>
      <point x="274" y="1677"/>
      <point x="333" y="1677" type="qcurve" smooth="yes"/>
      <point x="362" y="1677"/>
      <point x="400" y="1654" type="qcurve" smooth="yes"/>
      <point x="442" y="1629"/>
      <point x="442" y="1602" type="qcurve" smooth="yes"/>
      <point x="442" y="1562"/>
      <point x="411" y="1562" type="qcurve" smooth="yes"/>
      <point x="399" y="1562"/>
      <point x="331" y="1588"/>
      <point x="311" y="1588" type="qcurve" smooth="yes"/>
      <point x="286" y="1588"/>
      <point x="259" y="1575" type="qcurve" smooth="yes"/>
      <point x="227" y="1560"/>
      <point x="227" y="1538" type="qcurve" smooth="yes"/>
      <point x="227" y="1503"/>
      <point x="297" y="1448"/>
      <point x="333" y="1448" type="qcurve" smooth="yes"/>
      <point x="359" y="1448"/>
      <point x="409" y="1463" type="qcurve" smooth="yes"/>
      <point x="447" y="1475"/>
    </contour>
  </outline>
</glyph>
<glyph name="u0624" format="2">
  <advance width="782"/>
  <unicode hex="0624"/>
  <unicode hex="FE85"/>
  <outline>
    <contour>
      <point x="780" y="38" type="line" smooth="yes"/>
      <point x="780" y="-223"/>
      <point x="602" y="-414" type="qcurve" smooth="yes"/>
      <point x="546" y="-474"/>
      <point x="531" y="-474" type="qcurve" smooth="yes"/>
      <point x="280" y="-474"/>
      <point x="132" y="-423" type="qcurve" smooth="yes"/>
      <point x="103" y="-413"/>
      <point x="130" y="-403" type="qcurve" smooth="yes"/>
      <point x="308" y="-339"/>
      <point x="477" y="-204" type="qcurve" smooth="yes"/>
      <point x="662" y="-57"/>
      <point x="662" y="41" type="qcurve"/>
      <point x="640" y="41"/>
      <point x="551" y="39"/>
      <point x="529" y="39" type="qcurve" smooth="yes"/>
      <point x="393" y="39"/>
      <point x="333" y="70" type="qcurve" smooth="yes"/>
      <point x="250" y="113"/>
      <point x="250" y="227" type="qcurve" smooth="yes"/>
      <point x="250" y="333"/>
      <point x="317" y="469" type="qcurve" smooth="yes"/>
      <point x="398" y="633"/>
      <point x="509" y="633" type="qcurve" smooth="yes"/>
      <point x="647" y="633"/>
      <point x="722" y="473" type="qcurve" smooth="yes"/>
      <point x="780" y="349"/>
      <point x="780" y="194" type="qcurve" smooth="yes"/>
    </contour>
    <contour>
      <point x="625" y="291" type="qcurve"/>
      <point x="598" y="358"/>
      <point x="540" y="395" type="qcurve" smooth="yes"/>
      <point x="496" y="423"/>
      <point x="462" y="423" type="qcurve" smooth="yes"/>
      <point x="431" y="423"/>
      <point x="379" y="379"/>
      <point x="379" y="349" type="qcurve" smooth="yes"/>
      <point x="379" y="279"/>
      <point x="491" y="279" type="qcurve" smooth="yes"/>
      <point x="543" y="279"/>
    </contour>
    <contour>
      <point x="658" y="1062" type="qcurve"/>
      <point x="662" y="1047"/>
      <point x="659" y="1012" type="qcurve" smooth="yes"/>
      <point x="656" y="976"/>
      <point x="647" y="965" type="qcurve"/>
      <point x="506" y="929"/>
      <point x="295" y="836" type="qcurve"/>
      <point x="294" y="910" type="line"/>
      <point x="328" y="928"/>
      <point x="388" y="958" type="qcurve"/>
      <point x="362" y="970"/>
      <point x="310" y="1038"/>
      <point x="310" y="1065" type="qcurve" smooth="yes"/>
      <point x="310" y="1123"/>
      <point x="447" y="1253"/>
      <point x="506" y="1253" type="qcurve" smooth="yes"/>
      <point x="535" y="1253"/>
      <point x="573" y="1230" type="qcurve" smooth="yes"/>
      <point x="615" y="1205"/>
      <point x="615" y="1178" type="qcurve" smooth="yes"/>
      <point x="615" y="1137"/>
      <point x="584" y="1137" type="qcurve" smooth="yes"/>
      <point x="572" y="1137"/>
      <point x="504" y="1164"/>
      <point x="484" y="1164" type="qcurve" smooth="yes"/>
      <point x="458" y="1164"/>
      <point x="432" y="1151" type="qcurve" smooth="yes"/>
      <point x="400" y="1136"/>
      <point x="400" y="1113" type="qcurve" smooth="yes"/>
      <point x="400" y="1078"/>
      <point x="470" y="1024"/>
      <point x="506" y="1024" type="qcurve" smooth="yes"/>
      <point x="535" y="1024"/>
      <point x="585" y="1040" type="qcurve" smooth="yes"/>
      <point x="651" y="1061"/>
    </contour>
  </outline>
</glyph>
<glyph name="u0625" format="2">
  <advance width="484"/>
  <unicode hex="0625"/>
  <unicode hex="FE87"/>
  <outline>
    <contour>
      <point x="422" y="227" type="line" smooth="yes"/>
      <point x="422" y="157"/>
      <point x="346" y="-5" type="qcurve" smooth="yes"/>
      <point x="326" y="-47"/>
      <point x="318" y="-47" type="qcurve" smooth="yes"/>
      <point x="306" y="-47"/>
      <point x="298" y="46" type="qcurve" smooth="yes"/>
      <point x="203" y="1102" type="line"/>
      <point x="387" y="1255" type="line" smooth="yes"/>
      <point x="405" y="1270"/>
      <point x="413" y="1270" type="qcurve" smooth="yes"/>
      <point x="422" y="1270"/>
      <point x="422" y="1249" type="qcurve" smooth="yes"/>
    </contour>
    <contour>
      <point x="533" y="-336" type="qcurve"/>
      <point x="535" y="-342"/>
      <point x="535" y="-355" type="qcurve" smooth="yes"/>
      <point x="535" y="-368"/>
      <point x="533" y="-387" type="qcurve" smooth="yes"/>
      <point x="529" y="-425"/>
      <point x="521" y="-434" type="qcurve"/>
      <point x="381" y="-470"/>
      <point x="170" y="-563" type="qcurve"/>
      <point x="169" y="-489" type="line"/>
      <point x="203" y="-471"/>
      <point x="263" y="-440" type="qcurve"/>
      <point x="237" y="-429"/>
      <point x="185" y="-361"/>
      <point x="185" y="-334" type="qcurve" smooth="yes"/>
      <point x="185" y="-276"/>
      <point x="322" y="-146"/>
      <point x="381" y="-146" type="qcurve" smooth="yes"/>
      <point x="410" y="-146"/>
      <point x="448" y="-169" type="qcurve" smooth="yes"/>
      <point x="490" y="-194"/>
      <point x="490" y="-221" type="qcurve" smooth="yes"/>
      <point x="490" y="-262"/>
      <point x="459" y="-262" type="qcurve" smooth="yes"/>
      <point x="447" y="-262"/>
      <point x="379" y="-235"/>
      <point x="359" y="-235" type="qcurve" smooth="yes"/>
      <point x="335" y="-235"/>
      <point x="307" y="-248" type="qcurve" smooth="yes"/>
      <point x="275" y="-264"/>
      <point x="275" y="-285" type="qcurve" smooth="yes"/>
      <point x="275" y="-320"/>
      <point x="345" y="-375"/>
      <point x="381" y="-375" type="qcurve" smooth="yes"/>
      <point x="403" y="-375"/>
    </contour>
  </outline>
</glyph>
<glyph name="u0626" format="2">
  <advance width="1381"/>
  <unicode hex="0626"/>
  <unicode hex="FE89"/>
  <outline>
    <contour>
      <point x="1374" y="488" type="qcurve" smooth="yes"/>
      <point x="1379" y="462"/>
      <point x="1379" y="448" type="qcurve" smooth="yes"/>
      <point x="1379" y="431"/>
      <point x="1372" y="431" type="qcurve" smooth="yes"/>
      <point x="1365" y="431"/>
      <point x="1344" y="442" type="qcurve" smooth="yes"/>
      <point x="1292" y="470"/>
      <point x="1178" y="470" type="qcurve" smooth="yes"/>
      <point x="1053" y="470"/>
      <point x="961" y="384" type="qcurve" smooth="yes"/>
      <point x="890" y="317"/>
      <point x="890" y="275" type="qcurve" smooth="yes"/>
      <point x="890" y="228"/>
      <point x="966" y="205" type="qcurve" smooth="yes"/>
      <point x="1006" y="193"/>
      <point x="1122" y="177" type="qcurve" smooth="yes"/>
      <point x="1226" y="163"/>
      <point x="1266" y="131" type="qcurve" smooth="yes"/>
      <point x="1323" y="86"/>
      <point x="1323" y="-26" type="qcurve" smooth="yes"/>
      <point x="1323" y="-305"/>
      <point x="1079" y="-423" type="qcurve" smooth="yes"/>
      <point x="916" y="-502"/>
      <point x="656" y="-502" type="qcurve" smooth="yes"/>
      <point x="179" y="-502"/>
      <point x="179" y="-109" type="qcurve" smooth="yes"/>
      <point x="179" y="-30"/>
      <point x="227" y="121" type="qcurve" smooth="yes"/>
      <point x="283" y="298"/>
      <point x="340" y="298" type="qcurve" smooth="yes"/>
      <point x="380" y="298"/>
      <point x="380" y="242" type="qcurve" smooth="yes"/>
      <point x="380" y="225"/>
      <point x="319" y="46"/>
      <point x="319" y="-1" type="qcurve" smooth="yes"/>
      <point x="319" y="-254"/>
      <point x="699" y="-254" type="qcurve" smooth="yes"/>
      <point x="863" y="-254"/>
      <point x="1009" y="-221" type="qcurve" smooth="yes"/>
      <point x="1207" y="-176"/>
      <point x="1207" y="-95" type="qcurve" smooth="yes"/>
      <point x="1207" y="-51"/>
      <point x="1091" y="-37" type="qcurve" smooth="yes"/>
      <point x="921" y="-17"/>
      <point x="875" y="1" type="qcurve" smooth="yes"/>
      <point x="758" y="46"/>
      <point x="758" y="166" type="qcurve" smooth="yes"/>
      <point x="758" y="300"/>
      <point x="876" y="481" type="qcurve" smooth="yes"/>
      <point x="1008" y="684"/>
      <point x="1157" y="684" type="qcurve" smooth="yes"/>
      <point x="1254" y="684"/>
      <point x="1320" y="600" type="qcurve" smooth="yes"/>
      <point x="1363" y="545"/>
    </contour>
    <contour>
      <point x="538" y="632" type="qcurve"/>
      <point x="542" y="617"/>
      <point x="539" y="582" type="qcurve" smooth="yes"/>
      <point x="536" y="546"/>
      <point x="527" y="535" type="qcurve"/>
      <point x="386" y="499"/>
      <point x="175" y="406" type="qcurve"/>
      <point x="174" y="480" type="line"/>
      <point x="208" y="498"/>
      <point x="269" y="529" type="qcurve"/>
      <point x="242" y="539"/>
      <point x="190" y="607"/>
      <point x="190" y="635" type="qcurve" smooth="yes"/>
      <point x="190" y="693"/>
      <point x="327" y="823"/>
      <point x="386" y="823" type="qcurve" smooth="yes"/>
      <point x="415" y="823"/>
      <point x="453" y="800" type="qcurve" smooth="yes"/>
      <point x="495" y="775"/>
      <point x="495" y="748" type="qcurve" smooth="yes"/>
      <point x="495" y="707"/>
      <point x="464" y="707" type="qcurve" smooth="yes"/>
      <point x="452" y="707"/>
      <point x="384" y="734"/>
      <point x="364" y="734" type="qcurve" smooth="yes"/>
      <point x="340" y="734"/>
      <point x="312" y="721" type="qcurve" smooth="yes"/>
      <point x="280" y="705"/>
      <point x="280" y="684" type="qcurve" smooth="yes"/>
      <point x="280" y="649"/>
      <point x="350" y="594"/>
      <point x="386" y="594" type="qcurve" smooth="yes"/>
      <point x="415" y="594"/>
      <point x="465" y="610" type="qcurve" smooth="yes"/>
      <point x="531" y="631"/>
    </contour>
  </outline>
</glyph>
<glyph name="u0627" format="2">
  <advance width="398"/>
  <unicode hex="0627"/>
  <unicode hex="FE8D"/>
  <outline>
    <contour>
      <point x="396" y="227" type="line" smooth="yes"/>
      <point x="396" y="156"/>
      <point x="320" y="-5" type="qcurve" smooth="yes"/>
      <point x="300" y="-47"/>
      <point x="292" y="-47" type="qcurve" smooth="yes"/>
      <point x="279" y="-47"/>
      <point x="271" y="46" type="qcurve" smooth="yes"/>
      <point x="176" y="1102" type="line"/>
      <point x="360" y="1255" type="line" smooth="yes"/>
      <point x="378" y="1270"/>
      <point x="386" y="1270" type="qcurve" smooth="yes"/>
      <point x="396" y="1270"/>
      <point x="396" y="1249" type="qcurve" smooth="yes"/>
    </contour>
  </outline>
</glyph>
<glyph name="u0629" format="2">
  <advance width="761"/>
  <unicode hex="0629"/>
  <unicode hex="FE93"/>
  <unicode hex="FBA4"/>
  <unicode hex="06C0"/>
  <outline>
    <contour>
      <point x="760" y="314" type="qcurve" smooth="yes"/>
      <point x="760" y="169"/>
      <point x="595" y="-3"/>
      <point x="451" y="-3" type="qcurve" smooth="yes"/>
      <point x="295" y="-3"/>
      <point x="225" y="85" type="qcurve" smooth="yes"/>
      <point x="177" y="146"/>
      <point x="177" y="232" type="qcurve" smooth="yes"/>
      <point x="177" y="345"/>
      <point x="266" y="507" type="qcurve" smooth="yes"/>
      <point x="349" y="658"/>
      <point x="422" y="709" type="qcurve"/>
      <point x="572" y="651"/>
      <point x="647" y="583" type="qcurve" smooth="yes"/>
      <point x="760" y="480"/>
    </contour>
    <contour>
      <point x="647" y="316" type="qcurve" smooth="yes"/>
      <point x="549" y="432"/>
      <point x="373" y="489" type="qcurve"/>
      <point x="306" y="415"/>
      <point x="306" y="322" type="qcurve" smooth="yes"/>
      <point x="306" y="272"/>
      <point x="374" y="245" type="qcurve" smooth="yes"/>
      <point x="425" y="226"/>
      <point x="485" y="226" type="qcurve" smooth="yes"/>
      <point x="588" y="226"/>
      <point x="641" y="264" type="qcurve" smooth="yes"/>
      <point x="672" y="286"/>
    </contour>
    <contour>
      <point x="619" y="1069" type="qcurve"/>
      <point x="623" y="1054"/>
      <point x="620" y="1019" type="qcurve" smooth="yes"/>
      <point x="617" y="983"/>
      <point x="608" y="972" type="qcurve"/>
      <point x="467" y="936"/>
      <point x="256" y="843" type="qcurve"/>
      <point x="255" y="917" type="line"/>
      <point x="289" y="935"/>
      <point x="349" y="965" type="qcurve"/>
      <point x="323" y="977"/>
      <point x="271" y="1045"/>
      <point x="271" y="1072" type="qcurve" smooth="yes"/>
      <point x="271" y="1130"/>
      <point x="408" y="1260"/>
      <point x="467" y="1260" type="qcurve" smooth="yes"/>
      <point x="496" y="1260"/>
      <point x="534" y="1237" type="qcurve" smooth="yes"/>
      <point x="576" y="1212"/>
      <point x="576" y="1185" type="qcurve" smooth="yes"/>
      <point x="576" y="1144"/>
      <point x="545" y="1144" type="qcurve" smooth="yes"/>
      <point x="533" y="1144"/>
      <point x="465" y="1171"/>
      <point x="445" y="1171" type="qcurve" smooth="yes"/>
      <point x="419" y="1171"/>
      <point x="393" y="1158" type="qcurve" smooth="yes"/>
      <point x="361" y="1143"/>
      <point x="361" y="1120" type="qcurve" smooth="yes"/>
      <point x="361" y="1085"/>
      <point x="431" y="1031"/>
      <point x="467" y="1031" type="qcurve" smooth="yes"/>
      <point x="496" y="1031"/>
      <point x="546" y="1047" type="qcurve" smooth="yes"/>
      <point x="612" y="1068"/>
    </contour>
  </outline>
</glyph>
<glyph name="u062B" format="2">
  <advance width="1547"/>
  <unicode hex="062B"/>
  <unicode hex="FE99"/>
  <outline>
    <contour>
      <point x="1545" y="402" type="qcurve" smooth="yes"/>
      <point x="1545" y="186"/>
      <point x="1402" y="90" type="qcurve" smooth="yes"/>
      <point x="1242" y="-18"/>
      <point x="765" y="-18" type="qcurve" smooth="yes"/>
      <point x="506" y="-18"/>
      <point x="373" y="41" type="qcurve" smooth="yes"/>
      <point x="177" y="128"/>
      <point x="177" y="351" type="qcurve" smooth="yes"/>
      <point x="177" y="450"/>
      <point x="229" y="545" type="qcurve" smooth="yes"/>
      <point x="276" y="630"/>
      <point x="307" y="630" type="qcurve" smooth="yes"/>
      <point x="345" y="630"/>
      <point x="345" y="588" type="qcurve" smooth="yes"/>
      <point x="345" y="571"/>
      <point x="314" y="480"/>
      <point x="314" y="455" type="qcurve" smooth="yes"/>
      <point x="314" y="297"/>
      <point x="489" y="254" type="qcurve" smooth="yes"/>
      <point x="567" y="235"/>
      <point x="818" y="235" type="qcurve" smooth="yes"/>
      <point x="1403" y="235"/>
      <point x="1403" y="333" type="qcurve" smooth="yes"/>
      <point x="1403" y="351"/>
      <point x="1352" y="417" type="qcurve" smooth="yes"/>
      <point x="1309" y="473"/>
      <point x="1284" y="498" type="qcurve"/>
      <point x="1415" y="663" type="line" smooth="yes"/>
      <point x="1426" y="677"/>
      <point x="1429" y="678" type="qcurve" smooth="yes"/>
      <point x="1434" y="679"/>
      <point x="1445" y="666" type="qcurve" smooth="yes"/>
      <point x="1545" y="545"/>
    </contour>
    <contour>
      <point x="582" y="735" type="line"/>
      <point x="705" y="857" type="line"/>
      <point x="827" y="735" type="line"/>
      <point x="705" y="612" type="line"/>
    </contour>
    <contour>
      <point x="855" y="735" type="line"/>
      <point x="978" y="857" type="line"/>
      <point x="1100" y="735" type="line"/>
      <point x="978" y="612" type="line"/>
    </contour>
    <contour>
      <point x="716" y="937" type="line"/>
      <point x="839" y="1060" type="line"/>
      <point x="961" y="937" type="line"/>
      <point x="839" y="815" type="line"/>
    </contour>
  </outline>
</glyph>
<glyph name="u062E" format="2">
  <advance width="1257"/>
  <unicode hex="062E"/>
  <unicode hex="FEA5"/>
  <outline>
    <contour>
      <point x="1246" y="-382" type="qcurve" smooth="yes"/>
      <point x="1136" y="-544"/>
      <point x="800" y="-544" type="qcurve" smooth="yes"/>
      <point x="541" y="-544"/>
      <point x="380" y="-453" type="qcurve" smooth="yes"/>
      <point x="177" y="-338"/>
      <point x="177" y="-100" type="qcurve" smooth="yes"/>
      <point x="177" y="97"/>
      <point x="353" y="254" type="qcurve" smooth="yes"/>
      <point x="494" y="380"/>
      <point x="714" y="457" type="qcurve"/>
      <point x="493" y="502"/>
      <point x="439" y="502" type="qcurve" smooth="yes"/>
      <point x="382" y="502"/>
      <point x="253" y="389"/>
      <point x="254" y="389" type="qcurve"/>
      <point x="209" y="389"/>
      <point x="209" y="426" type="qcurve" smooth="yes"/>
      <point x="209" y="458"/>
      <point x="238" y="517" type="qcurve" smooth="yes"/>
      <point x="286" y="615"/>
      <point x="314" y="648" type="qcurve" smooth="yes"/>
      <point x="382" y="729"/>
      <point x="480" y="729" type="qcurve" smooth="yes"/>
      <point x="512" y="729"/>
      <point x="655" y="705" type="qcurve" smooth="yes"/>
      <point x="849" y="672"/>
      <point x="940" y="663" type="qcurve" smooth="yes"/>
      <point x="1096" y="647"/>
      <point x="1231" y="664" type="qcurve" smooth="yes"/>
      <point x="1256" y="667"/>
      <point x="1256" y="662" type="qcurve" smooth="yes"/>
      <point x="1254" y="653"/>
      <point x="1245" y="632" type="qcurve" smooth="yes"/>
      <point x="1161" y="436" type="line"/>
      <point x="972" y="430"/>
      <point x="872" y="408" type="qcurve" smooth="yes"/>
      <point x="729" y="376"/>
      <point x="606" y="291" type="qcurve" smooth="yes"/>
      <point x="409" y="154"/>
      <point x="409" y="-48" type="qcurve" smooth="yes"/>
      <point x="409" y="-392"/>
      <point x="900" y="-392" type="qcurve" smooth="yes"/>
      <point x="1112" y="-392"/>
      <point x="1231" y="-356" type="qcurve" smooth="yes"/>
      <point x="1241" y="-353"/>
      <point x="1245" y="-353" type="qcurve" smooth="yes"/>
      <point x="1252" y="-353"/>
      <point x="1254" y="-358" type="qcurve" smooth="yes"/>
      <point x="1258" y="-365"/>
    </contour>
    <contour>
      <point x="875" y="1051" type="line"/>
      <point x="739" y="915" type="line"/>
      <point x="603" y="1051" type="line"/>
      <point x="739" y="1187" type="line"/>
    </contour>
  </outline>
</glyph>
<glyph name="u0630" format="2">
  <advance width="895"/>
  <unicode hex="0630"/>
  <unicode hex="FEAB"/>
  <outline>
    <contour>
      <point x="891" y="364" type="qcurve" smooth="yes"/>
      <point x="891" y="1"/>
      <point x="437" y="1" type="qcurve" smooth="yes"/>
      <point x="177" y="1"/>
      <point x="177" y="244" type="qcurve" smooth="yes"/>
      <point x="177" y="267"/>
      <point x="180" y="292" type="qcurve" smooth="yes"/>
      <point x="196" y="425"/>
      <point x="252" y="425" type="qcurve" smooth="yes"/>
      <point x="284" y="425"/>
      <point x="288" y="379" type="qcurve" smooth="yes"/>
      <point x="293" y="316"/>
      <point x="314" y="292" type="qcurve" smooth="yes"/>
      <point x="354" y="246"/>
      <point x="476" y="246" type="qcurve" smooth="yes"/>
      <point x="553" y="246"/>
      <point x="642" y="261" type="qcurve" smooth="yes"/>
      <point x="773" y="283"/>
      <point x="773" y="327" type="qcurve" smooth="yes"/>
      <point x="773" y="406"/>
      <point x="633" y="523" type="qcurve" smooth="yes"/>
      <point x="506" y="629"/>
      <point x="425" y="651" type="qcurve"/>
      <point x="485" y="875" type="line" smooth="yes"/>
      <point x="491" y="898"/>
      <point x="498" y="898" type="qcurve" smooth="yes"/>
      <point x="504" y="898"/>
      <point x="520" y="888" type="qcurve" smooth="yes"/>
      <point x="666" y="795"/>
      <point x="768" y="666" type="qcurve" smooth="yes"/>
      <point x="891" y="510"/>
    </contour>
    <contour>
      <point x="593" y="1155" type="line"/>
      <point x="457" y="1019" type="line"/>
      <point x="322" y="1155" type="line"/>
      <point x="457" y="1290" type="line"/>
    </contour>
  </outline>
</glyph>
<glyph name="u0631" format="2">
  <advance width="769"/>
  <unicode hex="0631"/>
  <unicode hex="FEAD"/>
  <outline>
    <contour>
      <point x="767" y="70" type="qcurve" smooth="yes"/>
      <point x="767" y="-216"/>
      <point x="577" y="-413" type="qcurve" smooth="yes"/>
      <point x="518" y="-474"/>
      <point x="505" y="-474" type="qcurve" smooth="yes"/>
      <point x="236" y="-474"/>
      <point x="106" y="-423" type="qcurve" smooth="yes"/>
      <point x="78" y="-412"/>
      <point x="104" y="-403" type="qcurve" smooth="yes"/>
      <point x="289" y="-337"/>
      <point x="452" y="-211" type="qcurve" smooth="yes"/>
      <point x="639" y="-67"/>
      <point x="639" y="48" type="qcurve" smooth="yes"/>
      <point x="639" y="96"/>
      <point x="571" y="182" type="qcurve" smooth="yes"/>
      <point x="514" y="254"/>
      <point x="460" y="295" type="qcurve"/>
      <point x="557" y="500" type="line" smooth="yes"/>
      <point x="566" y="519"/>
      <point x="581" y="504" type="qcurve" smooth="yes"/>
      <point x="767" y="318"/>
    </contour>
  </outline>
</glyph>
<glyph name="u0632" format="2">
  <advance width="769"/>
  <unicode hex="0632"/>
  <unicode hex="FEAF"/>
  <outline>
    <contour>
      <point x="767" y="70" type="qcurve" smooth="yes"/>
      <point x="767" y="-216"/>
      <point x="577" y="-413" type="qcurve" smooth="yes"/>
      <point x="518" y="-474"/>
      <point x="505" y="-474" type="qcurve" smooth="yes"/>
      <point x="236" y="-474"/>
      <point x="106" y="-423" type="qcurve" smooth="yes"/>
      <point x="78" y="-412"/>
      <point x="104" y="-403" type="qcurve" smooth="yes"/>
      <point x="289" y="-337"/>
      <point x="452" y="-211" type="qcurve" smooth="yes"/>
      <point x="639" y="-67"/>
      <point x="639" y="48" type="qcurve" smooth="yes"/>
      <point x="639" y="96"/>
      <point x="571" y="182" type="qcurve" smooth="yes"/>
      <point x="514" y="254"/>
      <point x="460" y="295" type="qcurve"/>
      <point x="557" y="500" type="line" smooth="yes"/>
      <point x="566" y="519"/>
      <point x="581" y="504" type="qcurve" smooth="yes"/>
      <point x="767" y="318"/>
    </contour>
    <contour>
      <point x="654" y="818" type="line"/>
      <point x="519" y="683" type="line"/>
      <point x="383" y="818" type="line"/>
      <point x="519" y="954" type="line"/>
    </contour>
  </outline>
</glyph>
<glyph name="u0634" format="2">
  <advance width="1902"/>
  <unicode hex="0634"/>
  <unicode hex="FEB5"/>
  <outline>
    <contour>
      <point x="1899" y="383" type="qcurve" smooth="yes"/>
      <point x="1899" y="244"/>
      <point x="1842" y="136" type="qcurve" smooth="yes"/>
      <point x="1771" y="1"/>
      <point x="1640" y="1" type="qcurve" smooth="yes"/>
      <point x="1525" y="1"/>
      <point x="1450" y="129" type="qcurve"/>
      <point x="1378" y="2"/>
      <point x="1276" y="2" type="qcurve" smooth="yes"/>
      <point x="1240" y="2"/>
      <point x="1200" y="16" type="qcurve"/>
      <point x="1207" y="-35"/>
      <point x="1207" y="-82" type="qcurve" smooth="yes"/>
      <point x="1207" y="-325"/>
      <point x="1023" y="-442" type="qcurve" smooth="yes"/>
      <point x="871" y="-538"/>
      <point x="614" y="-538" type="qcurve" smooth="yes"/>
      <point x="383" y="-538"/>
      <point x="270" y="-411" type="qcurve" smooth="yes"/>
      <point x="179" y="-309"/>
      <point x="179" y="-153" type="qcurve" smooth="yes"/>
      <point x="179" y="-74"/>
      <point x="227" y="77" type="qcurve" smooth="yes"/>
      <point x="283" y="254"/>
      <point x="340" y="254" type="qcurve" smooth="yes"/>
      <point x="380" y="254"/>
      <point x="380" y="198" type="qcurve" smooth="yes"/>
      <point x="380" y="181"/>
      <point x="319" y="2"/>
      <point x="319" y="-45" type="qcurve" smooth="yes"/>
      <point x="319" y="-187"/>
      <point x="432" y="-244" type="qcurve" smooth="yes"/>
      <point x="514" y="-285"/>
      <point x="675" y="-285" type="qcurve" smooth="yes"/>
      <point x="833" y="-285"/>
      <point x="962" y="-236" type="qcurve" smooth="yes"/>
      <point x="1110" y="-180"/>
      <point x="1110" y="-90" type="qcurve" smooth="yes"/>
      <point x="1110" y="-34"/>
      <point x="1023" y="86" type="qcurve" smooth="yes"/>
      <point x="949" y="188"/>
      <point x="890" y="240" type="qcurve"/>
      <point x="989" y="442" type="line" smooth="yes"/>
      <point x="1000" y="464"/>
      <point x="1015" y="442" type="qcurve" smooth="yes"/>
      <point x="1142" y="258"/>
      <point x="1262" y="258" type="qcurve" smooth="yes"/>
      <point x="1335" y="258"/>
      <point x="1366" y="318" type="qcurve" smooth="yes"/>
      <point x="1373" y="331"/>
      <point x="1397" y="429" type="qcurve" smooth="yes"/>
      <point x="1412" y="489"/>
      <point x="1447" y="489" type="qcurve" smooth="yes"/>
      <point x="1480" y="489"/>
      <point x="1493" y="428" type="qcurve" smooth="yes"/>
      <point x="1512" y="340"/>
      <point x="1528" y="314" type="qcurve" smooth="yes"/>
      <point x="1566" y="253"/>
      <point x="1659" y="253" type="qcurve" smooth="yes"/>
      <point x="1771" y="253"/>
      <point x="1771" y="337" type="qcurve" smooth="yes"/>
      <point x="1771" y="379"/>
      <point x="1685" y="486" type="qcurve"/>
      <point x="1776" y="627" type="line" smooth="yes"/>
      <point x="1793" y="654"/>
      <point x="1796" y="655" type="qcurve" smooth="yes"/>
      <point x="1802" y="652"/>
      <point x="1816" y="634" type="qcurve" smooth="yes"/>
      <point x="1841" y="602"/>
      <point x="1866" y="538" type="qcurve" smooth="yes"/>
      <point x="1899" y="453"/>
    </contour>
    <contour>
      <point x="1199" y="862" type="line"/>
      <point x="1321" y="985" type="line"/>
      <point x="1444" y="862" type="line"/>
      <point x="1321" y="740" type="line"/>
    </contour>
    <contour>
      <point x="1472" y="862" type="line"/>
      <point x="1594" y="985" type="line"/>
      <point x="1717" y="862" type="line"/>
      <point x="1594" y="740" type="line"/>
    </contour>
    <contour>
      <point x="1333" y="1065" type="line"/>
      <point x="1455" y="1187" type="line"/>
      <point x="1578" y="1065" type="line"/>
      <point x="1455" y="943" type="line"/>
    </contour>
  </outline>
</glyph>
<glyph name="u0636" format="2">
  <advance width="1920"/>
  <unicode hex="0636"/>
  <unicode hex="FEBD"/>
  <outline>
    <contour>
      <point x="1918" y="458" type="qcurve" smooth="yes"/>
      <point x="1918" y="310"/>
      <point x="1795" y="172" type="qcurve" smooth="yes"/>
      <point x="1642" y="1"/>
      <point x="1393" y="1" type="qcurve" smooth="yes"/>
      <point x="1268" y="1"/>
      <point x="1164" y="37" type="qcurve"/>
      <point x="1177" y="-25"/>
      <point x="1177" y="-84" type="qcurve" smooth="yes"/>
      <point x="1177" y="-317"/>
      <point x="1005" y="-436" type="qcurve" smooth="yes"/>
      <point x="857" y="-538"/>
      <point x="614" y="-538" type="qcurve" smooth="yes"/>
      <point x="383" y="-538"/>
      <point x="270" y="-411" type="qcurve" smooth="yes"/>
      <point x="179" y="-309"/>
      <point x="179" y="-153" type="qcurve" smooth="yes"/>
      <point x="179" y="-74"/>
      <point x="227" y="77" type="qcurve" smooth="yes"/>
      <point x="283" y="254"/>
      <point x="340" y="254" type="qcurve" smooth="yes"/>
      <point x="380" y="254"/>
      <point x="380" y="198" type="qcurve" smooth="yes"/>
      <point x="380" y="181"/>
      <point x="319" y="2"/>
      <point x="319" y="-45" type="qcurve" smooth="yes"/>
      <point x="319" y="-187"/>
      <point x="432" y="-244" type="qcurve" smooth="yes"/>
      <point x="514" y="-285"/>
      <point x="675" y="-285" type="qcurve" smooth="yes"/>
      <point x="833" y="-285"/>
      <point x="948" y="-233" type="qcurve" smooth="yes"/>
      <point x="1083" y="-172"/>
      <point x="1083" y="-66" type="qcurve" smooth="yes"/>
      <point x="1083" y="-11"/>
      <point x="1001" y="101" type="qcurve" smooth="yes"/>
      <point x="932" y="195"/>
      <point x="872" y="247" type="qcurve"/>
      <point x="965" y="440" type="line" smooth="yes"/>
      <point x="980" y="470"/>
      <point x="997" y="442" type="qcurve" smooth="yes"/>
      <point x="1057" y="344"/>
      <point x="1145" y="278" type="qcurve"/>
      <point x="1453" y="679"/>
      <point x="1672" y="679" type="qcurve" smooth="yes"/>
      <point x="1774" y="679"/>
      <point x="1844" y="621" type="qcurve" smooth="yes"/>
      <point x="1918" y="558"/>
    </contour>
    <contour>
      <point x="1756" y="347" type="qcurve" smooth="yes"/>
      <point x="1756" y="409"/>
      <point x="1690" y="444" type="qcurve" smooth="yes"/>
      <point x="1636" y="473"/>
      <point x="1569" y="473" type="qcurve" smooth="yes"/>
      <point x="1440" y="473"/>
      <point x="1249" y="255" type="qcurve"/>
      <point x="1332" y="249"/>
      <point x="1404" y="249" type="qcurve" smooth="yes"/>
      <point x="1578" y="249"/>
      <point x="1678" y="286" type="qcurve" smooth="yes"/>
      <point x="1756" y="315"/>
    </contour>
    <contour>
      <point x="1625" y="979" type="line"/>
      <point x="1490" y="843" type="line"/>
      <point x="1354" y="979" type="line"/>
      <point x="1490" y="1114" type="line"/>
    </contour>
  </outline>
</glyph>
<glyph name="u0637" format="2">
  <advance width="1343"/>
  <unicode hex="0637"/>
  <unicode hex="FEC1"/>
  <outline>
    <contour>
      <point x="1337" y="460" type="qcurve" smooth="yes"/>
      <point x="1337" y="203"/>
      <point x="1094" y="87" type="qcurve" smooth="yes"/>
      <point x="914" y="1"/>
      <point x="624" y="1" type="qcurve" smooth="yes"/>
      <point x="429" y="1"/>
      <point x="335" y="51" type="qcurve" smooth="yes"/>
      <point x="226" y="109"/>
      <point x="174" y="267" type="qcurve"/>
      <point x="314" y="254"/>
      <point x="514" y="258" type="qcurve"/>
      <point x="514" y="334" type="line" smooth="yes"/>
      <point x="514" y="730"/>
      <point x="423" y="1097" type="qcurve"/>
      <point x="610" y="1268" type="line"/>
      <point x="647" y="1161"/>
      <point x="714" y="989" type="qcurve" smooth="yes"/>
      <point x="717" y="983"/>
      <point x="719" y="974" type="qcurve" smooth="yes"/>
      <point x="719" y="968"/>
      <point x="710" y="968" type="qcurve" smooth="yes"/>
      <point x="699" y="968"/>
      <point x="640" y="983" type="qcurve"/>
      <point x="653" y="839"/>
      <point x="653" y="729" type="qcurve" smooth="yes"/>
      <point x="653" y="577"/>
      <point x="624" y="373" type="qcurve"/>
      <point x="710" y="469"/>
      <point x="828" y="556" type="qcurve" smooth="yes"/>
      <point x="999" y="682"/>
      <point x="1113" y="682" type="qcurve" smooth="yes"/>
      <point x="1187" y="682"/>
      <point x="1253" y="633" type="qcurve" smooth="yes"/>
      <point x="1337" y="571"/>
    </contour>
    <contour>
      <point x="1181" y="351" type="qcurve" smooth="yes"/>
      <point x="1181" y="401"/>
      <point x="1123" y="441" type="qcurve" smooth="yes"/>
      <point x="1069" y="478"/>
      <point x="1017" y="478" type="qcurve" smooth="yes"/>
      <point x="851" y="478"/>
      <point x="650" y="258" type="qcurve"/>
      <point x="834" y="258" type="line" smooth="yes"/>
      <point x="936" y="258"/>
      <point x="1030" y="273" type="qcurve" smooth="yes"/>
      <point x="1181" y="297"/>
    </contour>
  </outline>
</glyph>
<glyph name="u0639" format="2">
  <advance width="1187"/>
  <unicode hex="0639"/>
  <unicode hex="FEC9"/>
  <outline>
    <contour>
      <point x="1175" y="-366" type="qcurve" smooth="yes"/>
      <point x="1076" y="-542"/>
      <point x="710" y="-542" type="qcurve" smooth="yes"/>
      <point x="493" y="-542"/>
      <point x="350" y="-456" type="qcurve" smooth="yes"/>
      <point x="177" y="-352"/>
      <point x="177" y="-149" type="qcurve" smooth="yes"/>
      <point x="177" y="-1"/>
      <point x="300" y="118" type="qcurve" smooth="yes"/>
      <point x="404" y="219"/>
      <point x="552" y="264" type="qcurve"/>
      <point x="485" y="284"/>
      <point x="433" y="333" type="qcurve" smooth="yes"/>
      <point x="366" y="396"/>
      <point x="366" y="476" type="qcurve" smooth="yes"/>
      <point x="366" y="589"/>
      <point x="482" y="717" type="qcurve" smooth="yes"/>
      <point x="607" y="854"/>
      <point x="744" y="854" type="qcurve" smooth="yes"/>
      <point x="796" y="854"/>
      <point x="861" y="816" type="qcurve" smooth="yes"/>
      <point x="940" y="770"/>
      <point x="975" y="699" type="qcurve" smooth="yes"/>
      <point x="992" y="665"/>
      <point x="992" y="650" type="qcurve" smooth="yes"/>
      <point x="992" y="637"/>
      <point x="979" y="637" type="qcurve" smooth="yes"/>
      <point x="973" y="637"/>
      <point x="940" y="647" type="qcurve" smooth="yes"/>
      <point x="854" y="673"/>
      <point x="767" y="673" type="qcurve" smooth="yes"/>
      <point x="702" y="673"/>
      <point x="618" y="649" type="qcurve" smooth="yes"/>
      <point x="510" y="617"/>
      <point x="510" y="569" type="qcurve" smooth="yes"/>
      <point x="510" y="525"/>
      <point x="566" y="473" type="qcurve" smooth="yes"/>
      <point x="643" y="402"/>
      <point x="780" y="402" type="qcurve" smooth="yes"/>
      <point x="885" y="402"/>
      <point x="1070" y="449" type="qcurve" smooth="yes"/>
      <point x="1096" y="456"/>
      <point x="1099" y="453" type="qcurve" smooth="yes"/>
      <point x="1102" y="450"/>
      <point x="1093" y="430" type="qcurve" smooth="yes"/>
      <point x="1009" y="238" type="line"/>
      <point x="403" y="189"/>
      <point x="403" y="-92" type="qcurve" smooth="yes"/>
      <point x="403" y="-250"/>
      <point x="556" y="-327" type="qcurve" smooth="yes"/>
      <point x="675" y="-387"/>
      <point x="849" y="-387" type="qcurve" smooth="yes"/>
      <point x="1008" y="-387"/>
      <point x="1154" y="-352" type="qcurve" smooth="yes"/>
      <point x="1181" y="-345"/>
      <point x="1184" y="-347" type="qcurve" smooth="yes"/>
      <point x="1183" y="-352"/>
    </contour>
  </outline>
</glyph>
<glyph name="u0640" format="2">
  <advance width="935"/>
  <unicode hex="0640"/>
  <outline>
    <contour>
      <point x="972" y="1" type="line"/>
      <point x="-26" y="1" type="line"/>
      <point x="-26" y="258" type="line"/>
      <point x="972" y="258" type="line"/>
    </contour>
  </outline>
</glyph>
<glyph name="u0641" format="2">
  <advance width="1524"/>
  <unicode hex="0641"/>
  <unicode hex="FED1"/>
  <outline>
    <contour>
      <point x="1521" y="418" type="qcurve" smooth="yes"/>
      <point x="1521" y="174"/>
      <point x="1385" y="83" type="qcurve" smooth="yes"/>
      <point x="1312" y="34"/>
      <point x="1084" y="5" type="qcurve" smooth="yes"/>
      <point x="905" y="-18"/>
      <point x="765" y="-18" type="qcurve" smooth="yes"/>
      <point x="506" y="-18"/>
      <point x="373" y="41" type="qcurve" smooth="yes"/>
      <point x="177" y="128"/>
      <point x="177" y="351" type="qcurve" smooth="yes"/>
      <point x="177" y="450"/>
      <point x="229" y="545" type="qcurve" smooth="yes"/>
      <point x="276" y="630"/>
      <point x="307" y="630" type="qcurve" smooth="yes"/>
      <point x="345" y="630"/>
      <point x="345" y="588" type="qcurve" smooth="yes"/>
      <point x="345" y="571"/>
      <point x="314" y="480"/>
      <point x="314" y="455" type="qcurve" smooth="yes"/>
      <point x="314" y="297"/>
      <point x="489" y="254" type="qcurve" smooth="yes"/>
      <point x="567" y="235"/>
      <point x="818" y="235" type="qcurve" smooth="yes"/>
      <point x="1198" y="235"/>
      <point x="1386" y="308" type="qcurve" smooth="yes"/>
      <point x="1422" y="322"/>
      <point x="1422" y="361" type="qcurve" smooth="yes"/>
      <point x="1422" y="388"/>
      <point x="1382" y="384" type="qcurve" smooth="yes"/>
      <point x="1255" y="372"/>
      <point x="1203" y="372" type="qcurve" smooth="yes"/>
      <point x="1004" y="372"/>
      <point x="1004" y="519" type="qcurve" smooth="yes"/>
      <point x="1004" y="640"/>
      <point x="1065" y="759" type="qcurve" smooth="yes"/>
      <point x="1139" y="903"/>
      <point x="1253" y="903" type="qcurve" smooth="yes"/>
      <point x="1409" y="903"/>
      <point x="1478" y="699" type="qcurve" smooth="yes"/>
      <point x="1521" y="572"/>
    </contour>
    <contour>
      <point x="1370" y="568" type="qcurve"/>
      <point x="1342" y="637"/>
      <point x="1285" y="673" type="qcurve" smooth="yes"/>
      <point x="1242" y="700"/>
      <point x="1206" y="700" type="qcurve" smooth="yes"/>
      <point x="1174" y="700"/>
      <point x="1123" y="657"/>
      <point x="1123" y="626" type="qcurve" smooth="yes"/>
      <point x="1123" y="556"/>
      <point x="1259" y="556" type="qcurve" smooth="yes"/>
      <point x="1310" y="556"/>
    </contour>
    <contour>
      <point x="1380" y="1148" type="line"/>
      <point x="1245" y="1012" type="line"/>
      <point x="1109" y="1148" type="line"/>
      <point x="1245" y="1283" type="line"/>
    </contour>
  </outline>
</glyph>
<glyph name="u0643" format="2">
  <advance width="1744"/>
  <unicode hex="0643"/>
  <unicode hex="FED9"/>
  <unicode hex="FB8E"/>
  <unicode hex="06A9"/>
  <outline>
    <contour>
      <point x="1795" y="1242" type="qcurve"/>
      <point x="1753" y="1015" type="line"/>
      <point x="1593" y="963"/>
      <point x="1223" y="832" type="qcurve"/>
      <point x="1347" y="708"/>
      <point x="1402" y="624" type="qcurve" smooth="yes"/>
      <point x="1479" y="506"/>
      <point x="1479" y="388" type="qcurve" smooth="yes"/>
      <point x="1479" y="169"/>
      <point x="1336" y="62" type="qcurve" smooth="yes"/>
      <point x="1285" y="24"/>
      <point x="1085" y="1" type="qcurve" smooth="yes"/>
      <point x="920" y="-18"/>
      <point x="765" y="-18" type="qcurve" smooth="yes"/>
      <point x="486" y="-18"/>
      <point x="365" y="34" type="qcurve" smooth="yes"/>
      <point x="177" y="115"/>
      <point x="177" y="351" type="qcurve" smooth="yes"/>
      <point x="177" y="450"/>
      <point x="229" y="545" type="qcurve" smooth="yes"/>
      <point x="276" y="630"/>
      <point x="307" y="630" type="qcurve" smooth="yes"/>
      <point x="345" y="630"/>
      <point x="345" y="588" type="qcurve" smooth="yes"/>
      <point x="345" y="571"/>
      <point x="314" y="480"/>
      <point x="314" y="455" type="qcurve" smooth="yes"/>
      <point x="314" y="295"/>
      <point x="469" y="254" type="qcurve" smooth="yes"/>
      <point x="541" y="235"/>
      <point x="818" y="235" type="qcurve" smooth="yes"/>
      <point x="1153" y="235"/>
      <point x="1273" y="262" type="qcurve" smooth="yes"/>
      <point x="1363" y="282"/>
      <point x="1363" y="333" type="qcurve" smooth="yes"/>
      <point x="1363" y="398"/>
      <point x="1240" y="533" type="qcurve" smooth="yes"/>
      <point x="1127" y="657"/>
      <point x="1031" y="717" type="qcurve"/>
      <point x="1080" y="975" type="line"/>
      <point x="1307" y="1066"/>
    </contour>
  </outline>
</glyph>
<glyph name="u0644" format="2">
  <advance width="1211"/>
  <unicode hex="0644"/>
  <unicode hex="FEDD"/>
  <outline>
    <contour>
      <point x="1198" y="988" type="qcurve" smooth="yes"/>
      <point x="1202" y="978"/>
      <point x="1204" y="971" type="qcurve" smooth="yes"/>
      <point x="1202" y="967"/>
      <point x="1192" y="967" type="qcurve" smooth="yes"/>
      <point x="1175" y="967"/>
      <point x="1133" y="975" type="qcurve"/>
      <point x="1148" y="736"/>
      <point x="1143" y="40" type="qcurve" smooth="yes"/>
      <point x="1140" y="-488"/>
      <point x="587" y="-488" type="qcurve" smooth="yes"/>
      <point x="175" y="-488"/>
      <point x="175" y="-119" type="qcurve" smooth="yes"/>
      <point x="175" y="-36"/>
      <point x="218" y="84" type="qcurve" smooth="yes"/>
      <point x="263" y="210"/>
      <point x="303" y="210" type="qcurve" smooth="yes"/>
      <point x="340" y="210"/>
      <point x="340" y="162" type="qcurve" smooth="yes"/>
      <point x="340" y="135"/>
      <point x="303" y="16"/>
      <point x="303" y="-15" type="qcurve" smooth="yes"/>
      <point x="303" y="-233"/>
      <point x="615" y="-233" type="qcurve" smooth="yes"/>
      <point x="823" y="-233"/>
      <point x="933" y="-166" type="qcurve" smooth="yes"/>
      <point x="1009" y="-120"/>
      <point x="1009" y="-79" type="qcurve" smooth="yes"/>
      <point x="1009" y="166"/>
      <point x="976" y="510" type="qcurve" smooth="yes"/>
      <point x="942" y="868"/>
      <point x="894" y="1093" type="qcurve"/>
      <point x="1078" y="1258" type="line" smooth="yes"/>
      <point x="1094" y="1272"/>
      <point x="1100" y="1253" type="qcurve" smooth="yes"/>
      <point x="1135" y="1150"/>
    </contour>
  </outline>
</glyph>
<glyph name="u0645" format="2">
  <advance width="969"/>
  <unicode hex="0645"/>
  <unicode hex="FEE1"/>
  <outline>
    <contour>
      <point x="966" y="346" type="qcurve" smooth="yes"/>
      <point x="966" y="266"/>
      <point x="921" y="176" type="qcurve" smooth="yes"/>
      <point x="859" y="52"/>
      <point x="748" y="52" type="qcurve" smooth="yes"/>
      <point x="688" y="52"/>
      <point x="451" y="99"/>
      <point x="391" y="99" type="qcurve" smooth="yes"/>
      <point x="322" y="99"/>
      <point x="322" y="56" type="qcurve" smooth="yes"/>
      <point x="322" y="49"/>
      <point x="323" y="39" type="qcurve" smooth="yes"/>
      <point x="355" y="-269"/>
      <point x="344" y="-365" type="qcurve" smooth="yes"/>
      <point x="341" y="-388"/>
      <point x="304" y="-450" type="qcurve" smooth="yes"/>
      <point x="290" y="-472"/>
      <point x="255" y="-529" type="qcurve" smooth="yes"/>
      <point x="242" y="-551"/>
      <point x="235" y="-551" type="qcurve" smooth="yes"/>
      <point x="226" y="-551"/>
      <point x="224" y="-514" type="qcurve" smooth="yes"/>
      <point x="216" y="-367"/>
      <point x="195" y="-137" type="qcurve" smooth="yes"/>
      <point x="177" y="60"/>
      <point x="177" y="96" type="qcurve" smooth="yes"/>
      <point x="177" y="197"/>
      <point x="245" y="257" type="qcurve" smooth="yes"/>
      <point x="310" y="315"/>
      <point x="413" y="315" type="qcurve"/>
      <point x="412" y="326"/>
      <point x="407" y="358" type="qcurve" smooth="yes"/>
      <point x="403" y="386"/>
      <point x="403" y="402" type="qcurve" smooth="yes"/>
      <point x="403" y="469"/>
      <point x="472" y="558" type="qcurve" smooth="yes"/>
      <point x="548" y="657"/>
      <point x="632" y="657" type="qcurve" smooth="yes"/>
      <point x="731" y="657"/>
      <point x="851" y="539" type="qcurve" smooth="yes"/>
      <point x="966" y="426"/>
    </contour>
    <contour>
      <point x="812" y="288" type="qcurve" smooth="yes"/>
      <point x="770" y="341"/>
      <point x="706" y="386" type="qcurve" smooth="yes"/>
      <point x="629" y="440"/>
      <point x="574" y="440" type="qcurve" smooth="yes"/>
      <point x="523" y="440"/>
      <point x="523" y="389" type="qcurve" smooth="yes"/>
      <point x="523" y="301"/>
      <point x="522" y="320" type="qcurve"/>
      <point x="523" y="304"/>
      <point x="541" y="300" type="qcurve" smooth="yes"/>
      <point x="615" y="284"/>
      <point x="791" y="251" type="qcurve" smooth="yes"/>
      <point x="824" y="245"/>
      <point x="824" y="263" type="qcurve" smooth="yes"/>
      <point x="824" y="273"/>
    </contour>
  </outline>
</glyph>
<glyph name="u0646" format="2">
  <advance width="1244"/>
  <unicode hex="0646"/>
  <unicode hex="FEE5"/>
  <outline>
    <contour>
      <point x="1242" y="-37" type="qcurve" smooth="yes"/>
      <point x="1242" y="-325"/>
      <point x="1065" y="-442" type="qcurve" smooth="yes"/>
      <point x="920" y="-538"/>
      <point x="614" y="-538" type="qcurve" smooth="yes"/>
      <point x="383" y="-538"/>
      <point x="270" y="-411" type="qcurve" smooth="yes"/>
      <point x="179" y="-309"/>
      <point x="179" y="-153" type="qcurve" smooth="yes"/>
      <point x="179" y="-74"/>
      <point x="227" y="77" type="qcurve" smooth="yes"/>
      <point x="283" y="254"/>
      <point x="340" y="254" type="qcurve" smooth="yes"/>
      <point x="380" y="254"/>
      <point x="380" y="198" type="qcurve" smooth="yes"/>
      <point x="380" y="181"/>
      <point x="319" y="2"/>
      <point x="319" y="-45" type="qcurve" smooth="yes"/>
      <point x="319" y="-187"/>
      <point x="432" y="-244" type="qcurve" smooth="yes"/>
      <point x="514" y="-285"/>
      <point x="675" y="-285" type="qcurve" smooth="yes"/>
      <point x="825" y="-285"/>
      <point x="946" y="-253" type="qcurve" smooth="yes"/>
      <point x="1132" y="-204"/>
      <point x="1132" y="-95" type="qcurve" smooth="yes"/>
      <point x="1132" y="-38"/>
      <point x="1055" y="82" type="qcurve" smooth="yes"/>
      <point x="985" y="191"/>
      <point x="932" y="238" type="qcurve"/>
      <point x="1037" y="453" type="line" smooth="yes"/>
      <point x="1047" y="474"/>
      <point x="1062" y="453" type="qcurve" smooth="yes"/>
      <point x="1242" y="195"/>
    </contour>
    <contour>
      <point x="831" y="588" type="line"/>
      <point x="695" y="452" type="line"/>
      <point x="559" y="588" type="line"/>
      <point x="695" y="723" type="line"/>
    </contour>
  </outline>
</glyph>
<glyph name="u0647" format="2">
  <advance width="761"/>
  <unicode hex="0647"/>
  <unicode hex="FEE9"/>
  <outline>
    <contour>
      <point x="760" y="314" type="qcurve" smooth="yes"/>
      <point x="760" y="169"/>
      <point x="595" y="-3"/>
      <point x="451" y="-3" type="qcurve" smooth="yes"/>
      <point x="295" y="-3"/>
      <point x="225" y="85" type="qcurve" smooth="yes"/>
      <point x="177" y="146"/>
      <point x="177" y="232" type="qcurve" smooth="yes"/>
      <point x="177" y="345"/>
      <point x="266" y="507" type="qcurve" smooth="yes"/>
      <point x="349" y="658"/>
      <point x="422" y="709" type="qcurve"/>
      <point x="572" y="651"/>
      <point x="647" y="583" type="qcurve" smooth="yes"/>
      <point x="760" y="480"/>
    </contour>
    <contour>
      <point x="647" y="316" type="qcurve" smooth="yes"/>
      <point x="549" y="432"/>
      <point x="373" y="489" type="qcurve"/>
      <point x="306" y="415"/>
      <point x="306" y="322" type="qcurve" smooth="yes"/>
      <point x="306" y="272"/>
      <point x="374" y="245" type="qcurve" smooth="yes"/>
      <point x="425" y="226"/>
      <point x="485" y="226" type="qcurve" smooth="yes"/>
      <point x="588" y="226"/>
      <point x="641" y="264" type="qcurve" smooth="yes"/>
      <point x="672" y="286"/>
    </contour>
  </outline>
</glyph>
<glyph name="u0648" format="2">
  <advance width="782"/>
  <unicode hex="0648"/>
  <unicode hex="FEED"/>
  <outline>
    <contour>
      <point x="780" y="38" type="line" smooth="yes"/>
      <point x="780" y="-223"/>
      <point x="602" y="-414" type="qcurve" smooth="yes"/>
      <point x="546" y="-474"/>
      <point x="531" y="-474" type="qcurve" smooth="yes"/>
      <point x="280" y="-474"/>
      <point x="132" y="-423" type="qcurve" smooth="yes"/>
      <point x="103" y="-413"/>
      <point x="130" y="-403" type="qcurve" smooth="yes"/>
      <point x="308" y="-339"/>
      <point x="477" y="-204" type="qcurve" smooth="yes"/>
      <point x="662" y="-57"/>
      <point x="662" y="41" type="qcurve"/>
      <point x="640" y="41"/>
      <point x="551" y="39"/>
      <point x="529" y="39" type="qcurve" smooth="yes"/>
      <point x="393" y="39"/>
      <point x="333" y="70" type="qcurve" smooth="yes"/>
      <point x="250" y="113"/>
      <point x="250" y="227" type="qcurve" smooth="yes"/>
      <point x="250" y="333"/>
      <point x="317" y="469" type="qcurve" smooth="yes"/>
      <point x="398" y="633"/>
      <point x="509" y="633" type="qcurve" smooth="yes"/>
      <point x="647" y="633"/>
      <point x="722" y="473" type="qcurve" smooth="yes"/>
      <point x="780" y="349"/>
      <point x="780" y="194" type="qcurve" smooth="yes"/>
    </contour>
    <contour>
      <point x="625" y="291" type="qcurve"/>
      <point x="598" y="358"/>
      <point x="540" y="395" type="qcurve" smooth="yes"/>
      <point x="496" y="423"/>
      <point x="462" y="423" type="qcurve" smooth="yes"/>
      <point x="431" y="423"/>
      <point x="379" y="379"/>
      <point x="379" y="349" type="qcurve" smooth="yes"/>
      <point x="379" y="279"/>
      <point x="491" y="279" type="qcurve" smooth="yes"/>
      <point x="543" y="279"/>
    </contour>
  </outline>
</glyph>
<glyph name="u064A" format="2">
  <advance width="1381"/>
  <unicode hex="064A"/>
  <unicode hex="FEF1"/>
  <unicode hex="FBFC"/>
  <unicode hex="06CC"/>
  <outline>
    <contour>
      <point x="1374" y="488" type="qcurve" smooth="yes"/>
      <point x="1379" y="462"/>
      <point x="1379" y="448" type="qcurve" smooth="yes"/>
      <point x="1379" y="431"/>
      <point x="1372" y="431" type="qcurve" smooth="yes"/>
      <point x="1365" y="431"/>
      <point x="1344" y="442" type="qcurve" smooth="yes"/>
      <point x="1292" y="470"/>
      <point x="1178" y="470" type="qcurve" smooth="yes"/>
      <point x="1053" y="470"/>
      <point x="961" y="384" type="qcurve" smooth="yes"/>
      <point x="890" y="317"/>
      <point x="890" y="275" type="qcurve" smooth="yes"/>
      <point x="890" y="228"/>
      <point x="966" y="205" type="qcurve" smooth="yes"/>
      <point x="1006" y="193"/>
      <point x="1122" y="177" type="qcurve" smooth="yes"/>
      <point x="1226" y="163"/>
      <point x="1266" y="131" type="qcurve" smooth="yes"/>
      <point x="1323" y="86"/>
      <point x="1323" y="-26" type="qcurve" smooth="yes"/>
      <point x="1323" y="-305"/>
      <point x="1079" y="-423" type="qcurve" smooth="yes"/>
      <point x="916" y="-502"/>
      <point x="656" y="-502" type="qcurve" smooth="yes"/>
      <point x="179" y="-502"/>
      <point x="179" y="-109" type="qcurve" smooth="yes"/>
      <point x="179" y="-30"/>
      <point x="227" y="121" type="qcurve" smooth="yes"/>
      <point x="283" y="298"/>
      <point x="340" y="298" type="qcurve" smooth="yes"/>
      <point x="380" y="298"/>
      <point x="380" y="242" type="qcurve" smooth="yes"/>
      <point x="380" y="225"/>
      <point x="319" y="46"/>
      <point x="319" y="-1" type="qcurve" smooth="yes"/>
      <point x="319" y="-254"/>
      <point x="699" y="-254" type="qcurve" smooth="yes"/>
      <point x="863" y="-254"/>
      <point x="1009" y="-221" type="qcurve" smooth="yes"/>
      <point x="1207" y="-176"/>
      <point x="1207" y="-95" type="qcurve" smooth="yes"/>
      <point x="1207" y="-51"/>
      <point x="1091" y="-37" type="qcurve" smooth="yes"/>
      <point x="921" y="-17"/>
      <point x="875" y="1" type="qcurve" smooth="yes"/>
      <point x="758" y="46"/>
      <point x="758" y="166" type="qcurve" smooth="yes"/>
      <point x="758" y="300"/>
      <point x="876" y="481" type="qcurve" smooth="yes"/>
      <point x="1008" y="684"/>
      <point x="1157" y="684" type="qcurve" smooth="yes"/>
      <point x="1254" y="684"/>
      <point x="1320" y="600" type="qcurve" smooth="yes"/>
      <point x="1363" y="545"/>
    </contour>
  </outline>
</glyph>
<glyph name="u064B" format="2">
  <advance width="0"/>
  <unicode hex="064B"/>
  <outline>
    <contour>
      <point x="476" y="1484" type="line"/>
      <point x="85" y="1346" type="line"/>
      <point x="85" y="1452" type="line"/>
      <point x="476" y="1589" type="line"/>
    </contour>
    <contour>
      <point x="476" y="1696" type="line"/>
      <point x="85" y="1557" type="line"/>
      <point x="85" y="1663" type="line"/>
      <point x="476" y="1800" type="line"/>
    </contour>
  </outline>
</glyph>
<glyph name="u064C" format="2">
  <advance width="0"/>
  <unicode hex="064C"/>
  <outline>
    <contour>
      <point x="502" y="1630" type="qcurve" smooth="yes"/>
      <point x="502" y="1542"/>
      <point x="436" y="1501" type="qcurve"/>
      <point x="453" y="1479"/>
      <point x="480" y="1472" type="qcurve"/>
      <point x="421" y="1385" type="line"/>
      <point x="379" y="1392"/>
      <point x="333" y="1427" type="qcurve"/>
      <point x="203" y="1362"/>
      <point x="143" y="1362" type="qcurve" smooth="yes"/>
      <point x="126" y="1362"/>
      <point x="74" y="1411" type="qcurve" smooth="yes"/>
      <point x="63" y="1421"/>
      <point x="63" y="1426" type="qcurve"/>
      <point x="75" y="1430"/>
      <point x="126" y="1442" type="qcurve" smooth="yes"/>
      <point x="143" y="1446"/>
      <point x="149" y="1469" type="qcurve" smooth="yes"/>
      <point x="163" y="1518"/>
      <point x="121" y="1518" type="qcurve" smooth="yes"/>
      <point x="92" y="1518"/>
      <point x="72" y="1497" type="qcurve"/>
      <point x="37" y="1531" type="line"/>
      <point x="78" y="1577"/>
      <point x="120" y="1577" type="qcurve" smooth="yes"/>
      <point x="186" y="1577"/>
      <point x="203" y="1533" type="qcurve" smooth="yes"/>
      <point x="217" y="1495"/>
      <point x="188" y="1457" type="qcurve"/>
      <point x="240" y="1468"/>
      <point x="275" y="1487" type="qcurve"/>
      <point x="252" y="1522"/>
      <point x="252" y="1557" type="qcurve" smooth="yes"/>
      <point x="252" y="1622"/>
      <point x="325" y="1680" type="qcurve" smooth="yes"/>
      <point x="386" y="1728"/>
      <point x="420" y="1728" type="qcurve" smooth="yes"/>
      <point x="454" y="1728"/>
      <point x="502" y="1665"/>
    </contour>
    <contour>
      <point x="419" y="1598" type="qcurve" smooth="yes"/>
      <point x="419" y="1645"/>
      <point x="384" y="1645" type="qcurve" smooth="yes"/>
      <point x="368" y="1645"/>
      <point x="338" y="1609"/>
      <point x="338" y="1593" type="qcurve" smooth="yes"/>
      <point x="338" y="1554"/>
      <point x="375" y="1533" type="qcurve"/>
      <point x="419" y="1561"/>
    </contour>
  </outline>
</glyph>
<glyph name="u064D" format="2">
  <advance width="0"/>
  <unicode hex="064D"/>
  <outline>
    <contour>
      <point x="480" y="-982" type="line"/>
      <point x="89" y="-1120" type="line"/>
      <point x="89" y="-1015" type="line"/>
      <point x="480" y="-877" type="line"/>
    </contour>
    <contour>
      <point x="480" y="-771" type="line"/>
      <point x="89" y="-909" type="line"/>
      <point x="89" y="-803" type="line"/>
      <point x="480" y="-666" type="line"/>
    </contour>
  </outline>
</glyph>
<glyph name="u064E" format="2">
  <advance width="0"/>
  <unicode hex="064E"/>
  <outline>
    <contour>
      <point x="476" y="1484" type="line"/>
      <point x="85" y="1346" type="line"/>
      <point x="85" y="1452" type="line"/>
      <point x="476" y="1589" type="line"/>
    </contour>
  </outline>
</glyph>
<glyph name="u064F" format="2">
  <advance width="0"/>
  <unicode hex="064F"/>
  <outline>
    <contour>
      <point x="502" y="1630" type="qcurve" smooth="yes"/>
      <point x="502" y="1542"/>
      <point x="436" y="1501" type="qcurve"/>
      <point x="453" y="1479"/>
      <point x="480" y="1472" type="qcurve"/>
      <point x="421" y="1385" type="line"/>
      <point x="379" y="1392"/>
      <point x="333" y="1427" type="qcurve"/>
      <point x="192" y="1357"/>
      <point x="148" y="1357" type="qcurve" smooth="yes"/>
      <point x="124" y="1357"/>
      <point x="62" y="1416" type="qcurve" smooth="yes"/>
      <point x="49" y="1428"/>
      <point x="49" y="1434" type="qcurve" smooth="yes"/>
      <point x="49" y="1443"/>
      <point x="88" y="1445" type="qcurve" smooth="yes"/>
      <point x="210" y="1453"/>
      <point x="275" y="1487" type="qcurve"/>
      <point x="252" y="1522"/>
      <point x="252" y="1557" type="qcurve" smooth="yes"/>
      <point x="252" y="1622"/>
      <point x="325" y="1680" type="qcurve" smooth="yes"/>
      <point x="386" y="1728"/>
      <point x="420" y="1728" type="qcurve" smooth="yes"/>
      <point x="454" y="1728"/>
      <point x="502" y="1665"/>
    </contour>
    <contour>
      <point x="419" y="1598" type="qcurve" smooth="yes"/>
      <point x="419" y="1645"/>
      <point x="384" y="1645" type="qcurve" smooth="yes"/>
      <point x="368" y="1645"/>
      <point x="338" y="1609"/>
      <point x="338" y="1593" type="qcurve" smooth="yes"/>
      <point x="338" y="1557"/>
      <point x="377" y="1535" type="qcurve"/>
      <point x="419" y="1568"/>
    </contour>
  </outline>
</glyph>
<glyph name="u0650" format="2">
  <advance width="0"/>
  <unicode hex="0650"/>
  <outline>
    <contour>
      <point x="466" y="-775" type="line"/>
      <point x="75" y="-913" type="line"/>
      <point x="75" y="-808" type="line"/>
      <point x="466" y="-670" type="line"/>
    </contour>
  </outline>
</glyph>
<glyph name="u0651" format="2">
  <advance width="0"/>
  <unicode hex="0651"/>
  <outline>
    <contour>
      <point x="484" y="1557" type="qcurve" smooth="yes"/>
      <point x="484" y="1498"/>
      <point x="459" y="1454" type="qcurve" smooth="yes"/>
      <point x="429" y="1401"/>
      <point x="374" y="1401" type="qcurve" smooth="yes"/>
      <point x="315" y="1401"/>
      <point x="282" y="1430" type="qcurve"/>
      <point x="224" y="1348"/>
      <point x="164" y="1348" type="qcurve" smooth="yes"/>
      <point x="70" y="1348"/>
      <point x="70" y="1471" type="qcurve" smooth="yes"/>
      <point x="70" y="1511"/>
      <point x="81" y="1547" type="qcurve" smooth="yes"/>
      <point x="97" y="1599"/>
      <point x="127" y="1599" type="qcurve" smooth="yes"/>
      <point x="138" y="1599"/>
      <point x="141" y="1534" type="qcurve" smooth="yes"/>
      <point x="143" y="1475"/>
      <point x="190" y="1475" type="qcurve" smooth="yes"/>
      <point x="229" y="1475"/>
      <point x="258" y="1631"/>
      <point x="271" y="1631" type="qcurve" smooth="yes"/>
      <point x="288" y="1631"/>
      <point x="328" y="1514"/>
      <point x="367" y="1514" type="qcurve" smooth="yes"/>
      <point x="413" y="1514"/>
      <point x="413" y="1565" type="qcurve" smooth="yes"/>
      <point x="413" y="1585"/>
      <point x="402" y="1643" type="qcurve"/>
      <point x="464" y="1682" type="line"/>
      <point x="484" y="1641"/>
    </contour>
  </outline>
</glyph>
<glyph name="u0652" format="2">
  <advance width="0"/>
  <unicode hex="0652"/>
  <outline>
    <contour>
      <point x="410" y="1521" type="qcurve" smooth="yes"/>
      <point x="410" y="1448"/>
      <point x="375" y="1402" type="qcurve" smooth="yes"/>
      <point x="336" y="1350"/>
      <point x="266" y="1350" type="qcurve" smooth="yes"/>
      <point x="212" y="1350"/>
      <point x="139" y="1415"/>
      <point x="139" y="1468" type="qcurve" smooth="yes"/>
      <point x="139" y="1522"/>
      <point x="167" y="1592" type="qcurve" smooth="yes"/>
      <point x="202" y="1680"/>
      <point x="252" y="1680" type="qcurve" smooth="yes"/>
      <point x="303" y="1680"/>
      <point x="351" y="1642" type="qcurve" smooth="yes"/>
      <point x="410" y="1596"/>
    </contour>
    <contour>
      <point x="354" y="1497" type="qcurve" smooth="yes"/>
      <point x="354" y="1528"/>
      <point x="278" y="1586"/>
      <point x="245" y="1586" type="qcurve" smooth="yes"/>
      <point x="196" y="1586"/>
      <point x="196" y="1518" type="qcurve" smooth="yes"/>
      <point x="196" y="1461"/>
      <point x="282" y="1461" type="qcurve" smooth="yes"/>
      <point x="354" y="1461"/>
    </contour>
  </outline>
</glyph>
<glyph name="u067E" format="2">
  <advance width="1547"/>
  <unicode hex="067E"/>
  <unicode hex="FB56"/>
  <outline>
    <contour>
      <point x="1545" y="402" type="qcurve" smooth="yes"/>
      <point x="1545" y="186"/>
      <point x="1402" y="90" type="qcurve" smooth="yes"/>
      <point x="1242" y="-18"/>
      <point x="765" y="-18" type="qcurve" smooth="yes"/>
      <point x="506" y="-18"/>
      <point x="373" y="41" type="qcurve" smooth="yes"/>
      <point x="177" y="128"/>
      <point x="177" y="351" type="qcurve" smooth="yes"/>
      <point x="177" y="450"/>
      <point x="229" y="545" type="qcurve" smooth="yes"/>
      <point x="276" y="630"/>
      <point x="307" y="630" type="qcurve" smooth="yes"/>
      <point x="345" y="630"/>
      <point x="345" y="588" type="qcurve" smooth="yes"/>
      <point x="345" y="571"/>
      <point x="314" y="480"/>
      <point x="314" y="455" type="qcurve" smooth="yes"/>
      <point x="314" y="297"/>
      <point x="489" y="254" type="qcurve" smooth="yes"/>
      <point x="567" y="235"/>
      <point x="818" y="235" type="qcurve" smooth="yes"/>
      <point x="1403" y="235"/>
      <point x="1403" y="333" type="qcurve" smooth="yes"/>
      <point x="1403" y="351"/>
      <point x="1352" y="417" type="qcurve" smooth="yes"/>
      <point x="1309" y="473"/>
      <point x="1284" y="498" type="qcurve"/>
      <point x="1415" y="663" type="line" smooth="yes"/>
      <point x="1426" y="677"/>
      <point x="1429" y="678" type="qcurve" smooth="yes"/>
      <point x="1434" y="679"/>
      <point x="1445" y="666" type="qcurve" smooth="yes"/>
      <point x="1545" y="545"/>
    </contour>
    <contour>
      <point x="1113" y="-230" type="line"/>
      <point x="991" y="-352" type="line"/>
      <point x="869" y="-230" type="line"/>
      <point x="991" y="-107" type="line"/>
    </contour>
    <contour>
      <point x="840" y="-230" type="line"/>
      <point x="718" y="-352" type="line"/>
      <point x="595" y="-230" type="line"/>
      <point x="718" y="-107" type="line"/>
    </contour>
    <contour>
      <point x="980" y="-433" type="line"/>
      <point x="857" y="-555" type="line"/>
      <point x="735" y="-433" type="line"/>
      <point x="857" y="-310" type="line"/>
    </contour>
  </outline>
</glyph>
<glyph name="u06AF" format="2">
  <advance width="1736"/>
  <unicode hex="06AF"/>
  <unicode hex="FB92"/>
  <outline>
    <contour>
      <point x="1767" y="1305" type="qcurve"/>
      <point x="1746" y="1197" type="line"/>
      <point x="1459" y="1129"/>
      <point x="1138" y="1033" type="qcurve"/>
      <point x="1172" y="1145" type="line"/>
      <point x="1442" y="1229"/>
    </contour>
    <contour>
      <point x="1807" y="1107" type="qcurve"/>
      <point x="1747" y="891" type="line"/>
      <point x="1467" y="847"/>
      <point x="1231" y="778" type="qcurve"/>
      <point x="1327" y="706"/>
      <point x="1398" y="604" type="qcurve" smooth="yes"/>
      <point x="1479" y="487"/>
      <point x="1479" y="388" type="qcurve" smooth="yes"/>
      <point x="1479" y="169"/>
      <point x="1336" y="62" type="qcurve" smooth="yes"/>
      <point x="1285" y="24"/>
      <point x="1085" y="1" type="qcurve" smooth="yes"/>
      <point x="920" y="-18"/>
      <point x="765" y="-18" type="qcurve" smooth="yes"/>
      <point x="486" y="-18"/>
      <point x="365" y="34" type="qcurve" smooth="yes"/>
      <point x="177" y="115"/>
      <point x="177" y="351" type="qcurve" smooth="yes"/>
      <point x="177" y="450"/>
      <point x="229" y="545" type="qcurve" smooth="yes"/>
      <point x="276" y="630"/>
      <point x="307" y="630" type="qcurve" smooth="yes"/>
      <point x="345" y="630"/>
      <point x="345" y="588" type="qcurve" smooth="yes"/>
      <point x="345" y="571"/>
      <point x="314" y="480"/>
      <point x="314" y="455" type="qcurve" smooth="yes"/>
      <point x="314" y="295"/>
      <point x="469" y="254" type="qcurve" smooth="yes"/>
      <point x="541" y="235"/>
      <point x="818" y="235" type="qcurve" smooth="yes"/>
      <point x="1153" y="235"/>
      <point x="1273" y="262" type="qcurve" smooth="yes"/>
      <point x="1363" y="282"/>
      <point x="1363" y="333" type="qcurve" smooth="yes"/>
      <point x="1363" y="397"/>
      <point x="1240" y="517" type="qcurve" smooth="yes"/>
      <point x="1135" y="620"/>
      <point x="1032" y="684" type="qcurve"/>
      <point x="1075" y="912" type="line"/>
      <point x="1280" y="989"/>
    </contour>
  </outline>
</glyph>
<glyph name="lefttoright" format="2">
  <advance width="37"/>
  <unicode hex="200E"/>
  <outline>
    <contour>
      <point x="243" y="1294" type="line"/>
      <point x="135" y="1184" type="line"/>
      <point x="108" y="1207" type="line"/>
      <point x="179" y="1278" type="line"/>
      <point x="37" y="1278" type="line"/>
      <point x="37" y="0" type="line"/>
      <point x="0" y="0" type="line"/>
      <point x="0" y="1312" type="line"/>
      <point x="174" y="1312" type="line"/>
      <point x="108" y="1379" type="line"/>
      <point x="135" y="1404" type="line"/>
    </contour>
  </outline>
</glyph>
<glyph name="righttoleft" format="2">
  <advance width="37"/>
  <unicode hex="200F"/>
  <outline>
    <contour>
      <point x="37" y="0" type="line"/>
      <point x="0" y="0" type="line"/>
      <point x="0" y="1278" type="line"/>
      <point x="-142" y="1278" type="line"/>
      <point x="-73" y="1207" type="line"/>
      <point x="-96" y="1184" type="line"/>
      <point x="-209" y="1294" type="line"/>
      <point x="-96" y="1404" type="line"/>
      <point x="-73" y="1379" type="line"/>
      <point x="-140" y="1312" type="line"/>
      <point x="37" y="1312" type="line"/>
    </contour>
  </outline>
</glyph>
<glyph name="quoteleft" format="2">
  <advance width="491"/>
  <unicode hex="2018"/>
  <outline>
    <contour>
      <point x="467" y="1486" type="line"/>
      <point x="378" y="1427"/>
      <point x="313" y="1341" type="qcurve" smooth="yes"/>
      <point x="237" y="1240"/>
      <point x="237" y="1148" type="qcurve" smooth="yes"/>
      <point x="237" y="1093"/>
      <point x="269" y="1050" type="qcurve"/>
      <point x="308" y="1097"/>
      <point x="359" y="1097" type="qcurve" smooth="yes"/>
      <point x="461" y="1097"/>
      <point x="461" y="997" type="qcurve" smooth="yes"/>
      <point x="461" y="938"/>
      <point x="413" y="905" type="qcurve" smooth="yes"/>
      <point x="370" y="875"/>
      <point x="309" y="875" type="qcurve" smooth="yes"/>
      <point x="227" y="875"/>
      <point x="125" y="976"/>
      <point x="125" y="1058" type="qcurve" smooth="yes"/>
      <point x="125" y="1199"/>
      <point x="233" y="1341" type="qcurve" smooth="yes"/>
      <point x="330" y="1468"/>
      <point x="467" y="1541" type="qcurve"/>
    </contour>
  </outline>
</glyph>
<glyph name="quoteright" format="2">
  <advance width="491"/>
  <unicode hex="2019"/>
  <outline>
    <contour>
      <point x="444" y="1353" type="qcurve" smooth="yes"/>
      <point x="444" y="1210"/>
      <point x="337" y="1072" type="qcurve" smooth="yes"/>
      <point x="246" y="954"/>
      <point x="105" y="872" type="qcurve"/>
      <point x="105" y="928" type="line"/>
      <point x="333" y="1090"/>
      <point x="333" y="1266" type="qcurve" smooth="yes"/>
      <point x="333" y="1328"/>
      <point x="300" y="1367" type="qcurve"/>
      <point x="267" y="1318"/>
      <point x="205" y="1318" type="qcurve" smooth="yes"/>
      <point x="164" y="1318"/>
      <point x="107" y="1374"/>
      <point x="107" y="1415" type="qcurve" smooth="yes"/>
      <point x="107" y="1473"/>
      <point x="156" y="1508" type="qcurve" smooth="yes"/>
      <point x="199" y="1539"/>
      <point x="260" y="1539" type="qcurve" smooth="yes"/>
      <point x="346" y="1539"/>
      <point x="444" y="1439"/>
    </contour>
  </outline>
</glyph>
<glyph name="quotedblleft" format="2">
  <advance width="650"/>
  <unicode hex="201C"/>
  <outline>
    <contour>
      <point x="572" y="1146" type="qcurve"/>
      <point x="559" y="1140"/>
      <point x="531" y="1120" type="qcurve"/>
      <point x="479" y="1069"/>
      <point x="479" y="1025" type="qcurve"/>
      <point x="561" y="1003"/>
      <point x="561" y="913" type="qcurve" smooth="yes"/>
      <point x="561" y="868"/>
      <point x="498" y="802"/>
      <point x="453" y="802" type="qcurve" smooth="yes"/>
      <point x="401" y="802"/>
      <point x="369" y="844" type="qcurve" smooth="yes"/>
      <point x="340" y="882"/>
      <point x="340" y="936" type="qcurve" smooth="yes"/>
      <point x="340" y="1137"/>
      <point x="543" y="1295" type="qcurve"/>
      <point x="543" y="1212"/>
      <point x="544" y="1202" type="qcurve" smooth="yes"/>
      <point x="548" y="1162"/>
    </contour>
    <contour>
      <point x="302" y="1146" type="qcurve"/>
      <point x="289" y="1140"/>
      <point x="261" y="1120" type="qcurve"/>
      <point x="209" y="1069"/>
      <point x="209" y="1025" type="qcurve"/>
      <point x="291" y="1003"/>
      <point x="291" y="913" type="qcurve" smooth="yes"/>
      <point x="291" y="868"/>
      <point x="228" y="802"/>
      <point x="183" y="802" type="qcurve" smooth="yes"/>
      <point x="131" y="802"/>
      <point x="99" y="844" type="qcurve" smooth="yes"/>
      <point x="70" y="882"/>
      <point x="70" y="936" type="qcurve" smooth="yes"/>
      <point x="70" y="1137"/>
      <point x="273" y="1295" type="qcurve"/>
      <point x="273" y="1212"/>
      <point x="274" y="1202" type="qcurve" smooth="yes"/>
      <point x="278" y="1162"/>
    </contour>
  </outline>
</glyph>
<glyph name="quotedblright" format="2">
  <advance width="650"/>
  <unicode hex="201D"/>
  <outline>
    <contour>
      <point x="580" y="1151" type="qcurve" smooth="yes"/>
      <point x="580" y="950"/>
      <point x="377" y="792" type="qcurve"/>
      <point x="377" y="875"/>
      <point x="376" y="885" type="qcurve" smooth="yes"/>
      <point x="372" y="925"/>
      <point x="348" y="941" type="qcurve"/>
      <point x="361" y="947"/>
      <point x="389" y="967" type="qcurve"/>
      <point x="441" y="1018"/>
      <point x="441" y="1062" type="qcurve"/>
      <point x="359" y="1084"/>
      <point x="359" y="1174" type="qcurve" smooth="yes"/>
      <point x="359" y="1220"/>
      <point x="421" y="1285"/>
      <point x="467" y="1285" type="qcurve" smooth="yes"/>
      <point x="521" y="1285"/>
      <point x="552" y="1244" type="qcurve" smooth="yes"/>
      <point x="580" y="1207"/>
    </contour>
    <contour>
      <point x="310" y="1151" type="qcurve" smooth="yes"/>
      <point x="310" y="950"/>
      <point x="107" y="792" type="qcurve"/>
      <point x="107" y="875"/>
      <point x="106" y="885" type="qcurve" smooth="yes"/>
      <point x="102" y="925"/>
      <point x="78" y="941" type="qcurve"/>
      <point x="91" y="947"/>
      <point x="119" y="967" type="qcurve"/>
      <point x="171" y="1018"/>
      <point x="171" y="1062" type="qcurve"/>
      <point x="89" y="1084"/>
      <point x="89" y="1174" type="qcurve" smooth="yes"/>
      <point x="89" y="1220"/>
      <point x="151" y="1285"/>
      <point x="197" y="1285" type="qcurve" smooth="yes"/>
      <point x="251" y="1285"/>
      <point x="282" y="1244" type="qcurve" smooth="yes"/>
      <point x="310" y="1207"/>
    </contour>
  </outline>
</glyph>
<glyph name="guilsinglleft" format="2">
  <advance width="512"/>
  <unicode hex="2039"/>
  <outline>
    <contour>
      <point x="457" y="966" type="line"/>
      <point x="229" y="584" type="line"/>
      <point x="451" y="204" type="line"/>
      <point x="451" y="129" type="line"/>
      <point x="68" y="584" type="line"/>
      <point x="457" y="1041" type="line"/>
    </contour>
  </outline>
</glyph>
<glyph name="guilsinglright" format="2">
  <advance width="512"/>
  <unicode hex="203A"/>
  <outline>
    <contour>
      <point x="457" y="586" type="line"/>
      <point x="64" y="129" type="line"/>
      <point x="64" y="204" type="line"/>
      <point x="295" y="586" type="line"/>
      <point x="73" y="967" type="line"/>
      <point x="73" y="1044" type="line"/>
    </contour>
  </outline>
</glyph>
<glyph name="uE829" format="2">
  <advance width="0"/>
  <unicode hex="E829"/>
  <outline>
    <contour>
      <point x="434" y="1525" type="qcurve" smooth="yes"/>
      <point x="434" y="1437"/>
      <point x="368" y="1395" type="qcurve"/>
      <point x="385" y="1374"/>
      <point x="412" y="1366" type="qcurve"/>
      <point x="353" y="1279" type="line"/>
      <point x="311" y="1287"/>
      <point x="265" y="1321" type="qcurve"/>
      <point x="124" y="1251"/>
      <point x="80" y="1251" type="qcurve" smooth="yes"/>
      <point x="57" y="1251"/>
      <point x="-6" y="1311" type="qcurve" smooth="yes"/>
      <point x="-19" y="1323"/>
      <point x="-19" y="1328" type="qcurve" smooth="yes"/>
      <point x="-19" y="1337"/>
      <point x="20" y="1339" type="qcurve" smooth="yes"/>
      <point x="142" y="1346"/>
      <point x="207" y="1381" type="qcurve"/>
      <point x="184" y="1416"/>
      <point x="184" y="1452" type="qcurve" smooth="yes"/>
      <point x="184" y="1518"/>
      <point x="256" y="1575" type="qcurve" smooth="yes"/>
      <point x="317" y="1623"/>
      <point x="352" y="1623" type="qcurve" smooth="yes"/>
      <point x="386" y="1623"/>
      <point x="434" y="1560"/>
    </contour>
    <contour>
      <point x="351" y="1492" type="qcurve" smooth="yes"/>
      <point x="351" y="1540"/>
      <point x="316" y="1540" type="qcurve" smooth="yes"/>
      <point x="301" y="1540"/>
      <point x="270" y="1503"/>
      <point x="270" y="1488" type="qcurve" smooth="yes"/>
      <point x="270" y="1452"/>
      <point x="309" y="1430" type="qcurve"/>
      <point x="351" y="1462"/>
    </contour>
    <contour>
      <point x="416" y="1117" type="qcurve" smooth="yes"/>
      <point x="416" y="1056"/>
      <point x="392" y="1013" type="qcurve" smooth="yes"/>
      <point x="363" y="960"/>
      <point x="306" y="960" type="qcurve" smooth="yes"/>
      <point x="247" y="960"/>
      <point x="214" y="989" type="qcurve"/>
      <point x="156" y="907"/>
      <point x="96" y="907" type="qcurve" smooth="yes"/>
      <point x="2" y="907"/>
      <point x="2" y="1031" type="qcurve" smooth="yes"/>
      <point x="2" y="1158"/>
      <point x="59" y="1158" type="qcurve" smooth="yes"/>
      <point x="70" y="1158"/>
      <point x="73" y="1094" type="qcurve" smooth="yes"/>
      <point x="75" y="1034"/>
      <point x="122" y="1034" type="qcurve" smooth="yes"/>
      <point x="161" y="1034"/>
      <point x="190" y="1191"/>
      <point x="203" y="1191" type="qcurve" smooth="yes"/>
      <point x="220" y="1191"/>
      <point x="260" y="1074"/>
      <point x="299" y="1074" type="qcurve" smooth="yes"/>
      <point x="345" y="1074"/>
      <point x="345" y="1125" type="qcurve" smooth="yes"/>
      <point x="345" y="1145"/>
      <point x="334" y="1202" type="qcurve"/>
      <point x="396" y="1241" type="line"/>
      <point x="416" y="1201"/>
    </contour>
  </outline>
</glyph>
<glyph name="uE82A" format="2">
  <advance width="0"/>
  <unicode hex="E82A"/>
  <outline>
    <contour>
      <point x="416" y="1117" type="qcurve" smooth="yes"/>
      <point x="416" y="1056"/>
      <point x="392" y="1013" type="qcurve" smooth="yes"/>
      <point x="363" y="960"/>
      <point x="306" y="960" type="qcurve" smooth="yes"/>
      <point x="247" y="960"/>
      <point x="214" y="989" type="qcurve"/>
      <point x="156" y="907"/>
      <point x="96" y="907" type="qcurve" smooth="yes"/>
      <point x="2" y="907"/>
      <point x="2" y="1031" type="qcurve" smooth="yes"/>
      <point x="2" y="1158"/>
      <point x="59" y="1158" type="qcurve" smooth="yes"/>
      <point x="70" y="1158"/>
      <point x="73" y="1094" type="qcurve" smooth="yes"/>
      <point x="75" y="1034"/>
      <point x="122" y="1034" type="qcurve" smooth="yes"/>
      <point x="161" y="1034"/>
      <point x="190" y="1191"/>
      <point x="203" y="1191" type="qcurve" smooth="yes"/>
      <point x="220" y="1191"/>
      <point x="260" y="1074"/>
      <point x="299" y="1074" type="qcurve" smooth="yes"/>
      <point x="345" y="1074"/>
      <point x="345" y="1125" type="qcurve" smooth="yes"/>
      <point x="345" y="1145"/>
      <point x="334" y="1202" type="qcurve"/>
      <point x="396" y="1241" type="line"/>
      <point x="416" y="1201"/>
    </contour>
    <contour>
      <point x="408" y="1343" type="line"/>
      <point x="16" y="1205" type="line"/>
      <point x="16" y="1311" type="line"/>
      <point x="408" y="1448" type="line"/>
    </contour>
    <contour>
      <point x="408" y="1555" type="line"/>
      <point x="16" y="1416" type="line"/>
      <point x="16" y="1522" type="line"/>
      <point x="408" y="1660" type="line"/>
    </contour>
  </outline>
</glyph>
<glyph name="uE82C" format="2">
  <advance width="0"/>
  <unicode hex="E82C"/>
  <outline>
    <contour>
      <point x="628" y="1044" type="line"/>
      <point x="236" y="906" type="line"/>
      <point x="236" y="1011" type="line"/>
      <point x="628" y="1149" type="line"/>
    </contour>
    <contour>
      <point x="639" y="1357" type="qcurve" smooth="yes"/>
      <point x="639" y="1298"/>
      <point x="614" y="1254" type="qcurve" smooth="yes"/>
      <point x="584" y="1201"/>
      <point x="529" y="1201" type="qcurve" smooth="yes"/>
      <point x="470" y="1201"/>
      <point x="436" y="1230" type="qcurve"/>
      <point x="378" y="1148"/>
      <point x="318" y="1148" type="qcurve" smooth="yes"/>
      <point x="224" y="1148"/>
      <point x="224" y="1271" type="qcurve" smooth="yes"/>
      <point x="224" y="1310"/>
      <point x="235" y="1347" type="qcurve" smooth="yes"/>
      <point x="251" y="1399"/>
      <point x="281" y="1399" type="qcurve" smooth="yes"/>
      <point x="292" y="1399"/>
      <point x="295" y="1334" type="qcurve" smooth="yes"/>
      <point x="297" y="1275"/>
      <point x="345" y="1275" type="qcurve" smooth="yes"/>
      <point x="384" y="1275"/>
      <point x="413" y="1431"/>
      <point x="426" y="1431" type="qcurve" smooth="yes"/>
      <point x="443" y="1431"/>
      <point x="483" y="1314"/>
      <point x="522" y="1314" type="qcurve" smooth="yes"/>
      <point x="568" y="1314"/>
      <point x="568" y="1365" type="qcurve" smooth="yes"/>
      <point x="568" y="1385"/>
      <point x="556" y="1443" type="qcurve"/>
      <point x="619" y="1482" type="line"/>
      <point x="639" y="1441"/>
    </contour>
  </outline>
</glyph>
<glyph name="uE82D" format="2">
  <advance width="0"/>
  <unicode hex="E82D"/>
  <outline>
    <contour>
      <point x="388" y="1237" type="line"/>
      <point x="-4" y="1099" type="line"/>
      <point x="-4" y="1204" type="line"/>
      <point x="388" y="1342" type="line"/>
    </contour>
    <contour>
      <point x="399" y="1550" type="qcurve" smooth="yes"/>
      <point x="399" y="1491"/>
      <point x="374" y="1447" type="qcurve" smooth="yes"/>
      <point x="344" y="1394"/>
      <point x="289" y="1394" type="qcurve" smooth="yes"/>
      <point x="230" y="1394"/>
      <point x="196" y="1423" type="qcurve"/>
      <point x="138" y="1341"/>
      <point x="78" y="1341" type="qcurve" smooth="yes"/>
      <point x="-16" y="1341"/>
      <point x="-16" y="1464" type="qcurve" smooth="yes"/>
      <point x="-16" y="1503"/>
      <point x="-5" y="1540" type="qcurve" smooth="yes"/>
      <point x="11" y="1592"/>
      <point x="41" y="1592" type="qcurve" smooth="yes"/>
      <point x="52" y="1592"/>
      <point x="55" y="1527" type="qcurve" smooth="yes"/>
      <point x="57" y="1468"/>
      <point x="105" y="1468" type="qcurve" smooth="yes"/>
      <point x="144" y="1468"/>
      <point x="173" y="1624"/>
      <point x="186" y="1624" type="qcurve" smooth="yes"/>
      <point x="203" y="1624"/>
      <point x="243" y="1507"/>
      <point x="282" y="1507" type="qcurve" smooth="yes"/>
      <point x="328" y="1507"/>
      <point x="328" y="1558" type="qcurve" smooth="yes"/>
      <point x="328" y="1578"/>
      <point x="316" y="1636" type="qcurve"/>
      <point x="379" y="1675" type="line"/>
      <point x="399" y="1634"/>
    </contour>
    <contour>
      <point x="388" y="1044" type="line"/>
      <point x="-4" y="906" type="line"/>
      <point x="-4" y="1011" type="line"/>
      <point x="388" y="1149" type="line"/>
    </contour>
  </outline>
</glyph>
<glyph name="uFB58" format="2">
  <advance width="537"/>
  <unicode hex="FB58"/>
  <outline>
    <contour>
      <point x="367" y="392" type="qcurve" smooth="yes"/>
      <point x="367" y="244"/>
      <point x="310" y="141" type="qcurve" smooth="yes"/>
      <point x="232" y="1"/>
      <point x="70" y="1" type="qcurve" smooth="yes"/>
      <point x="-26" y="1" type="line"/>
      <point x="-26" y="258" type="line"/>
      <point x="85" y="258" type="line" smooth="yes"/>
      <point x="229" y="258"/>
      <point x="229" y="312" type="qcurve" smooth="yes"/>
      <point x="229" y="359"/>
      <point x="117" y="482" type="qcurve" smooth="yes"/>
      <point x="104" y="496"/>
      <point x="117" y="514" type="qcurve" smooth="yes"/>
      <point x="234" y="677" type="line" smooth="yes"/>
      <point x="249" y="698"/>
      <point x="264" y="682" type="qcurve" smooth="yes"/>
      <point x="309" y="634"/>
      <point x="339" y="546" type="qcurve" smooth="yes"/>
      <point x="367" y="464"/>
    </contour>
    <contour>
      <point x="541" y="-230" type="line"/>
      <point x="418" y="-352" type="line"/>
      <point x="296" y="-230" type="line"/>
      <point x="418" y="-107" type="line"/>
    </contour>
    <contour>
      <point x="268" y="-230" type="line"/>
      <point x="145" y="-352" type="line"/>
      <point x="23" y="-230" type="line"/>
      <point x="145" y="-107" type="line"/>
    </contour>
    <contour>
      <point x="407" y="-433" type="line"/>
      <point x="285" y="-555" type="line"/>
      <point x="162" y="-433" type="line"/>
      <point x="285" y="-310" type="line"/>
    </contour>
  </outline>
</glyph>
<glyph name="uFB59" format="2">
  <advance width="715"/>
  <unicode hex="FB59"/>
  <outline>
    <contour>
      <point x="742" y="1" type="line"/>
      <point x="647" y="1" type="line" smooth="yes"/>
      <point x="570" y="1"/>
      <point x="427" y="82"/>
      <point x="388" y="148" type="qcurve"/>
      <point x="301" y="1"/>
      <point x="132" y="1" type="qcurve" smooth="yes"/>
      <point x="-26" y="1" type="line"/>
      <point x="-26" y="258" type="line"/>
      <point x="92" y="258" type="line" smooth="yes"/>
      <point x="238" y="258"/>
      <point x="294" y="323" type="qcurve" smooth="yes"/>
      <point x="323" y="356"/>
      <point x="339" y="444" type="qcurve" smooth="yes"/>
      <point x="351" y="509"/>
      <point x="388" y="509" type="qcurve" smooth="yes"/>
      <point x="424" y="509"/>
      <point x="435" y="444" type="qcurve" smooth="yes"/>
      <point x="450" y="356"/>
      <point x="473" y="323" type="qcurve" smooth="yes"/>
      <point x="519" y="258"/>
      <point x="639" y="258" type="qcurve" smooth="yes"/>
      <point x="742" y="258" type="line"/>
    </contour>
    <contour>
      <point x="611" y="-230" type="line"/>
      <point x="489" y="-352" type="line"/>
      <point x="366" y="-230" type="line"/>
      <point x="489" y="-107" type="line"/>
    </contour>
    <contour>
      <point x="338" y="-230" type="line"/>
      <point x="216" y="-352" type="line"/>
      <point x="93" y="-230" type="line"/>
      <point x="216" y="-107" type="line"/>
    </contour>
    <contour>
      <point x="477" y="-433" type="line"/>
      <point x="355" y="-555" type="line"/>
      <point x="233" y="-433" type="line"/>
      <point x="355" y="-310" type="line"/>
    </contour>
  </outline>
</glyph>
<glyph name="uFB8B" format="2">
  <advance width="928"/>
  <unicode hex="FB8B"/>
  <outline>
    <contour>
      <point x="954" y="1" type="line"/>
      <point x="910" y="1" type="line" smooth="yes"/>
      <point x="813" y="1"/>
      <point x="760" y="27" type="qcurve"/>
      <point x="760" y="-277"/>
      <point x="576" y="-455" type="qcurve" smooth="yes"/>
      <point x="520" y="-509"/>
      <point x="505" y="-509" type="qcurve" smooth="yes"/>
      <point x="238" y="-509"/>
      <point x="106" y="-458" type="qcurve" smooth="yes"/>
      <point x="80" y="-448"/>
      <point x="104" y="-439" type="qcurve" smooth="yes"/>
      <point x="285" y="-372"/>
      <point x="455" y="-244" type="qcurve" smooth="yes"/>
      <point x="645" y="-101"/>
      <point x="645" y="2" type="qcurve" smooth="yes"/>
      <point x="645" y="51"/>
      <point x="576" y="135" type="qcurve" smooth="yes"/>
      <point x="525" y="197"/>
      <point x="463" y="250" type="qcurve"/>
      <point x="568" y="462" type="line" smooth="yes"/>
      <point x="577" y="480"/>
      <point x="590" y="462" type="qcurve" smooth="yes"/>
      <point x="740" y="258"/>
      <point x="867" y="258" type="qcurve" smooth="yes"/>
      <point x="954" y="258" type="line"/>
    </contour>
    <contour>
      <point x="274" y="757" type="line"/>
      <point x="396" y="879" type="line"/>
      <point x="519" y="757" type="line"/>
      <point x="396" y="634" type="line"/>
    </contour>
    <contour>
      <point x="547" y="757" type="line"/>
      <point x="669" y="879" type="line"/>
      <point x="792" y="757" type="line"/>
      <point x="669" y="634" type="line"/>
    </contour>
    <contour>
      <point x="408" y="959" type="line"/>
      <point x="530" y="1082" type="line"/>
      <point x="653" y="959" type="line"/>
      <point x="530" y="837" type="line"/>
    </contour>
  </outline>
</glyph>
<glyph name="uFEDA" format="2">
  <advance width="2028"/>
  <unicode hex="FB8F"/>
  <unicode hex="FEDA"/>
  <outline>
    <contour>
      <point x="2052" y="1" type="line"/>
      <point x="1898" y="1" type="line" smooth="yes"/>
      <point x="1801" y="1"/>
      <point x="1693" y="92" type="qcurve" smooth="yes"/>
      <point x="1630" y="145"/>
      <point x="1474" y="320" type="qcurve"/>
      <point x="1467" y="160"/>
      <point x="1336" y="62" type="qcurve" smooth="yes"/>
      <point x="1285" y="24"/>
      <point x="1085" y="1" type="qcurve" smooth="yes"/>
      <point x="920" y="-18"/>
      <point x="765" y="-18" type="qcurve" smooth="yes"/>
      <point x="486" y="-18"/>
      <point x="365" y="34" type="qcurve" smooth="yes"/>
      <point x="177" y="115"/>
      <point x="177" y="351" type="qcurve" smooth="yes"/>
      <point x="177" y="450"/>
      <point x="229" y="545" type="qcurve" smooth="yes"/>
      <point x="276" y="630"/>
      <point x="307" y="630" type="qcurve" smooth="yes"/>
      <point x="345" y="630"/>
      <point x="345" y="588" type="qcurve" smooth="yes"/>
      <point x="345" y="571"/>
      <point x="314" y="480"/>
      <point x="314" y="455" type="qcurve" smooth="yes"/>
      <point x="314" y="295"/>
      <point x="469" y="254" type="qcurve" smooth="yes"/>
      <point x="541" y="235"/>
      <point x="818" y="235" type="qcurve" smooth="yes"/>
      <point x="1153" y="235"/>
      <point x="1273" y="262" type="qcurve" smooth="yes"/>
      <point x="1363" y="282"/>
      <point x="1363" y="333" type="qcurve" smooth="yes"/>
      <point x="1363" y="398"/>
      <point x="1240" y="533" type="qcurve" smooth="yes"/>
      <point x="1127" y="657"/>
      <point x="1031" y="717" type="qcurve"/>
      <point x="1080" y="975" type="line"/>
      <point x="1499" y="1142"/>
      <point x="1840" y="1253" type="qcurve"/>
      <point x="1788" y="1025" type="line"/>
      <point x="1611" y="969"/>
      <point x="1223" y="832" type="qcurve"/>
      <point x="1377" y="685"/>
      <point x="1555" y="497" type="qcurve" smooth="yes"/>
      <point x="1691" y="353"/>
      <point x="1743" y="314" type="qcurve" smooth="yes"/>
      <point x="1817" y="258"/>
      <point x="1897" y="258" type="qcurve" smooth="yes"/>
      <point x="2052" y="258" type="line"/>
    </contour>
  </outline>
</glyph>
<glyph name="uFEDB" format="2">
  <advance width="777"/>
  <unicode hex="FB90"/>
  <unicode hex="FEDB"/>
  <outline>
    <contour>
      <point x="826" y="1242" type="qcurve"/>
      <point x="784" y="1015" type="line"/>
      <point x="624" y="963"/>
      <point x="254" y="832" type="qcurve"/>
      <point x="378" y="708"/>
      <point x="433" y="624" type="qcurve" smooth="yes"/>
      <point x="510" y="506"/>
      <point x="510" y="388" type="qcurve" smooth="yes"/>
      <point x="510" y="1"/>
      <point x="88" y="1" type="qcurve" smooth="yes"/>
      <point x="-26" y="1" type="line"/>
      <point x="-26" y="258" type="line"/>
      <point x="51" y="258" type="line" smooth="yes"/>
      <point x="263" y="258"/>
      <point x="336" y="277" type="qcurve" smooth="yes"/>
      <point x="394" y="292"/>
      <point x="394" y="333" type="qcurve" smooth="yes"/>
      <point x="394" y="398"/>
      <point x="271" y="533" type="qcurve" smooth="yes"/>
      <point x="158" y="657"/>
      <point x="62" y="717" type="qcurve"/>
      <point x="111" y="975" type="line"/>
      <point x="338" y="1066"/>
    </contour>
  </outline>
</glyph>
<glyph name="uFEDC" format="2">
  <advance width="1083"/>
  <unicode hex="FB91"/>
  <unicode hex="FEDC"/>
  <outline>
    <contour>
      <point x="1110" y="1" type="line"/>
      <point x="929" y="1" type="line" smooth="yes"/>
      <point x="832" y="1"/>
      <point x="724" y="92" type="qcurve" smooth="yes"/>
      <point x="661" y="145"/>
      <point x="505" y="320" type="qcurve"/>
      <point x="490" y="1"/>
      <point x="131" y="1" type="qcurve" smooth="yes"/>
      <point x="-26" y="1" type="line"/>
      <point x="-26" y="258" type="line"/>
      <point x="97" y="258" type="line" smooth="yes"/>
      <point x="394" y="258"/>
      <point x="394" y="333" type="qcurve" smooth="yes"/>
      <point x="394" y="406"/>
      <point x="271" y="538" type="qcurve" smooth="yes"/>
      <point x="164" y="653"/>
      <point x="62" y="717" type="qcurve"/>
      <point x="111" y="975" type="line"/>
      <point x="530" y="1142"/>
      <point x="871" y="1253" type="qcurve"/>
      <point x="819" y="1025" type="line"/>
      <point x="642" y="969"/>
      <point x="254" y="832" type="qcurve"/>
      <point x="408" y="685"/>
      <point x="586" y="497" type="qcurve" smooth="yes"/>
      <point x="722" y="353"/>
      <point x="774" y="314" type="qcurve" smooth="yes"/>
      <point x="848" y="258"/>
      <point x="928" y="258" type="qcurve" smooth="yes"/>
      <point x="1110" y="258" type="line"/>
    </contour>
  </outline>
</glyph>
<glyph name="uFB93" format="2">
  <advance width="2028"/>
  <unicode hex="FB93"/>
  <outline>
    <contour>
      <point x="1808" y="1315" type="qcurve"/>
      <point x="1786" y="1208" type="line"/>
      <point x="1492" y="1147"/>
      <point x="1140" y="1037" type="qcurve"/>
      <point x="1174" y="1149" type="line"/>
      <point x="1418" y="1224"/>
    </contour>
    <contour>
      <point x="2053" y="1" type="line"/>
      <point x="1898" y="1" type="line" smooth="yes"/>
      <point x="1801" y="1"/>
      <point x="1693" y="92" type="qcurve" smooth="yes"/>
      <point x="1630" y="145"/>
      <point x="1474" y="320" type="qcurve"/>
      <point x="1466" y="153"/>
      <point x="1345" y="62" type="qcurve" smooth="yes"/>
      <point x="1297" y="26"/>
      <point x="1090" y="2" type="qcurve" smooth="yes"/>
      <point x="917" y="-18"/>
      <point x="765" y="-18" type="qcurve" smooth="yes"/>
      <point x="486" y="-18"/>
      <point x="365" y="34" type="qcurve" smooth="yes"/>
      <point x="177" y="115"/>
      <point x="177" y="351" type="qcurve" smooth="yes"/>
      <point x="177" y="450"/>
      <point x="229" y="545" type="qcurve" smooth="yes"/>
      <point x="276" y="630"/>
      <point x="307" y="630" type="qcurve" smooth="yes"/>
      <point x="345" y="630"/>
      <point x="345" y="588" type="qcurve" smooth="yes"/>
      <point x="345" y="571"/>
      <point x="314" y="480"/>
      <point x="314" y="455" type="qcurve" smooth="yes"/>
      <point x="314" y="295"/>
      <point x="469" y="254" type="qcurve" smooth="yes"/>
      <point x="541" y="235"/>
      <point x="818" y="235" type="qcurve" smooth="yes"/>
      <point x="1153" y="235"/>
      <point x="1273" y="262" type="qcurve" smooth="yes"/>
      <point x="1363" y="282"/>
      <point x="1363" y="333" type="qcurve" smooth="yes"/>
      <point x="1363" y="397"/>
      <point x="1240" y="518" type="qcurve" smooth="yes"/>
      <point x="1135" y="621"/>
      <point x="1031" y="687" type="qcurve"/>
      <point x="1080" y="922" type="line"/>
      <point x="1562" y="1067"/>
      <point x="1849" y="1115" type="qcurve"/>
      <point x="1783" y="898" type="line"/>
      <point x="1465" y="848"/>
      <point x="1223" y="782" type="qcurve"/>
      <point x="1378" y="652"/>
      <point x="1551" y="485" type="qcurve" smooth="yes"/>
      <point x="1692" y="349"/>
      <point x="1740" y="314" type="qcurve" smooth="yes"/>
      <point x="1817" y="258"/>
      <point x="1897" y="258" type="qcurve" smooth="yes"/>
      <point x="2053" y="258" type="line"/>
    </contour>
  </outline>
</glyph>
<glyph name="uFB94" format="2">
  <advance width="777"/>
  <unicode hex="FB94"/>
  <outline>
    <contour>
      <point x="798" y="1305" type="qcurve"/>
      <point x="777" y="1197" type="line"/>
      <point x="440" y="1115"/>
      <point x="169" y="1033" type="qcurve"/>
      <point x="203" y="1145" type="line"/>
      <point x="473" y="1229"/>
    </contour>
    <contour>
      <point x="838" y="1107" type="qcurve"/>
      <point x="778" y="891" type="line"/>
      <point x="498" y="847"/>
      <point x="262" y="778" type="qcurve"/>
      <point x="358" y="706"/>
      <point x="429" y="604" type="qcurve" smooth="yes"/>
      <point x="510" y="487"/>
      <point x="510" y="388" type="qcurve" smooth="yes"/>
      <point x="510" y="179"/>
      <point x="401" y="87" type="qcurve" smooth="yes"/>
      <point x="300" y="1"/>
      <point x="88" y="1" type="qcurve" smooth="yes"/>
      <point x="-26" y="1" type="line"/>
      <point x="-26" y="258" type="line"/>
      <point x="51" y="258" type="line" smooth="yes"/>
      <point x="263" y="258"/>
      <point x="336" y="277" type="qcurve" smooth="yes"/>
      <point x="394" y="292"/>
      <point x="394" y="333" type="qcurve" smooth="yes"/>
      <point x="394" y="397"/>
      <point x="272" y="517" type="qcurve" smooth="yes"/>
      <point x="169" y="618"/>
      <point x="63" y="684" type="qcurve"/>
      <point x="106" y="912" type="line"/>
      <point x="311" y="989"/>
    </contour>
  </outline>
</glyph>
<glyph name="uFB95" format="2">
  <advance width="1057"/>
  <unicode hex="FB95"/>
  <outline>
    <contour>
      <point x="839" y="1315" type="qcurve"/>
      <point x="817" y="1208" type="line"/>
      <point x="423" y="1111"/>
      <point x="171" y="1037" type="qcurve"/>
      <point x="205" y="1149" type="line"/>
      <point x="449" y="1224"/>
    </contour>
    <contour>
      <point x="1083" y="1" type="line"/>
      <point x="929" y="1" type="line" smooth="yes"/>
      <point x="832" y="1"/>
      <point x="724" y="92" type="qcurve" smooth="yes"/>
      <point x="661" y="145"/>
      <point x="505" y="320" type="qcurve"/>
      <point x="497" y="153"/>
      <point x="376" y="62" type="qcurve" smooth="yes"/>
      <point x="338" y="34"/>
      <point x="220" y="16" type="qcurve" smooth="yes"/>
      <point x="120" y="1"/>
      <point x="32" y="1" type="qcurve" smooth="yes"/>
      <point x="-27" y="1" type="line"/>
      <point x="-27" y="258" type="line"/>
      <point x="32" y="258" type="line" smooth="yes"/>
      <point x="394" y="258"/>
      <point x="394" y="333" type="qcurve" smooth="yes"/>
      <point x="394" y="397"/>
      <point x="271" y="518" type="qcurve" smooth="yes"/>
      <point x="166" y="621"/>
      <point x="62" y="687" type="qcurve"/>
      <point x="111" y="922" type="line"/>
      <point x="593" y="1067"/>
      <point x="880" y="1115" type="qcurve"/>
      <point x="814" y="898" type="line"/>
      <point x="496" y="848"/>
      <point x="254" y="782" type="qcurve"/>
      <point x="409" y="652"/>
      <point x="582" y="485" type="qcurve" smooth="yes"/>
      <point x="723" y="349"/>
      <point x="771" y="314" type="qcurve" smooth="yes"/>
      <point x="848" y="258"/>
      <point x="928" y="258" type="qcurve" smooth="yes"/>
      <point x="1083" y="258" type="line"/>
    </contour>
  </outline>
</glyph>
<glyph name="uFE94" format="2">
  <advance width="982"/>
  <unicode hex="FBA5"/>
  <unicode hex="FE94"/>
  <outline>
    <contour>
      <point x="1009" y="1" type="line"/>
      <point x="884" y="1" type="line" smooth="yes"/>
      <point x="723" y="1"/>
      <point x="650" y="243" type="qcurve"/>
      <point x="566" y="107" type="line"/>
      <point x="177" y="107"/>
      <point x="177" y="241" type="qcurve" smooth="yes"/>
      <point x="177" y="312"/>
      <point x="241" y="451" type="qcurve"/>
      <point x="354" y="561"/>
      <point x="551" y="640" type="qcurve"/>
      <point x="541" y="673"/>
      <point x="519" y="736" type="qcurve"/>
      <point x="659" y="897" type="line"/>
      <point x="677" y="857"/>
      <point x="750" y="463" type="qcurve" smooth="yes"/>
      <point x="775" y="327"/>
      <point x="819" y="285" type="qcurve" smooth="yes"/>
      <point x="847" y="258"/>
      <point x="913" y="258" type="qcurve" smooth="yes"/>
      <point x="1009" y="258" type="line"/>
    </contour>
    <contour>
      <point x="634" y="317" type="qcurve"/>
      <point x="615" y="384"/>
      <point x="580" y="516" type="qcurve"/>
      <point x="368" y="429"/>
      <point x="336" y="372" type="qcurve"/>
      <point x="371" y="317"/>
    </contour>
    <contour>
      <point x="679" y="1119" type="qcurve"/>
      <point x="683" y="1104"/>
      <point x="680" y="1069" type="qcurve" smooth="yes"/>
      <point x="677" y="1033"/>
      <point x="668" y="1022" type="qcurve"/>
      <point x="527" y="986"/>
      <point x="316" y="893" type="qcurve"/>
      <point x="315" y="967" type="line"/>
      <point x="349" y="985"/>
      <point x="409" y="1015" type="qcurve"/>
      <point x="383" y="1027"/>
      <point x="331" y="1095"/>
      <point x="331" y="1122" type="qcurve" smooth="yes"/>
      <point x="331" y="1180"/>
      <point x="468" y="1310"/>
      <point x="527" y="1310" type="qcurve" smooth="yes"/>
      <point x="556" y="1310"/>
      <point x="594" y="1287" type="qcurve" smooth="yes"/>
      <point x="636" y="1262"/>
      <point x="636" y="1235" type="qcurve" smooth="yes"/>
      <point x="636" y="1194"/>
      <point x="605" y="1194" type="qcurve" smooth="yes"/>
      <point x="593" y="1194"/>
      <point x="525" y="1221"/>
      <point x="505" y="1221" type="qcurve" smooth="yes"/>
      <point x="479" y="1221"/>
      <point x="453" y="1208" type="qcurve" smooth="yes"/>
      <point x="421" y="1193"/>
      <point x="421" y="1170" type="qcurve" smooth="yes"/>
      <point x="421" y="1135"/>
      <point x="491" y="1081"/>
      <point x="527" y="1081" type="qcurve" smooth="yes"/>
      <point x="556" y="1081"/>
      <point x="606" y="1097" type="qcurve" smooth="yes"/>
      <point x="672" y="1118"/>
    </contour>
  </outline>
</glyph>
<glyph name="uFEF3" format="2">
  <advance width="534"/>
  <unicode hex="FBFE"/>
  <unicode hex="FEF3"/>
  <outline>
    <contour>
      <point x="367" y="392" type="qcurve" smooth="yes"/>
      <point x="367" y="244"/>
      <point x="310" y="141" type="qcurve" smooth="yes"/>
      <point x="232" y="1"/>
      <point x="70" y="1" type="qcurve" smooth="yes"/>
      <point x="-26" y="1" type="line"/>
      <point x="-26" y="258" type="line"/>
      <point x="85" y="258" type="line" smooth="yes"/>
      <point x="229" y="258"/>
      <point x="229" y="312" type="qcurve" smooth="yes"/>
      <point x="229" y="359"/>
      <point x="117" y="482" type="qcurve" smooth="yes"/>
      <point x="104" y="496"/>
      <point x="117" y="514" type="qcurve" smooth="yes"/>
      <point x="234" y="677" type="line" smooth="yes"/>
      <point x="249" y="698"/>
      <point x="264" y="682" type="qcurve" smooth="yes"/>
      <point x="309" y="634"/>
      <point x="339" y="546" type="qcurve" smooth="yes"/>
      <point x="367" y="464"/>
    </contour>
    <contour>
      <point x="546" y="-299" type="line"/>
      <point x="424" y="-422" type="line"/>
      <point x="301" y="-299" type="line"/>
      <point x="424" y="-177" type="line"/>
    </contour>
    <contour>
      <point x="273" y="-299" type="line"/>
      <point x="151" y="-422" type="line"/>
      <point x="28" y="-299" type="line"/>
      <point x="151" y="-177" type="line"/>
    </contour>
  </outline>
</glyph>
<glyph name="uFEF4" format="2">
  <advance width="715"/>
  <unicode hex="FBFF"/>
  <unicode hex="FEF4"/>
  <outline>
    <contour>
      <point x="742" y="1" type="line"/>
      <point x="647" y="1" type="line" smooth="yes"/>
      <point x="570" y="1"/>
      <point x="427" y="82"/>
      <point x="388" y="148" type="qcurve"/>
      <point x="301" y="1"/>
      <point x="132" y="1" type="qcurve" smooth="yes"/>
      <point x="-26" y="1" type="line"/>
      <point x="-26" y="258" type="line"/>
      <point x="92" y="258" type="line" smooth="yes"/>
      <point x="238" y="258"/>
      <point x="294" y="323" type="qcurve" smooth="yes"/>
      <point x="323" y="356"/>
      <point x="339" y="444" type="qcurve" smooth="yes"/>
      <point x="351" y="509"/>
      <point x="388" y="509" type="qcurve" smooth="yes"/>
      <point x="424" y="509"/>
      <point x="435" y="444" type="qcurve" smooth="yes"/>
      <point x="450" y="356"/>
      <point x="473" y="323" type="qcurve" smooth="yes"/>
      <point x="519" y="258"/>
      <point x="639" y="258" type="qcurve" smooth="yes"/>
      <point x="742" y="258" type="line"/>
    </contour>
    <contour>
      <point x="590" y="-299" type="line"/>
      <point x="468" y="-422" type="line"/>
      <point x="345" y="-299" type="line"/>
      <point x="468" y="-177" type="line"/>
    </contour>
    <contour>
      <point x="317" y="-299" type="line"/>
      <point x="195" y="-422" type="line"/>
      <point x="72" y="-299" type="line"/>
      <point x="195" y="-177" type="line"/>
    </contour>
  </outline>
</glyph>
<glyph name="uFDF2" format="2">
  <advance width="1633"/>
  <unicode hex="FDF2"/>
  <outline>
    <contour>
      <point x="1081" y="1424" type="line"/>
      <point x="1104" y="1373"/>
      <point x="1104" y="1309" type="qcurve" smooth="yes"/>
      <point x="1104" y="1180"/>
      <point x="1042" y="1180" type="qcurve"/>
      <point x="1043" y="1195"/>
      <point x="1043" y="1210" type="qcurve" smooth="yes"/>
      <point x="1043" y="1293"/>
      <point x="1009" y="1359" type="qcurve"/>
    </contour>
    <contour>
      <point x="1252" y="1066" type="qcurve" smooth="yes"/>
      <point x="1252" y="1013"/>
      <point x="1229" y="973" type="qcurve" smooth="yes"/>
      <point x="1202" y="925"/>
      <point x="1152" y="925" type="qcurve" smooth="yes"/>
      <point x="1100" y="925"/>
      <point x="1069" y="951" type="qcurve"/>
      <point x="1018" y="877"/>
      <point x="963" y="877" type="qcurve" smooth="yes"/>
      <point x="878" y="877"/>
      <point x="878" y="988" type="qcurve" smooth="yes"/>
      <point x="878" y="1022"/>
      <point x="889" y="1056" type="qcurve" smooth="yes"/>
      <point x="904" y="1103"/>
      <point x="930" y="1103" type="qcurve" smooth="yes"/>
      <point x="940" y="1103"/>
      <point x="943" y="1042" type="qcurve" smooth="yes"/>
      <point x="945" y="992"/>
      <point x="987" y="992" type="qcurve" smooth="yes"/>
      <point x="1022" y="992"/>
      <point x="1048" y="1133"/>
      <point x="1060" y="1133" type="qcurve" smooth="yes"/>
      <point x="1075" y="1133"/>
      <point x="1111" y="1027"/>
      <point x="1146" y="1027" type="qcurve" smooth="yes"/>
      <point x="1187" y="1027"/>
      <point x="1187" y="1073" type="qcurve" smooth="yes"/>
      <point x="1187" y="1092"/>
      <point x="1177" y="1142" type="qcurve"/>
      <point x="1233" y="1178" type="line"/>
      <point x="1252" y="1142"/>
    </contour>
    <contour>
      <point x="1634" y="335" type="qcurve" smooth="yes"/>
      <point x="1634" y="134"/>
      <point x="1526" y="45" type="qcurve" smooth="yes"/>
      <point x="1453" y="-15"/>
      <point x="1348" y="-15" type="qcurve" smooth="yes"/>
      <point x="1167" y="-15"/>
      <point x="1097" y="137" type="qcurve"/>
      <point x="1050" y="-16"/>
      <point x="894" y="-16" type="qcurve" smooth="yes"/>
      <point x="760" y="-16"/>
      <point x="690" y="64" type="qcurve" smooth="yes"/>
      <point x="657" y="102"/>
      <point x="620" y="199" type="qcurve"/>
      <point x="591" y="146"/>
      <point x="537" y="84" type="qcurve"/>
      <point x="519" y="77"/>
      <point x="460" y="77" type="qcurve" smooth="yes"/>
      <point x="357" y="77"/>
      <point x="282" y="99" type="qcurve" smooth="yes"/>
      <point x="182" y="128"/>
      <point x="182" y="185" type="qcurve" smooth="yes"/>
      <point x="182" y="280"/>
      <point x="216" y="326" type="qcurve" smooth="yes"/>
      <point x="285" y="419"/>
      <point x="387" y="485" type="qcurve" smooth="yes"/>
      <point x="435" y="516"/>
      <point x="544" y="559" type="qcurve"/>
      <point x="532" y="662" type="line"/>
      <point x="650" y="758" type="line" smooth="yes"/>
      <point x="683" y="785"/>
      <point x="688" y="785" type="qcurve" smooth="yes"/>
      <point x="694" y="785"/>
      <point x="699" y="745" type="qcurve" smooth="yes"/>
      <point x="737" y="421"/>
      <point x="758" y="360" type="qcurve" smooth="yes"/>
      <point x="799" y="238"/>
      <point x="920" y="238" type="qcurve" smooth="yes"/>
      <point x="1015" y="238"/>
      <point x="1015" y="363" type="qcurve" smooth="yes"/>
      <point x="1015" y="376"/>
      <point x="1013" y="396" type="qcurve" smooth="yes"/>
      <point x="1000" y="526"/>
      <point x="966" y="780" type="qcurve"/>
      <point x="1154" y="890" type="line"/>
      <point x="1196" y="468"/>
      <point x="1218" y="381" type="qcurve" smooth="yes"/>
      <point x="1254" y="239"/>
      <point x="1353" y="239" type="qcurve" smooth="yes"/>
      <point x="1441" y="239"/>
      <point x="1441" y="368" type="qcurve" smooth="yes"/>
      <point x="1441" y="447"/>
      <point x="1360" y="842" type="qcurve"/>
      <point x="1523" y="972" type="line" smooth="yes"/>
      <point x="1535" y="985"/>
      <point x="1542" y="985" type="qcurve" smooth="yes"/>
      <point x="1552" y="985"/>
      <point x="1557" y="959" type="qcurve" smooth="yes"/>
      <point x="1634" y="518"/>
    </contour>
    <contour>
      <point x="595" y="289" type="qcurve"/>
      <point x="562" y="449" type="line"/>
      <point x="367" y="379"/>
      <point x="336" y="307" type="qcurve"/>
      <point x="345" y="283"/>
      <point x="461" y="283" type="qcurve" smooth="yes"/>
      <point x="523" y="283"/>
    </contour>
  </outline>
</glyph>
<glyph name="Hcircumflex" format="2">
  <advance width="669"/>
  <unicode hex="FE82"/>
  <outline>
    <contour>
      <point x="696" y="1" type="line"/>
      <point x="578" y="1" type="line" smooth="yes"/>
      <point x="479" y="1"/>
      <point x="409" y="67" type="qcurve" smooth="yes"/>
      <point x="316" y="155"/>
      <point x="316" y="336" type="qcurve" smooth="yes"/>
      <point x="316" y="455"/>
      <point x="301" y="707" type="qcurve" smooth="yes"/>
      <point x="284" y="992"/>
      <point x="268" y="1073" type="qcurve" smooth="yes"/>
      <point x="262" y="1101"/>
      <point x="272" y="1111" type="qcurve" smooth="yes"/>
      <point x="437" y="1245" type="line" smooth="yes"/>
      <point x="467" y="1269"/>
      <point x="472" y="1269" type="qcurve" smooth="yes"/>
      <point x="472" y="1269"/>
      <point x="473" y="1268" type="qcurve" smooth="yes"/>
      <point x="479" y="1267"/>
      <point x="479" y="1240" type="qcurve" smooth="yes"/>
      <point x="477" y="399" type="line" smooth="yes"/>
      <point x="477" y="257"/>
      <point x="636" y="257" type="qcurve" smooth="yes"/>
      <point x="696" y="257" type="line"/>
    </contour>
    <contour>
      <point x="675" y="1510" type="qcurve" smooth="yes"/>
      <point x="675" y="1448"/>
      <point x="544" y="1395" type="qcurve" smooth="yes"/>
      <point x="432" y="1350"/>
      <point x="358" y="1350" type="qcurve" smooth="yes"/>
      <point x="330" y="1350"/>
      <point x="223" y="1379"/>
      <point x="199" y="1379" type="qcurve" smooth="yes"/>
      <point x="183" y="1379"/>
      <point x="138" y="1320"/>
      <point x="126" y="1320" type="qcurve" smooth="yes"/>
      <point x="96" y="1320"/>
      <point x="96" y="1366" type="qcurve" smooth="yes"/>
      <point x="96" y="1396"/>
      <point x="137" y="1465" type="qcurve" smooth="yes"/>
      <point x="181" y="1540"/>
      <point x="214" y="1540" type="qcurve"/>
      <point x="196" y="1540"/>
      <point x="196" y="1537" type="qcurve" smooth="yes"/>
      <point x="196" y="1532"/>
      <point x="285" y="1513" type="qcurve" smooth="yes"/>
      <point x="415" y="1486"/>
      <point x="459" y="1486" type="qcurve" smooth="yes"/>
      <point x="498" y="1486"/>
      <point x="638" y="1534"/>
      <point x="652" y="1534" type="qcurve" smooth="yes"/>
      <point x="675" y="1534"/>
    </contour>
  </outline>
</glyph>
<glyph name="uFE84" format="2">
  <advance width="599"/>
  <unicode hex="FE84"/>
  <outline>
    <contour>
      <point x="625" y="1" type="line"/>
      <point x="507" y="1" type="line" smooth="yes"/>
      <point x="409" y="1"/>
      <point x="339" y="67" type="qcurve" smooth="yes"/>
      <point x="246" y="155"/>
      <point x="246" y="336" type="qcurve" smooth="yes"/>
      <point x="246" y="463"/>
      <point x="231" y="707" type="qcurve" smooth="yes"/>
      <point x="214" y="977"/>
      <point x="197" y="1073" type="qcurve" smooth="yes"/>
      <point x="192" y="1101"/>
      <point x="202" y="1111" type="qcurve" smooth="yes"/>
      <point x="366" y="1245" type="line" smooth="yes"/>
      <point x="395" y="1269"/>
      <point x="401" y="1269" type="qcurve" smooth="yes"/>
      <point x="402" y="1269"/>
      <point x="402" y="1268" type="qcurve" smooth="yes"/>
      <point x="409" y="1267"/>
      <point x="409" y="1240" type="qcurve" smooth="yes"/>
      <point x="407" y="399" type="line" smooth="yes"/>
      <point x="407" y="257"/>
      <point x="566" y="257" type="qcurve" smooth="yes"/>
      <point x="625" y="257" type="line"/>
    </contour>
    <contour>
      <point x="477" y="1487" type="qcurve"/>
      <point x="481" y="1472"/>
      <point x="477" y="1436" type="qcurve" smooth="yes"/>
      <point x="473" y="1399"/>
      <point x="465" y="1389" type="qcurve"/>
      <point x="325" y="1353"/>
      <point x="114" y="1261" type="qcurve"/>
      <point x="113" y="1335" type="line"/>
      <point x="146" y="1353"/>
      <point x="207" y="1383" type="qcurve"/>
      <point x="180" y="1395"/>
      <point x="129" y="1462"/>
      <point x="129" y="1490" type="qcurve" smooth="yes"/>
      <point x="129" y="1548"/>
      <point x="266" y="1677"/>
      <point x="324" y="1677" type="qcurve" smooth="yes"/>
      <point x="353" y="1677"/>
      <point x="391" y="1654" type="qcurve" smooth="yes"/>
      <point x="433" y="1629"/>
      <point x="433" y="1602" type="qcurve" smooth="yes"/>
      <point x="433" y="1562"/>
      <point x="403" y="1562" type="qcurve" smooth="yes"/>
      <point x="390" y="1562"/>
      <point x="322" y="1588"/>
      <point x="302" y="1588" type="qcurve" smooth="yes"/>
      <point x="277" y="1588"/>
      <point x="250" y="1575" type="qcurve" smooth="yes"/>
      <point x="218" y="1560"/>
      <point x="218" y="1538" type="qcurve" smooth="yes"/>
      <point x="218" y="1503"/>
      <point x="288" y="1448"/>
      <point x="324" y="1448" type="qcurve" smooth="yes"/>
      <point x="354" y="1448"/>
      <point x="401" y="1464" type="qcurve" smooth="yes"/>
      <point x="462" y="1484"/>
    </contour>
  </outline>
</glyph>
<glyph name="uFE86" format="2">
  <advance width="920"/>
  <unicode hex="FE86"/>
  <outline>
    <contour>
      <point x="949" y="1" type="line"/>
      <point x="773" y="1" type="line"/>
      <point x="773" y="-252"/>
      <point x="601" y="-447" type="qcurve" smooth="yes"/>
      <point x="546" y="-509"/>
      <point x="531" y="-509" type="qcurve" smooth="yes"/>
      <point x="279" y="-509"/>
      <point x="132" y="-458" type="qcurve" smooth="yes"/>
      <point x="104" y="-448"/>
      <point x="130" y="-439" type="qcurve" smooth="yes"/>
      <point x="303" y="-377"/>
      <point x="477" y="-239" type="qcurve" smooth="yes"/>
      <point x="662" y="-93"/>
      <point x="662" y="5" type="qcurve"/>
      <point x="595" y="5" type="line"/>
      <point x="529" y="4" type="line" smooth="yes"/>
      <point x="396" y="2"/>
      <point x="333" y="34" type="qcurve" smooth="yes"/>
      <point x="250" y="76"/>
      <point x="250" y="192" type="qcurve" smooth="yes"/>
      <point x="250" y="297"/>
      <point x="317" y="433" type="qcurve" smooth="yes"/>
      <point x="398" y="598"/>
      <point x="509" y="598" type="qcurve" smooth="yes"/>
      <point x="622" y="598"/>
      <point x="696" y="479" type="qcurve" smooth="yes"/>
      <point x="754" y="386"/>
      <point x="773" y="258" type="qcurve"/>
      <point x="949" y="258" type="line"/>
    </contour>
    <contour>
      <point x="625" y="255" type="qcurve"/>
      <point x="598" y="323"/>
      <point x="540" y="360" type="qcurve" smooth="yes"/>
      <point x="496" y="388"/>
      <point x="462" y="388" type="qcurve" smooth="yes"/>
      <point x="431" y="388"/>
      <point x="379" y="344"/>
      <point x="379" y="314" type="qcurve" smooth="yes"/>
      <point x="379" y="244"/>
      <point x="491" y="244" type="qcurve" smooth="yes"/>
      <point x="543" y="244"/>
    </contour>
    <contour>
      <point x="658" y="1027" type="qcurve"/>
      <point x="662" y="1010"/>
      <point x="659" y="977" type="qcurve" smooth="yes"/>
      <point x="655" y="941"/>
      <point x="647" y="929" type="qcurve"/>
      <point x="506" y="893"/>
      <point x="295" y="801" type="qcurve"/>
      <point x="294" y="875" type="line"/>
      <point x="328" y="893"/>
      <point x="388" y="923" type="qcurve"/>
      <point x="362" y="935"/>
      <point x="310" y="1003"/>
      <point x="310" y="1030" type="qcurve" smooth="yes"/>
      <point x="310" y="1088"/>
      <point x="447" y="1217"/>
      <point x="506" y="1217" type="qcurve" smooth="yes"/>
      <point x="535" y="1217"/>
      <point x="573" y="1194" type="qcurve" smooth="yes"/>
      <point x="615" y="1169"/>
      <point x="615" y="1142" type="qcurve" smooth="yes"/>
      <point x="615" y="1102"/>
      <point x="584" y="1102" type="qcurve" smooth="yes"/>
      <point x="572" y="1102"/>
      <point x="504" y="1128"/>
      <point x="484" y="1128" type="qcurve" smooth="yes"/>
      <point x="459" y="1128"/>
      <point x="432" y="1115" type="qcurve" smooth="yes"/>
      <point x="400" y="1100"/>
      <point x="400" y="1078" type="qcurve" smooth="yes"/>
      <point x="400" y="1043"/>
      <point x="470" y="988"/>
      <point x="506" y="988" type="qcurve" smooth="yes"/>
      <point x="535" y="988"/>
      <point x="582" y="1004" type="qcurve" smooth="yes"/>
      <point x="643" y="1024"/>
    </contour>
  </outline>
</glyph>
<glyph name="uFE88" format="2">
  <advance width="617"/>
  <unicode hex="FE88"/>
  <outline>
    <contour>
      <point x="643" y="1" type="line"/>
      <point x="525" y="1" type="line" smooth="yes"/>
      <point x="427" y="1"/>
      <point x="357" y="67" type="qcurve" smooth="yes"/>
      <point x="263" y="156"/>
      <point x="263" y="336" type="qcurve" smooth="yes"/>
      <point x="263" y="450"/>
      <point x="248" y="707" type="qcurve" smooth="yes"/>
      <point x="232" y="983"/>
      <point x="215" y="1073" type="qcurve" smooth="yes"/>
      <point x="210" y="1101"/>
      <point x="219" y="1111" type="qcurve" smooth="yes"/>
      <point x="384" y="1245" type="line" smooth="yes"/>
      <point x="414" y="1269"/>
      <point x="419" y="1269" type="qcurve" smooth="yes"/>
      <point x="419" y="1269"/>
      <point x="420" y="1268" type="qcurve" smooth="yes"/>
      <point x="426" y="1267"/>
      <point x="426" y="1240" type="qcurve" smooth="yes"/>
      <point x="425" y="399" type="line" smooth="yes"/>
      <point x="425" y="257"/>
      <point x="583" y="257" type="qcurve" smooth="yes"/>
      <point x="643" y="257" type="line"/>
    </contour>
    <contour>
      <point x="595" y="-310" type="qcurve"/>
      <point x="599" y="-325"/>
      <point x="595" y="-361" type="qcurve" smooth="yes"/>
      <point x="591" y="-398"/>
      <point x="583" y="-408" type="qcurve"/>
      <point x="443" y="-444"/>
      <point x="232" y="-536" type="qcurve"/>
      <point x="231" y="-462" type="line"/>
      <point x="264" y="-444"/>
      <point x="325" y="-414" type="qcurve"/>
      <point x="298" y="-402"/>
      <point x="247" y="-335"/>
      <point x="247" y="-307" type="qcurve" smooth="yes"/>
      <point x="247" y="-249"/>
      <point x="384" y="-120"/>
      <point x="442" y="-120" type="qcurve" smooth="yes"/>
      <point x="471" y="-120"/>
      <point x="509" y="-143" type="qcurve" smooth="yes"/>
      <point x="551" y="-168"/>
      <point x="551" y="-195" type="qcurve" smooth="yes"/>
      <point x="551" y="-235"/>
      <point x="521" y="-235" type="qcurve" smooth="yes"/>
      <point x="508" y="-235"/>
      <point x="440" y="-209"/>
      <point x="420" y="-209" type="qcurve" smooth="yes"/>
      <point x="395" y="-209"/>
      <point x="368" y="-222" type="qcurve" smooth="yes"/>
      <point x="336" y="-237"/>
      <point x="336" y="-259" type="qcurve" smooth="yes"/>
      <point x="336" y="-294"/>
      <point x="406" y="-349"/>
      <point x="442" y="-349" type="qcurve" smooth="yes"/>
      <point x="472" y="-349"/>
      <point x="519" y="-333" type="qcurve" smooth="yes"/>
      <point x="580" y="-313"/>
    </contour>
  </outline>
</glyph>
<glyph name="uFE8A" format="2">
  <advance width="1431"/>
  <unicode hex="FE8A"/>
  <outline>
    <contour>
      <point x="1457" y="1" type="line"/>
      <point x="1371" y="1" type="line" smooth="yes"/>
      <point x="1317" y="1"/>
      <point x="1102" y="31"/>
      <point x="1048" y="31" type="qcurve" smooth="yes"/>
      <point x="1002" y="31"/>
      <point x="962" y="19" type="qcurve" smooth="yes"/>
      <point x="903" y="1"/>
      <point x="903" y="-34" type="qcurve" smooth="yes"/>
      <point x="903" y="-55"/>
      <point x="989" y="-68" type="qcurve" smooth="yes"/>
      <point x="1041" y="-73"/>
      <point x="1093" y="-78" type="qcurve" smooth="yes"/>
      <point x="1206" y="-92"/>
      <point x="1252" y="-114" type="qcurve" smooth="yes"/>
      <point x="1310" y="-142"/>
      <point x="1310" y="-204" type="qcurve" smooth="yes"/>
      <point x="1310" y="-413"/>
      <point x="1086" y="-506" type="qcurve" smooth="yes"/>
      <point x="929" y="-571"/>
      <point x="684" y="-571" type="qcurve" smooth="yes"/>
      <point x="177" y="-571"/>
      <point x="177" y="-200" type="qcurve" smooth="yes"/>
      <point x="177" y="-99"/>
      <point x="243" y="45" type="qcurve" smooth="yes"/>
      <point x="306" y="183"/>
      <point x="342" y="183" type="qcurve" smooth="yes"/>
      <point x="389" y="183"/>
      <point x="389" y="141" type="qcurve" smooth="yes"/>
      <point x="389" y="133"/>
      <point x="333" y="-30"/>
      <point x="333" y="-81" type="qcurve" smooth="yes"/>
      <point x="333" y="-245"/>
      <point x="497" y="-300" type="qcurve" smooth="yes"/>
      <point x="598" y="-334"/>
      <point x="824" y="-334" type="qcurve" smooth="yes"/>
      <point x="900" y="-334"/>
      <point x="1027" y="-312" type="qcurve" smooth="yes"/>
      <point x="1179" y="-286"/>
      <point x="1179" y="-251" type="qcurve" smooth="yes"/>
      <point x="1179" y="-234"/>
      <point x="1075" y="-226" type="qcurve" smooth="yes"/>
      <point x="935" y="-216"/>
      <point x="881" y="-200" type="qcurve" smooth="yes"/>
      <point x="776" y="-170"/>
      <point x="776" y="-98" type="qcurve" smooth="yes"/>
      <point x="776" y="12"/>
      <point x="881" y="118" type="qcurve" smooth="yes"/>
      <point x="1019" y="258"/>
      <point x="1261" y="258" type="qcurve" smooth="yes"/>
      <point x="1457" y="258" type="line"/>
    </contour>
    <contour>
      <point x="547" y="544" type="qcurve"/>
      <point x="551" y="529"/>
      <point x="548" y="494" type="qcurve" smooth="yes"/>
      <point x="545" y="458"/>
      <point x="536" y="447" type="qcurve"/>
      <point x="395" y="411"/>
      <point x="184" y="318" type="qcurve"/>
      <point x="183" y="392" type="line"/>
      <point x="217" y="410"/>
      <point x="277" y="440" type="qcurve"/>
      <point x="251" y="452"/>
      <point x="199" y="520"/>
      <point x="199" y="547" type="qcurve" smooth="yes"/>
      <point x="199" y="605"/>
      <point x="336" y="735"/>
      <point x="395" y="735" type="qcurve" smooth="yes"/>
      <point x="424" y="735"/>
      <point x="462" y="712" type="qcurve" smooth="yes"/>
      <point x="504" y="687"/>
      <point x="504" y="660" type="qcurve" smooth="yes"/>
      <point x="504" y="619"/>
      <point x="473" y="619" type="qcurve" smooth="yes"/>
      <point x="461" y="619"/>
      <point x="393" y="646"/>
      <point x="373" y="646" type="qcurve" smooth="yes"/>
      <point x="347" y="646"/>
      <point x="321" y="633" type="qcurve" smooth="yes"/>
      <point x="289" y="618"/>
      <point x="289" y="595" type="qcurve" smooth="yes"/>
      <point x="289" y="560"/>
      <point x="359" y="506"/>
      <point x="395" y="506" type="qcurve" smooth="yes"/>
      <point x="424" y="506"/>
      <point x="474" y="522" type="qcurve" smooth="yes"/>
      <point x="540" y="543"/>
    </contour>
  </outline>
</glyph>
<glyph name="uFE8B" format="2">
  <advance width="370"/>
  <unicode hex="FE8B"/>
  <outline>
    <contour>
      <point x="367" y="392" type="qcurve" smooth="yes"/>
      <point x="367" y="244"/>
      <point x="310" y="141" type="qcurve" smooth="yes"/>
      <point x="232" y="1"/>
      <point x="70" y="1" type="qcurve" smooth="yes"/>
      <point x="-26" y="1" type="line"/>
      <point x="-26" y="258" type="line"/>
      <point x="85" y="258" type="line" smooth="yes"/>
      <point x="229" y="258"/>
      <point x="229" y="312" type="qcurve" smooth="yes"/>
      <point x="229" y="359"/>
      <point x="117" y="482" type="qcurve" smooth="yes"/>
      <point x="104" y="496"/>
      <point x="117" y="514" type="qcurve" smooth="yes"/>
      <point x="234" y="677" type="line" smooth="yes"/>
      <point x="249" y="698"/>
      <point x="264" y="682" type="qcurve" smooth="yes"/>
      <point x="309" y="634"/>
      <point x="339" y="546" type="qcurve" smooth="yes"/>
      <point x="367" y="464"/>
    </contour>
    <contour>
      <point x="399" y="1069" type="qcurve"/>
      <point x="403" y="1054"/>
      <point x="400" y="1019" type="qcurve" smooth="yes"/>
      <point x="397" y="983"/>
      <point x="388" y="972" type="qcurve"/>
      <point x="247" y="936"/>
      <point x="36" y="843" type="qcurve"/>
      <point x="35" y="917" type="line"/>
      <point x="69" y="935"/>
      <point x="129" y="965" type="qcurve"/>
      <point x="103" y="977"/>
      <point x="51" y="1045"/>
      <point x="51" y="1072" type="qcurve" smooth="yes"/>
      <point x="51" y="1130"/>
      <point x="188" y="1260"/>
      <point x="247" y="1260" type="qcurve" smooth="yes"/>
      <point x="276" y="1260"/>
      <point x="314" y="1237" type="qcurve" smooth="yes"/>
      <point x="356" y="1212"/>
      <point x="356" y="1185" type="qcurve" smooth="yes"/>
      <point x="356" y="1144"/>
      <point x="325" y="1144" type="qcurve" smooth="yes"/>
      <point x="313" y="1144"/>
      <point x="245" y="1171"/>
      <point x="225" y="1171" type="qcurve" smooth="yes"/>
      <point x="199" y="1171"/>
      <point x="173" y="1158" type="qcurve" smooth="yes"/>
      <point x="141" y="1143"/>
      <point x="141" y="1120" type="qcurve" smooth="yes"/>
      <point x="141" y="1085"/>
      <point x="211" y="1031"/>
      <point x="247" y="1031" type="qcurve" smooth="yes"/>
      <point x="276" y="1031"/>
      <point x="326" y="1047" type="qcurve" smooth="yes"/>
      <point x="392" y="1068"/>
    </contour>
  </outline>
</glyph>
<glyph name="uFE8C" format="2">
  <advance width="715"/>
  <unicode hex="FE8C"/>
  <outline>
    <contour>
      <point x="742" y="1" type="line"/>
      <point x="647" y="1" type="line" smooth="yes"/>
      <point x="570" y="1"/>
      <point x="427" y="82"/>
      <point x="388" y="148" type="qcurve"/>
      <point x="301" y="1"/>
      <point x="132" y="1" type="qcurve" smooth="yes"/>
      <point x="-26" y="1" type="line"/>
      <point x="-26" y="258" type="line"/>
      <point x="92" y="258" type="line" smooth="yes"/>
      <point x="238" y="258"/>
      <point x="294" y="323" type="qcurve" smooth="yes"/>
      <point x="323" y="356"/>
      <point x="339" y="444" type="qcurve" smooth="yes"/>
      <point x="351" y="509"/>
      <point x="388" y="509" type="qcurve" smooth="yes"/>
      <point x="424" y="509"/>
      <point x="435" y="444" type="qcurve" smooth="yes"/>
      <point x="450" y="356"/>
      <point x="473" y="323" type="qcurve" smooth="yes"/>
      <point x="519" y="258"/>
      <point x="639" y="258" type="qcurve" smooth="yes"/>
      <point x="742" y="258" type="line"/>
    </contour>
    <contour>
      <point x="478" y="916" type="qcurve"/>
      <point x="483" y="901"/>
      <point x="479" y="866" type="qcurve" smooth="yes"/>
      <point x="475" y="828"/>
      <point x="467" y="818" type="qcurve"/>
      <point x="326" y="782"/>
      <point x="115" y="690" type="qcurve"/>
      <point x="115" y="764" type="line"/>
      <point x="148" y="782"/>
      <point x="209" y="812" type="qcurve"/>
      <point x="182" y="824"/>
      <point x="130" y="891"/>
      <point x="130" y="919" type="qcurve" smooth="yes"/>
      <point x="130" y="977"/>
      <point x="267" y="1106"/>
      <point x="326" y="1106" type="qcurve" smooth="yes"/>
      <point x="355" y="1106"/>
      <point x="393" y="1083" type="qcurve" smooth="yes"/>
      <point x="435" y="1058"/>
      <point x="435" y="1031" type="qcurve" smooth="yes"/>
      <point x="435" y="991"/>
      <point x="404" y="991" type="qcurve" smooth="yes"/>
      <point x="392" y="991"/>
      <point x="324" y="1017"/>
      <point x="304" y="1017" type="qcurve" smooth="yes"/>
      <point x="279" y="1017"/>
      <point x="252" y="1004" type="qcurve" smooth="yes"/>
      <point x="220" y="989"/>
      <point x="220" y="967" type="qcurve" smooth="yes"/>
      <point x="220" y="932"/>
      <point x="290" y="877"/>
      <point x="326" y="877" type="qcurve" smooth="yes"/>
      <point x="352" y="877"/>
      <point x="402" y="892" type="qcurve" smooth="yes"/>
      <point x="440" y="904"/>
    </contour>
  </outline>
</glyph>
<glyph name="uFE8E" format="2">
  <advance width="581"/>
  <unicode hex="FE8E"/>
  <outline>
    <contour>
      <point x="608" y="1" type="line"/>
      <point x="490" y="1" type="line" smooth="yes"/>
      <point x="391" y="1"/>
      <point x="321" y="67" type="qcurve" smooth="yes"/>
      <point x="228" y="155"/>
      <point x="228" y="336" type="qcurve" smooth="yes"/>
      <point x="228" y="459"/>
      <point x="213" y="707" type="qcurve" smooth="yes"/>
      <point x="196" y="985"/>
      <point x="180" y="1073" type="qcurve" smooth="yes"/>
      <point x="175" y="1102"/>
      <point x="184" y="1111" type="qcurve" smooth="yes"/>
      <point x="349" y="1245" type="line" smooth="yes"/>
      <point x="379" y="1269"/>
      <point x="384" y="1269" type="qcurve" smooth="yes"/>
      <point x="384" y="1269"/>
      <point x="385" y="1268" type="qcurve" smooth="yes"/>
      <point x="391" y="1267"/>
      <point x="391" y="1240" type="qcurve" smooth="yes"/>
      <point x="389" y="399" type="line" smooth="yes"/>
      <point x="389" y="257"/>
      <point x="548" y="257" type="qcurve" smooth="yes"/>
      <point x="608" y="257" type="line"/>
    </contour>
  </outline>
</glyph>
<glyph name="uFE91" format="2">
  <advance width="370"/>
  <unicode hex="FE91"/>
  <outline>
    <contour>
      <point x="367" y="392" type="qcurve" smooth="yes"/>
      <point x="367" y="244"/>
      <point x="310" y="141" type="qcurve" smooth="yes"/>
      <point x="232" y="1"/>
      <point x="70" y="1" type="qcurve" smooth="yes"/>
      <point x="-26" y="1" type="line"/>
      <point x="-26" y="258" type="line"/>
      <point x="85" y="258" type="line" smooth="yes"/>
      <point x="229" y="258"/>
      <point x="229" y="312" type="qcurve" smooth="yes"/>
      <point x="229" y="359"/>
      <point x="117" y="482" type="qcurve" smooth="yes"/>
      <point x="104" y="496"/>
      <point x="117" y="514" type="qcurve" smooth="yes"/>
      <point x="234" y="677" type="line" smooth="yes"/>
      <point x="249" y="698"/>
      <point x="264" y="682" type="qcurve" smooth="yes"/>
      <point x="309" y="634"/>
      <point x="339" y="546" type="qcurve" smooth="yes"/>
      <point x="367" y="464"/>
    </contour>
    <contour>
      <point x="329" y="-310" type="line"/>
      <point x="193" y="-446" type="line"/>
      <point x="57" y="-310" type="line"/>
      <point x="193" y="-174" type="line"/>
    </contour>
  </outline>
</glyph>
<glyph name="uFE96" format="2">
  <advance width="1693"/>
  <unicode hex="FE96"/>
  <outline>
    <contour>
      <point x="1720" y="1" type="line"/>
      <point x="1645" y="1" type="line" smooth="yes"/>
      <point x="1554" y="1"/>
      <point x="1479" y="64" type="qcurve" smooth="yes"/>
      <point x="1418" y="115"/>
      <point x="1397" y="178" type="qcurve"/>
      <point x="1254" y="55"/>
      <point x="1056" y="11" type="qcurve" smooth="yes"/>
      <point x="926" y="-18"/>
      <point x="721" y="-18" type="qcurve" smooth="yes"/>
      <point x="177" y="-18"/>
      <point x="177" y="351" type="qcurve" smooth="yes"/>
      <point x="177" y="451"/>
      <point x="225" y="545" type="qcurve" smooth="yes"/>
      <point x="268" y="630"/>
      <point x="299" y="630" type="qcurve" smooth="yes"/>
      <point x="337" y="630"/>
      <point x="337" y="588" type="qcurve" smooth="yes"/>
      <point x="337" y="566"/>
      <point x="312" y="476"/>
      <point x="312" y="453" type="qcurve" smooth="yes"/>
      <point x="312" y="316"/>
      <point x="466" y="267" type="qcurve" smooth="yes"/>
      <point x="567" y="235"/>
      <point x="774" y="235" type="qcurve" smooth="yes"/>
      <point x="1160" y="235"/>
      <point x="1357" y="381" type="qcurve" smooth="yes"/>
      <point x="1388" y="404"/>
      <point x="1443" y="464" type="qcurve" smooth="yes"/>
      <point x="1486" y="511"/>
      <point x="1505" y="511" type="qcurve" smooth="yes"/>
      <point x="1540" y="511"/>
      <point x="1540" y="462" type="qcurve" smooth="yes"/>
      <point x="1540" y="440"/>
      <point x="1491" y="335" type="qcurve"/>
      <point x="1522" y="258"/>
      <point x="1660" y="258" type="qcurve" smooth="yes"/>
      <point x="1720" y="258" type="line"/>
    </contour>
    <contour>
      <point x="1098" y="791" type="line"/>
      <point x="975" y="669" type="line"/>
      <point x="853" y="791" type="line"/>
      <point x="975" y="913" type="line"/>
    </contour>
    <contour>
      <point x="824" y="791" type="line"/>
      <point x="702" y="669" type="line"/>
      <point x="580" y="791" type="line"/>
      <point x="702" y="913" type="line"/>
    </contour>
  </outline>
</glyph>
<glyph name="uFE98" format="2">
  <advance width="715"/>
  <unicode hex="FE98"/>
  <outline>
    <contour>
      <point x="742" y="1" type="line"/>
      <point x="647" y="1" type="line" smooth="yes"/>
      <point x="570" y="1"/>
      <point x="427" y="82"/>
      <point x="388" y="148" type="qcurve"/>
      <point x="301" y="1"/>
      <point x="132" y="1" type="qcurve" smooth="yes"/>
      <point x="-26" y="1" type="line"/>
      <point x="-26" y="258" type="line"/>
      <point x="92" y="258" type="line" smooth="yes"/>
      <point x="238" y="258"/>
      <point x="294" y="323" type="qcurve" smooth="yes"/>
      <point x="323" y="356"/>
      <point x="339" y="444" type="qcurve" smooth="yes"/>
      <point x="351" y="509"/>
      <point x="388" y="509" type="qcurve" smooth="yes"/>
      <point x="424" y="509"/>
      <point x="435" y="444" type="qcurve" smooth="yes"/>
      <point x="450" y="356"/>
      <point x="473" y="323" type="qcurve" smooth="yes"/>
      <point x="519" y="258"/>
      <point x="639" y="258" type="qcurve" smooth="yes"/>
      <point x="742" y="258" type="line"/>
    </contour>
    <contour>
      <point x="587" y="791" type="line"/>
      <point x="464" y="669" type="line"/>
      <point x="342" y="791" type="line"/>
      <point x="464" y="913" type="line"/>
    </contour>
    <contour>
      <point x="314" y="791" type="line"/>
      <point x="191" y="669" type="line"/>
      <point x="69" y="791" type="line"/>
      <point x="191" y="913" type="line"/>
    </contour>
  </outline>
</glyph>
<glyph name="uFE9A" format="2">
  <advance width="1693"/>
  <unicode hex="FE9A"/>
  <outline>
    <contour>
      <point x="1720" y="1" type="line"/>
      <point x="1645" y="1" type="line" smooth="yes"/>
      <point x="1554" y="1"/>
      <point x="1479" y="64" type="qcurve" smooth="yes"/>
      <point x="1418" y="115"/>
      <point x="1397" y="178" type="qcurve"/>
      <point x="1254" y="55"/>
      <point x="1056" y="11" type="qcurve" smooth="yes"/>
      <point x="926" y="-18"/>
      <point x="721" y="-18" type="qcurve" smooth="yes"/>
      <point x="177" y="-18"/>
      <point x="177" y="351" type="qcurve" smooth="yes"/>
      <point x="177" y="451"/>
      <point x="225" y="545" type="qcurve" smooth="yes"/>
      <point x="268" y="630"/>
      <point x="299" y="630" type="qcurve" smooth="yes"/>
      <point x="337" y="630"/>
      <point x="337" y="588" type="qcurve" smooth="yes"/>
      <point x="337" y="566"/>
      <point x="312" y="476"/>
      <point x="312" y="453" type="qcurve" smooth="yes"/>
      <point x="312" y="316"/>
      <point x="466" y="267" type="qcurve" smooth="yes"/>
      <point x="567" y="235"/>
      <point x="774" y="235" type="qcurve" smooth="yes"/>
      <point x="1160" y="235"/>
      <point x="1357" y="381" type="qcurve" smooth="yes"/>
      <point x="1388" y="404"/>
      <point x="1443" y="464" type="qcurve" smooth="yes"/>
      <point x="1486" y="511"/>
      <point x="1505" y="511" type="qcurve" smooth="yes"/>
      <point x="1540" y="511"/>
      <point x="1540" y="462" type="qcurve" smooth="yes"/>
      <point x="1540" y="440"/>
      <point x="1491" y="335" type="qcurve"/>
      <point x="1522" y="258"/>
      <point x="1660" y="258" type="qcurve" smooth="yes"/>
      <point x="1720" y="258" type="line"/>
    </contour>
    <contour>
      <point x="582" y="735" type="line"/>
      <point x="705" y="857" type="line"/>
      <point x="827" y="735" type="line"/>
      <point x="705" y="612" type="line"/>
    </contour>
    <contour>
      <point x="855" y="735" type="line"/>
      <point x="978" y="857" type="line"/>
      <point x="1100" y="735" type="line"/>
      <point x="978" y="612" type="line"/>
    </contour>
    <contour>
      <point x="716" y="937" type="line"/>
      <point x="839" y="1060" type="line"/>
      <point x="961" y="937" type="line"/>
      <point x="839" y="815" type="line"/>
    </contour>
  </outline>
</glyph>
<glyph name="uFE9B" format="2">
  <advance width="520"/>
  <unicode hex="FE9B"/>
  <outline>
    <contour>
      <point x="367" y="392" type="qcurve" smooth="yes"/>
      <point x="367" y="244"/>
      <point x="310" y="141" type="qcurve" smooth="yes"/>
      <point x="232" y="1"/>
      <point x="70" y="1" type="qcurve" smooth="yes"/>
      <point x="-26" y="1" type="line"/>
      <point x="-26" y="258" type="line"/>
      <point x="85" y="258" type="line" smooth="yes"/>
      <point x="229" y="258"/>
      <point x="229" y="312" type="qcurve" smooth="yes"/>
      <point x="229" y="359"/>
      <point x="117" y="482" type="qcurve" smooth="yes"/>
      <point x="104" y="496"/>
      <point x="117" y="514" type="qcurve" smooth="yes"/>
      <point x="234" y="677" type="line" smooth="yes"/>
      <point x="249" y="698"/>
      <point x="264" y="682" type="qcurve" smooth="yes"/>
      <point x="309" y="634"/>
      <point x="339" y="546" type="qcurve" smooth="yes"/>
      <point x="367" y="464"/>
    </contour>
    <contour>
      <point x="1" y="937" type="line"/>
      <point x="123" y="1060" type="line"/>
      <point x="246" y="937" type="line"/>
      <point x="123" y="815" type="line"/>
    </contour>
    <contour>
      <point x="274" y="937" type="line"/>
      <point x="396" y="1060" type="line"/>
      <point x="519" y="937" type="line"/>
      <point x="396" y="815" type="line"/>
    </contour>
    <contour>
      <point x="135" y="1140" type="line"/>
      <point x="257" y="1262" type="line"/>
      <point x="380" y="1140" type="line"/>
      <point x="257" y="1017" type="line"/>
    </contour>
  </outline>
</glyph>
<glyph name="uFE9C" format="2">
  <advance width="715"/>
  <unicode hex="FE9C"/>
  <outline>
    <contour>
      <point x="742" y="1" type="line"/>
      <point x="647" y="1" type="line" smooth="yes"/>
      <point x="570" y="1"/>
      <point x="427" y="82"/>
      <point x="388" y="148" type="qcurve"/>
      <point x="301" y="1"/>
      <point x="132" y="1" type="qcurve" smooth="yes"/>
      <point x="-26" y="1" type="line"/>
      <point x="-26" y="258" type="line"/>
      <point x="92" y="258" type="line" smooth="yes"/>
      <point x="238" y="258"/>
      <point x="294" y="323" type="qcurve" smooth="yes"/>
      <point x="323" y="356"/>
      <point x="339" y="444" type="qcurve" smooth="yes"/>
      <point x="351" y="509"/>
      <point x="388" y="509" type="qcurve" smooth="yes"/>
      <point x="424" y="509"/>
      <point x="435" y="444" type="qcurve" smooth="yes"/>
      <point x="450" y="356"/>
      <point x="473" y="323" type="qcurve" smooth="yes"/>
      <point x="519" y="258"/>
      <point x="639" y="258" type="qcurve" smooth="yes"/>
      <point x="742" y="258" type="line"/>
    </contour>
    <contour>
      <point x="98" y="779" type="line"/>
      <point x="220" y="901" type="line"/>
      <point x="343" y="779" type="line"/>
      <point x="220" y="656" type="line"/>
    </contour>
    <contour>
      <point x="371" y="779" type="line"/>
      <point x="493" y="901" type="line"/>
      <point x="616" y="779" type="line"/>
      <point x="493" y="656" type="line"/>
    </contour>
    <contour>
      <point x="232" y="981" type="line"/>
      <point x="354" y="1104" type="line"/>
      <point x="477" y="981" type="line"/>
      <point x="354" y="859" type="line"/>
    </contour>
  </outline>
</glyph>
<glyph name="uFE9E" format="2">
  <advance width="1374"/>
  <unicode hex="FE9E"/>
  <outline>
    <contour>
      <point x="1401" y="1" type="line"/>
      <point x="1258" y="1" type="line" smooth="yes"/>
      <point x="887" y="1"/>
      <point x="887" y="334" type="qcurve" smooth="yes"/>
      <point x="887" y="371"/>
      <point x="892" y="412" type="qcurve"/>
      <point x="733" y="378"/>
      <point x="604" y="289" type="qcurve" smooth="yes"/>
      <point x="409" y="155"/>
      <point x="409" y="-48" type="qcurve" smooth="yes"/>
      <point x="409" y="-392"/>
      <point x="900" y="-392" type="qcurve" smooth="yes"/>
      <point x="1112" y="-392"/>
      <point x="1231" y="-356" type="qcurve" smooth="yes"/>
      <point x="1241" y="-353"/>
      <point x="1245" y="-353" type="qcurve" smooth="yes"/>
      <point x="1252" y="-353"/>
      <point x="1254" y="-358" type="qcurve" smooth="yes"/>
      <point x="1258" y="-365"/>
      <point x="1246" y="-382" type="qcurve" smooth="yes"/>
      <point x="1136" y="-544"/>
      <point x="800" y="-544" type="qcurve" smooth="yes"/>
      <point x="541" y="-544"/>
      <point x="380" y="-453" type="qcurve" smooth="yes"/>
      <point x="177" y="-338"/>
      <point x="177" y="-100" type="qcurve" smooth="yes"/>
      <point x="177" y="97"/>
      <point x="353" y="254" type="qcurve" smooth="yes"/>
      <point x="494" y="380"/>
      <point x="714" y="457" type="qcurve"/>
      <point x="493" y="502"/>
      <point x="439" y="502" type="qcurve" smooth="yes"/>
      <point x="382" y="502"/>
      <point x="253" y="389"/>
      <point x="254" y="389" type="qcurve"/>
      <point x="209" y="389"/>
      <point x="209" y="426" type="qcurve" smooth="yes"/>
      <point x="209" y="458"/>
      <point x="238" y="517" type="qcurve" smooth="yes"/>
      <point x="286" y="615"/>
      <point x="314" y="648" type="qcurve" smooth="yes"/>
      <point x="382" y="729"/>
      <point x="480" y="729" type="qcurve" smooth="yes"/>
      <point x="513" y="729"/>
      <point x="655" y="705" type="qcurve" smooth="yes"/>
      <point x="848" y="672"/>
      <point x="940" y="663" type="qcurve" smooth="yes"/>
      <point x="1098" y="647"/>
      <point x="1231" y="664" type="qcurve" smooth="yes"/>
      <point x="1260" y="668"/>
      <point x="1260" y="661" type="qcurve" smooth="yes"/>
      <point x="1260" y="657"/>
      <point x="1249" y="632" type="qcurve" smooth="yes"/>
      <point x="1161" y="436" type="line"/>
      <point x="1085" y="436"/>
      <point x="995" y="426" type="qcurve"/>
      <point x="995" y="310"/>
      <point x="1097" y="275" type="qcurve" smooth="yes"/>
      <point x="1146" y="258"/>
      <point x="1268" y="258" type="qcurve" smooth="yes"/>
      <point x="1401" y="258" type="line"/>
    </contour>
    <contour>
      <point x="928" y="-72" type="line"/>
      <point x="792" y="-208" type="line"/>
      <point x="656" y="-72" type="line"/>
      <point x="792" y="63" type="line"/>
    </contour>
  </outline>
</glyph>
<glyph name="uFEA0" format="2">
  <advance width="1234"/>
  <unicode hex="FEA0"/>
  <outline>
    <contour>
      <point x="1259" y="1" type="line"/>
      <point x="1061" y="1" type="line" smooth="yes"/>
      <point x="733" y="1"/>
      <point x="733" y="309" type="qcurve"/>
      <point x="400" y="1"/>
      <point x="55" y="1" type="qcurve" smooth="yes"/>
      <point x="-26" y="1" type="line"/>
      <point x="-26" y="258" type="line"/>
      <point x="82" y="258" type="line" smooth="yes"/>
      <point x="264" y="258"/>
      <point x="395" y="305" type="qcurve" smooth="yes"/>
      <point x="484" y="337"/>
      <point x="677" y="449" type="qcurve"/>
      <point x="444" y="530"/>
      <point x="332" y="530" type="qcurve" smooth="yes"/>
      <point x="278" y="530"/>
      <point x="152" y="411"/>
      <point x="147" y="411" type="qcurve" smooth="yes"/>
      <point x="109" y="411"/>
      <point x="109" y="446" type="qcurve" smooth="yes"/>
      <point x="109" y="484"/>
      <point x="126" y="518" type="qcurve" smooth="yes"/>
      <point x="242" y="752"/>
      <point x="394" y="752" type="qcurve" smooth="yes"/>
      <point x="473" y="752"/>
      <point x="912" y="611"/>
      <point x="1034" y="611" type="qcurve" smooth="yes"/>
      <point x="1113" y="611"/>
      <point x="1113" y="604" type="qcurve" smooth="yes"/>
      <point x="1112" y="601"/>
      <point x="1106" y="588" type="qcurve" smooth="yes"/>
      <point x="1021" y="405" type="line"/>
      <point x="910" y="405"/>
      <point x="837" y="375" type="qcurve"/>
      <point x="837" y="298"/>
      <point x="926" y="272" type="qcurve" smooth="yes"/>
      <point x="974" y="258"/>
      <point x="1080" y="258" type="qcurve" smooth="yes"/>
      <point x="1259" y="258" type="line"/>
    </contour>
    <contour>
      <point x="725" y="-266" type="line"/>
      <point x="589" y="-402" type="line"/>
      <point x="454" y="-266" type="line"/>
      <point x="589" y="-130" type="line"/>
    </contour>
  </outline>
</glyph>
<glyph name="uFEA3" format="2">
  <advance width="1120"/>
  <unicode hex="FEA3"/>
  <outline>
    <contour>
      <point x="1113" y="468" type="qcurve" smooth="yes"/>
      <point x="984" y="283" type="line"/>
      <point x="852" y="283"/>
      <point x="705" y="210" type="qcurve" smooth="yes"/>
      <point x="629" y="171"/>
      <point x="430" y="74" type="qcurve" smooth="yes"/>
      <point x="274" y="1"/>
      <point x="58" y="1" type="qcurve" smooth="yes"/>
      <point x="-23" y="1" type="line"/>
      <point x="-23" y="258" type="line"/>
      <point x="85" y="258" type="line" smooth="yes"/>
      <point x="299" y="258"/>
      <point x="430" y="289" type="qcurve" smooth="yes"/>
      <point x="538" y="315"/>
      <point x="673" y="383" type="qcurve"/>
      <point x="629" y="400"/>
      <point x="514" y="444" type="qcurve" smooth="yes"/>
      <point x="388" y="492"/>
      <point x="334" y="492" type="qcurve" smooth="yes"/>
      <point x="280" y="492"/>
      <point x="154" y="391"/>
      <point x="149" y="391" type="qcurve" smooth="yes"/>
      <point x="109" y="391"/>
      <point x="109" y="436" type="qcurve" smooth="yes"/>
      <point x="109" y="466"/>
      <point x="138" y="518" type="qcurve" smooth="yes"/>
      <point x="248" y="713"/>
      <point x="384" y="713" type="qcurve" smooth="yes"/>
      <point x="452" y="713"/>
      <point x="944" y="492"/>
      <point x="1067" y="492" type="qcurve" smooth="yes"/>
      <point x="1119" y="492"/>
      <point x="1119" y="482" type="qcurve" smooth="yes"/>
      <point x="1118" y="475"/>
    </contour>
  </outline>
</glyph>
